<?xml version="1.0" encoding="UTF-8" standalone="no"?>
<svg width="75px" height="75px" viewBox="0 0 75 75" version="1.1" xmlns="http://www.w3.org/2000/svg" xmlns:xlink="http://www.w3.org/1999/xlink">
    <!-- Generator: Sketch 39.1 (31720) - http://www.bohemiancoding.com/sketch -->
    <title>Page 1</title>
    <desc>Created with Sketch.</desc>
    <defs></defs>
    <g id="Welcome" stroke="none" stroke-width="1" fill="none" fill-rule="evenodd">
        <g id="Desktop-HD" transform="translate(-603.000000, -25.000000)">
            <g id="Page-1" transform="translate(603.000000, 25.000000)">
                <path d="M75,37.5 C75,58.210875 58.210875,75 37.5,75 C16.789125,75 0,58.210875 0,37.5 C0,16.7895 16.789125,0 37.5,0 C58.210875,0 75,16.7895 75,37.5" id="Fill-1" fill="#333333"></path>
                <path d="M33.3801375,49.3732875 C33.3853875,49.1895375 33.4236375,48.4237875 33.4236375,48.4204125 C33.4367625,48.1035375 33.4442625,47.7776625 33.4502625,47.4592875 L33.4585125,47.1090375 C33.4652625,46.8139125 33.4720125,46.5180375 33.4720125,46.2274125 C33.4723875,46.1276625 33.4682625,45.8591625 33.4645125,45.6015375 C33.4611375,45.3810375 33.4581375,45.1691625 33.4581375,45.0840375 C33.4607625,44.8695375 33.5121375,42.7324125 33.5125125,42.7252875 C33.5203875,42.4200375 33.5278875,42.1136625 33.5286375,41.8099125 C33.5316375,41.5684125 33.5278875,41.3239125 33.5230125,41.0002875 L33.5143875,40.5904125 C33.5095125,40.2870375 33.4960125,39.9829125 33.4813875,39.6604125 C33.4566375,39.1507875 33.4292625,38.5729125 33.4656375,38.0336625 L33.4915125,37.7730375 C33.5023875,37.6841625 33.5125125,37.5949125 33.5177625,37.4989125 C33.5245125,37.3451625 33.5233875,37.1962875 33.5147625,37.0384125 C33.5837625,37.0204125 33.6508875,37.0114125 33.7236375,37.0114125 L33.7618875,37.0114125 L33.7817625,37.0129125 C33.9887625,37.0271625 34.1957625,37.0354125 34.4038875,37.0425375 L35.5671375,37.0841625 L35.9657625,37.0837875 L35.9743875,37.1014125 L36.2170125,37.0834125 L36.3370125,37.0830375 L36.3373875,37.0642875 L36.3632625,37.0564125 C36.4097625,37.0414125 36.4588875,37.0346625 36.5222625,37.0346625 C36.5563875,37.0346625 36.5905125,37.0369125 36.6835125,37.0410375 L36.7472625,37.0440375 C36.8192625,37.0440375 36.8878875,37.0387875 36.9707625,37.0316625 C37.0150125,37.0282875 37.0652625,37.0241625 37.1158875,37.0234125 C37.1413875,37.0234125 37.1541375,37.0279125 37.1567625,37.0294125 C37.4050125,37.2484125 37.6896375,37.3436625 38.0173875,37.4527875 C38.0316375,37.4580375 38.0653875,37.4696625 38.0912625,37.4797875 L38.1415125,37.6166625 L38.3170125,37.7077875 C38.3582625,37.7287875 38.3942625,37.7906625 38.4763875,37.9421625 C38.5116375,38.0119125 38.5487625,38.0824125 38.6016375,38.1622875 C38.7501375,38.3749125 38.8690125,38.6336625 39.0073875,38.9374125 L39.0272625,38.9790375 C39.0932625,39.1189125 39.1618875,39.2636625 39.2702625,39.4612875 L39.2822625,39.4830375 L39.2972625,39.5029125 C39.6133875,39.9022875 39.6835125,40.4467875 39.7450125,40.9286625 L39.8053875,41.3880375 C39.8657625,41.8526625 39.9280125,42.3472875 39.9733875,42.8329125 C40.0408875,43.5709125 40.0885125,44.3591625 39.9801375,45.1196625 C39.9535125,45.2992875 39.9373875,45.4781625 39.9141375,45.7552875 C39.9002625,45.9525375 39.8863875,46.1302875 39.8627625,46.2975375 C39.8365125,46.4726625 39.7821375,46.6485375 39.6996375,46.9151625 L39.6887625,46.9496625 C39.6703875,47.0051625 39.6403875,47.0677875 39.6043875,47.1390375 L39.5368875,47.2882875 C39.4866375,47.3985375 39.4408875,47.5136625 39.3988875,47.6235375 L39.2710125,47.9359125 C39.0846375,48.3776625 38.8581375,48.8861625 38.5337625,49.3316625 C38.3121375,49.6301625 38.0631375,49.8836625 37.8291375,50.1109125 C37.7736375,50.1634125 37.6858875,50.2121625 37.5966375,50.2627875 C37.3378875,50.3955375 37.1008875,50.5050375 36.8151375,50.5050375 C36.6516375,50.5050375 36.4978875,50.5260375 36.3298875,50.5519125 L36.0932625,50.5871625 C35.8978875,50.6040375 35.6987625,50.6179125 35.5150125,50.6261625 L34.3971375,50.6509125 L34.2771375,50.6692875 L34.0982625,50.6827875 L33.9381375,50.7094125 L33.8830125,50.6749125 L33.6801375,50.7210375 C33.6085125,50.7371625 33.4840125,50.7536625 33.3688875,50.7611625 C33.3666375,50.2372875 33.3707625,49.7929125 33.3801375,49.3732875 M33.5440125,24.5422875 C33.5372625,24.4717875 33.5522625,24.3810375 33.5721375,24.2824125 L33.5755125,24.2816625 L33.5807625,24.2535375 C33.6595125,24.2490375 33.7416375,24.2449125 33.8226375,24.2449125 C33.9801375,24.2449125 34.1162625,24.2580375 34.2437625,24.2861625 C34.3232625,24.3022875 34.3997625,24.3097875 34.4766375,24.3097875 C34.5685125,24.3097875 34.6603875,24.3007875 34.8081375,24.2854125 C34.9525125,24.2865375 35.3965125,24.3037875 35.4771375,24.3120375 C35.7947625,24.3375375 36.2113875,24.3836625 36.6193875,24.5212875 L36.9726375,24.6337875 C37.0840125,24.6697875 37.1983875,24.7069125 37.3135125,24.7496625 C37.4308875,24.7924125 37.5767625,24.8460375 37.6753875,24.9146625 C37.8816375,25.0597875 38.0998875,25.1272875 38.3121375,25.1677875 L38.3143875,25.1726625 L38.3657625,25.2412875 C38.4197625,25.3140375 38.4625125,25.3729125 38.4996375,25.4501625 L38.5281375,25.6057875 C38.5480125,25.7134125 38.5716375,25.8277875 38.6177625,25.9425375 C38.8052625,26.4120375 38.9545125,26.8849125 39.0587625,27.3397875 C39.0767625,27.4346625 39.0805125,27.5377875 39.0846375,27.6607875 C39.0865125,27.7421625 39.0895125,27.8227875 39.0966375,27.9094125 L39.1498875,28.4632875 C39.1813875,28.7981625 39.2095125,29.1307875 39.2327625,29.4652875 C39.2425125,29.5980375 39.2425125,29.7349125 39.2425125,29.9426625 L39.2428875,29.9996625 L39.2488875,30.1567875 C39.1465125,30.4369125 39.1281375,30.7114125 39.1105125,30.9806625 C39.1018875,31.1475375 39.0928875,31.2859125 39.0707625,31.4036625 C39.0411375,31.5292875 39.0280125,31.6515375 39.0103875,31.8210375 L39.0058875,31.8652875 C39.0021375,31.9324125 38.9972625,31.9976625 38.9830125,32.0925375 C38.9717625,32.1705375 38.9590125,32.2590375 38.9361375,32.3370375 L38.8836375,32.5080375 C38.8000125,32.7866625 38.7208875,33.0495375 38.6331375,33.3026625 C38.6136375,33.3574125 38.5768875,33.4196625 38.5221375,33.5141625 L38.4261375,33.6840375 C38.3785125,33.7597875 38.3256375,33.8524125 38.2873875,33.9611625 C38.2596375,34.0410375 38.1752625,34.1171625 38.0702625,34.2116625 L37.9765125,34.2941625 C37.9431375,34.3234125 37.8013875,34.4332875 37.8010125,34.4336625 L37.7841375,34.4479125 C37.2842625,34.8982875 36.6643875,35.0932875 36.1221375,35.2245375 C35.8262625,35.2980375 35.5041375,35.3250375 35.0950125,35.3602875 C34.9547625,35.3726625 34.8152625,35.3854125 34.5883875,35.4101625 C34.4803875,35.4169125 34.3337625,35.4262875 34.2040125,35.4915375 C34.1383875,35.4787875 34.0615125,35.4656625 33.9655125,35.4604125 C33.7671375,35.4555375 33.6456375,35.3257875 33.6407625,35.1154125 C33.6317625,34.6995375 33.5882625,32.3336625 33.5878875,32.3201625 C33.5841375,32.2230375 33.5800125,32.1259125 33.5807625,32.0299125 L33.5927625,31.2225375 C33.5991375,30.7740375 33.6055125,30.3262875 33.6055125,29.8789125 C33.6055125,29.3411625 33.5916375,28.8386625 33.5635125,28.3410375 C33.5286375,27.7609125 33.5286375,27.1489125 33.5635125,26.4157875 C33.5758875,26.1757875 33.5605125,25.9245375 33.5473875,25.7051625 L33.5286375,25.3672875 L33.5278875,25.2367875 C33.5470125,25.0496625 33.5657625,24.8047875 33.5440125,24.5422875 M41.4433875,43.1779125 C41.4212625,42.8809125 41.4055125,42.6225375 41.3965125,42.3915375 C41.3796375,41.8474125 41.3027625,41.3186625 41.2311375,40.8757875 C41.1580125,40.4096625 41.0406375,39.9641625 40.9262625,39.5456625 L40.9180125,39.5175375 C40.8047625,39.1151625 40.6765125,38.6584125 40.4698875,38.2260375 C40.2126375,37.6916625 39.8751375,37.0774125 39.3253875,36.5779125 C39.1318875,36.4027875 38.9496375,36.2839125 38.7452625,36.2010375 C38.6837625,36.1777875 38.6207625,36.1616625 38.5603875,36.1477875 C38.5337625,36.1414125 38.5078875,36.1350375 38.4925125,36.1297875 C38.3357625,36.0701625 38.1801375,36.0097875 38.0121375,35.9434125 C38.1306375,35.8624125 38.2431375,35.7727875 38.3627625,35.6655375 C38.3856375,35.6437875 38.4107625,35.6239125 38.4347625,35.6044125 L38.4516375,35.5905375 C38.5093875,35.5451625 38.5641375,35.4994125 38.6477625,35.4214125 L38.7955125,35.2879125 C38.9398875,35.1577875 39.1037625,35.0092875 39.2425125,34.8469125 C39.5916375,34.4464125 39.8365125,33.9615375 39.9910125,33.3630375 L40.2145125,32.4604125 C40.2568875,32.2871625 40.2992625,32.1135375 40.3453875,31.9399125 C40.5298875,31.2476625 40.5497625,30.5546625 40.5460125,30.0307875 C40.5460125,29.6726625 40.5441375,29.3130375 40.5403875,28.9507875 C40.5403875,28.9507875 40.5291375,28.3654125 40.5205125,28.1539125 C40.5073875,27.9322875 40.4901375,27.7669125 40.4657625,27.6240375 L40.4245125,27.3397875 C40.3918875,27.1080375 40.3543875,26.8451625 40.2865125,26.5995375 C40.2223875,26.3565375 40.1391375,26.1187875 40.0423875,25.8480375 C39.9985125,25.7377875 39.9640125,25.6399125 39.9141375,25.4734125 L39.8766375,25.3365375 L39.6925125,24.9165375 C39.5301375,24.5216625 39.3055125,24.2254125 39.0100125,24.0139125 L38.6068875,23.7169125 C38.5142625,23.6456625 38.4130125,23.5710375 38.2933875,23.5140375 C38.0541375,23.3966625 37.8070125,23.2912875 37.6003875,23.2061625 L37.4091375,23.1236625 C37.3082625,23.0820375 37.1938875,23.0351625 37.0615125,23.0092875 C36.9820125,22.9935375 36.9062625,22.9751625 36.7498875,22.9376625 C36.5657625,22.8952875 36.3756375,22.8514125 36.1847625,22.8356625 L35.7865125,22.7899125 C35.5240125,22.7599125 35.2667625,22.7329125 35.0027625,22.7329125 C35.0023875,22.7329125 34.8066375,22.7370375 34.8066375,22.7370375 C34.7170125,22.7370375 34.3288875,22.7194125 34.3195125,22.7194125 L33.5860125,22.7089125 L33.5815125,22.7036625 L33.5503875,22.7081625 L33.2222625,22.7036625 L33.2305125,22.7542875 C33.1817625,22.7595375 33.1333875,22.7632875 33.0861375,22.7632875 C33.0381375,22.7632875 32.9886375,22.7569125 32.8877625,22.7430375 L32.8671375,22.7404125 L32.8465125,22.7404125 C32.7325125,22.7404125 32.6530125,22.7681625 32.5971375,22.8064125 L32.2915125,22.9380375 L32.2491375,23.2995375 C32.2360125,23.4124125 32.2251375,23.5230375 32.2202625,23.6336625 L32.1467625,25.5300375 L32.1467625,25.9009125 C32.1467625,26.0734125 32.1467625,26.2504125 32.1381375,26.4255375 C32.1302625,26.6100375 32.1186375,26.7934125 32.1032625,27.0232875 L32.0987625,27.0945375 C32.0852625,27.3112875 32.0717625,27.5287875 32.0650125,27.7496625 C32.0537625,28.1396625 32.0526375,28.5337875 32.0518875,28.9136625 L32.0267625,31.4194125 L32.0293875,32.3295375 C32.0305125,32.5650375 32.0312625,32.8005375 32.0267625,33.0412875 L32.0267625,33.3349125 C32.0293875,33.6266625 32.0278875,33.8685375 31.9765125,34.1201625 C31.9630125,34.2030375 31.9618875,34.2877875 31.9648875,34.3905375 L31.9750125,34.7767875 C31.9787625,34.9121625 31.9828875,35.3876625 31.9828875,35.3884125 C31.9855125,35.9257875 31.9866375,36.4594125 31.9825125,36.9926625 L31.9540125,38.4330375 L31.9487625,40.5315375 C31.9487625,40.5315375 31.9026375,42.3030375 31.8973875,42.6232875 C31.8921375,42.9742875 31.8823875,44.3850375 31.8823875,44.3850375 L31.8422625,46.6515375 C31.8358875,46.7265375 31.8355125,46.7974125 31.8358875,46.8592875 C31.8313875,47.0074125 31.8313875,47.1559125 31.8355125,47.2909125 C31.8355125,47.4709125 31.8355125,47.6542875 31.8313875,47.8481625 C31.8313875,47.9576625 31.8272625,48.0664125 31.8220125,48.1777875 C31.8167625,48.3435375 31.8111375,48.5107875 31.8122625,48.6802875 L31.8227625,49.1932875 C31.8351375,49.6819125 31.8486375,50.2365375 31.8066375,50.7375375 C31.7987625,50.7990375 31.7942625,50.8631625 31.7942625,50.9340375 L31.8103875,51.8029125 L32.0200125,52.1917875 L32.6398875,52.2866625 L32.6406375,52.2836625 C32.7062625,52.2911625 32.7722625,52.2964125 32.8401375,52.2964125 L32.8487625,52.2964125 L32.9826375,52.2874125 C33.0460125,52.2802875 33.1093875,52.2776625 33.2316375,52.2724125 L33.9118875,52.2465375 L34.1623875,52.2315375 C34.2595125,52.2259125 34.3603875,52.2195375 34.4811375,52.2191625 L34.8985125,52.2349125 C35.0601375,52.2457875 35.2438875,52.2577875 35.4861375,52.2577875 C35.7737625,52.2577875 36.0617625,52.2487875 36.3261375,52.2401625 L36.6085125,52.2296625 C36.9523875,52.2150375 37.2557625,52.0954125 37.5493875,51.9791625 L37.5685125,51.9720375 C37.8148875,51.8756625 38.0485125,51.7500375 38.3488875,51.5842875 C38.8112625,51.3352875 39.3831375,50.9644125 39.7393875,50.2909125 C39.9816375,50.0966625 40.1323875,49.8547875 40.2576375,49.6241625 C40.4631375,49.2559125 40.6352625,48.9112875 40.7987625,48.5400375 C40.9468875,48.2055375 41.1141375,47.8264125 41.1715125,47.4011625 C41.1805125,47.3422875 41.2000125,47.2785375 41.2198875,47.2110375 L41.2652625,47.0550375 C41.4426375,46.4501625 41.5266375,45.9041625 41.5232625,45.3874125 C41.5232625,44.9179125 41.5108875,44.4315375 41.4850125,43.8581625 C41.4748875,43.6275375 41.4606375,43.4032875 41.4433875,43.1779125" id="Fill-3" fill="#FFFFFF"></path>
                <path d="M65.4799875,37.896225 L65.2887375,38.05935 L65.4601125,38.407725 C65.4672375,38.436975 65.4593625,38.556225 65.4544875,38.641725 L65.4526125,38.772225 C65.4526125,38.7726 65.4469875,39.287475 65.4409875,39.450225 L65.3656125,41.03685 C65.3547375,41.3001 65.3423625,41.562975 65.3247375,41.832225 C65.3078625,42.1296 65.2838625,42.4266 65.2602375,42.717225 L65.1886125,43.3971 C65.1496125,43.8006 65.0584875,44.207475 64.9621125,44.63835 L64.9013625,44.90385 C64.8646125,45.0666 64.8398625,45.228975 64.8053625,45.45735 L64.7963625,45.517725 C64.7809875,45.619725 64.7659875,45.720975 64.7453625,45.8256 C64.7063625,46.035975 64.5777375,46.663725 64.5593625,46.751475 L64.5016125,46.95735 C64.4127375,47.103975 64.3486125,47.26335 64.3032375,47.452725 C64.2949875,47.49435 64.2706125,47.549475 64.2372375,47.62335 C64.2364875,47.625225 64.1779875,47.752725 64.1513625,47.8191 C64.1191125,47.88735 64.0838625,47.9661 64.0684875,48.0396 C63.9769875,48.38085 63.7733625,48.691725 63.5573625,49.020975 L63.5273625,49.04835 C63.4039875,49.1601 63.3784875,49.18485 63.3158625,49.2981 L63.3031125,49.3206 L63.2952375,49.344225 C63.2813625,49.383975 63.2461125,49.43835 63.1654875,49.55685 L63.0893625,49.680225 L63.0777375,49.70085 C63.0653625,49.72485 63.0447375,49.76535 62.8834875,49.8501 L62.7627375,49.90935 C62.6367375,49.969725 62.4961125,50.037225 62.3577375,50.138475 C62.2294875,50.15835 62.0963625,50.19135 61.9058625,50.240475 C61.7191125,50.29485 61.5702375,50.333475 61.3609875,50.333475 C61.2406125,50.333475 61.1206125,50.33985 60.9499875,50.350725 L60.9237375,50.352225 C60.8164875,50.3586 60.7133625,50.3661 60.6076125,50.3661 C60.2239875,50.3661 59.8358625,50.35185 59.5092375,50.3391 L58.6369875,50.2851 C58.6268625,50.075475 58.6178625,49.863975 58.6118625,49.65285 C58.6039875,49.42635 58.6039875,49.1976 58.6039875,48.97035 L58.6039875,47.760225 C58.6039875,47.760225 58.6272375,44.936475 58.6272375,44.617725 C58.6272375,44.526975 58.6171125,44.4426 58.6039875,44.335725 C58.5961125,44.282475 58.5901125,44.230725 58.5878625,44.184975 L58.5792375,43.81035 C58.5694875,43.458975 58.5582375,43.0611 58.5874875,42.678975 C58.6069875,42.410475 58.6111125,42.142725 58.6156125,41.866725 L58.6231125,41.3586 L58.6501125,40.3731 C58.6523625,40.3236 58.6516125,40.2756 58.6418625,40.126725 C58.6392375,40.086225 58.6369875,40.050975 58.6411125,40.0251 C58.6932375,39.625725 58.6662375,39.237225 58.6373625,38.82585 L58.6347375,38.7876 C58.6238625,38.63835 58.6129875,38.4876 58.6092375,38.338725 L58.5844875,37.0296 C58.5844875,36.919725 58.5792375,36.80685 58.5736125,36.697725 C58.5664875,36.5706 58.5616125,36.447225 58.5616125,36.3201 C58.5604875,36.1191 58.5616125,35.919225 58.5649875,35.70585 L58.5574875,32.1681 C58.5597375,31.65285 58.5638625,31.137225 58.5709875,30.61935 C58.5728625,30.43335 58.5792375,30.24585 58.5878625,30.042225 C58.5904875,29.870475 58.5953625,29.698725 58.6017375,29.5221 C58.6036125,29.453475 58.6013625,29.38635 58.5968625,29.2476 L58.5946125,29.187975 C58.5919875,29.1141 58.5912375,29.0406 58.5931125,28.967475 C58.5931125,28.967475 58.6399875,27.368475 58.6471125,27.040725 C58.6516125,26.916225 58.6523625,26.20485 58.6523625,26.12385 C58.6523625,26.074725 58.6598625,26.014725 58.6729875,25.9071 L58.6861125,25.792725 C58.7247375,25.43385 58.7521125,25.04385 58.6898625,24.6351 C58.6898625,24.6351 58.6707375,24.477225 58.6707375,24.47385 C58.6827375,24.473475 58.7753625,24.472725 58.7753625,24.472725 C58.9759875,24.472725 59.1788625,24.483975 59.3753625,24.50535 C59.4409875,24.513225 59.5051125,24.51585 59.5651125,24.51585 C59.6314875,24.51585 59.6974875,24.512475 59.7664875,24.504975 C59.8336125,24.4971 59.8981125,24.484725 59.9986125,24.46485 C60.0492375,24.45285 60.0949875,24.4446 60.1583625,24.437475 C60.3214875,24.510975 60.4966125,24.559725 60.7171125,24.591225 C60.8922375,24.6111 61.0647375,24.645975 61.3036125,24.6951 L61.6561125,24.76635 C61.7588625,24.784725 61.8649875,24.80385 61.9381125,24.834975 C62.1574875,24.930225 62.3686125,24.964725 62.6554875,25.0116 C62.7034875,25.020225 62.7398625,25.0416 62.7807375,25.085475 L62.9817375,25.299225 C63.1898625,25.518225 63.4043625,25.744725 63.5611125,25.998975 L63.6893625,26.199975 C63.8487375,26.45385 64.0133625,26.716725 64.0853625,26.9931 C64.1498625,27.234225 64.2297375,27.4731 64.3066125,27.696975 C64.3609875,27.8541 64.4142375,28.01385 64.4618625,28.171725 C64.5038625,28.31535 64.5372375,28.458975 64.5818625,28.6521 C64.6223625,28.8126 64.6639875,28.975725 64.7119875,29.137725 C64.8728625,29.663475 65.0059875,30.2286 65.1091125,30.815475 C65.1871125,31.27635 65.2504875,31.775475 65.3018625,32.34135 C65.3374875,32.72535 65.3592375,33.12435 65.3764875,33.46635 C65.3836125,33.630975 65.3914875,33.795975 65.4038625,33.9501 L65.4327375,34.4421 C65.4529875,34.743225 65.4732375,35.0646 65.4822375,35.389725 C65.4923625,35.807475 65.4953625,36.219975 65.4957375,36.60435 L65.4991125,37.31085 C65.4991125,37.374975 65.4942375,37.4391 65.4852375,37.52085 C65.4769875,37.6326 65.4702375,37.75335 65.4799875,37.896225 M67.0332375,36.569475 C67.0298625,36.471225 67.0291125,35.78385 67.0291125,35.5311 L67.0294875,35.500725 C67.0336125,35.183475 67.0373625,34.870725 67.0332375,34.56135 C67.0332375,34.40535 67.0246125,34.25085 67.0122375,34.036725 L66.9938625,33.759975 C66.9938625,33.759975 66.9552375,32.973975 66.9379875,32.71485 C66.9379875,32.714475 66.9154875,32.477475 66.9132375,32.436975 C66.9053625,31.90335 66.8284875,31.339725 66.6721125,30.661725 C66.6169875,30.43035 66.5704875,30.19485 66.5247375,29.96535 C66.4857375,29.754975 66.4422375,29.544975 66.3961125,29.334975 C66.3162375,28.98285 66.2277375,28.638225 66.1321125,28.30635 C66.0773625,28.122975 65.7788625,27.207975 65.7691125,27.178725 L65.6284875,26.694975 C65.5823625,26.535225 65.5354875,26.3706 65.4784875,26.2101 C65.3506125,25.834725 65.1289875,25.52535 64.9036125,25.209975 L64.8053625,25.056975 C64.7438625,24.9621 64.6823625,24.870975 64.6039875,24.789975 C64.4033625,24.5811 64.2049875,24.39885 63.9919875,24.22785 C63.9301125,24.180225 63.8701125,24.12735 63.8116125,24.07485 C63.6608625,23.94135 63.4737375,23.775975 63.1816125,23.628975 C63.1261125,23.601225 63.0728625,23.57535 63.0394875,23.547225 C62.9011125,23.437725 62.7473625,23.366475 62.5696125,23.328975 C62.5564875,23.325975 62.5407375,23.32035 62.5077375,23.3046 C62.1372375,23.1471 61.7629875,23.105475 61.4779875,23.086725 C61.3114875,23.075475 61.1483625,23.075475 60.9807375,23.075475 C60.8509875,23.075475 60.7216125,23.0751 60.5896125,23.068725 C60.4107375,23.0601 60.2307375,23.04285 60.0503625,23.0256 L59.5148625,22.974975 C59.4147375,22.967475 59.3112375,22.96035 59.2272375,22.940475 C58.9576125,22.875225 58.4138625,22.8576 58.1352375,22.8576 C57.8254875,22.8576 57.6563625,22.875975 57.5682375,22.89135 L57.1546125,22.963725 L57.1392375,23.571975 C57.1294875,23.76735 57.1208625,23.977725 57.1208625,24.1896 C57.1208625,24.3921 57.1253625,24.597225 57.1294875,24.803475 L57.1549875,25.5441 L57.1583625,27.0621 C57.1583625,27.2646 57.1583625,27.466725 57.1493625,27.67185 C57.1441125,27.802725 57.1294875,27.9321 57.1133625,28.062225 L57.0788625,28.445475 C57.0717375,28.5801 57.0762375,28.71285 57.0818625,28.847475 L57.0897375,29.043975 L57.1032375,32.189475 L57.0953625,32.4306 L57.0979875,32.818725 C57.1017375,32.958225 57.1047375,33.09735 57.1009875,33.22635 L57.0672375,33.77235 C57.0526125,33.960975 57.0409875,34.1541 57.0334875,34.347225 C57.0259875,34.574475 57.0278625,34.800975 57.0301125,34.990725 L57.0263625,35.567475 C57.0214875,35.744475 57.0211125,35.918475 57.0263625,36.096975 C57.0334875,36.29385 57.0462375,36.4911 57.0601125,36.687225 C57.0724875,36.855225 57.0841125,37.023975 57.0923625,37.194975 C57.0979875,37.307475 57.0979875,37.4196 57.0972375,37.62885 L57.1017375,38.21385 C57.1028625,38.333475 57.1039875,38.45385 57.0998625,38.575725 C57.0998625,38.575725 57.0454875,40.276725 57.0353625,40.64385 C57.0331125,40.7706 57.0364875,40.89735 57.0432375,41.103225 L57.0511125,41.346975 L57.0792375,43.4526 C57.0848625,43.936725 57.0916125,44.48535 57.0833625,45.0111 L57.0728625,45.49635 C57.0627375,45.854475 57.0511125,46.2606 57.0709875,46.64535 C57.0807375,46.88835 57.0784875,47.13285 57.0739875,47.406975 L57.0717375,47.8536 C57.0717375,48.165975 57.0777375,48.48135 57.0856125,48.8016 L57.1028625,49.239975 L57.1283625,49.697475 C57.1369875,49.806225 57.1471125,49.947975 57.1471125,50.0826 C57.1471125,50.145225 57.1396125,50.209725 57.1332375,50.2686 C57.1178625,50.3871 57.1032375,50.513475 57.1114875,50.6406 C57.1223625,50.817225 57.1482375,50.9856 57.1752375,51.14835 L57.2464875,51.67035 L57.6484875,51.71535 C57.7047375,51.72135 57.7838625,51.7281 57.8592375,51.731475 C58.4907375,51.77985 58.6471125,51.82335 58.6846125,51.840225 L58.7206125,51.855225 L58.7592375,51.86085 C58.8852375,51.879975 59.1556125,51.89085 59.6386125,51.897225 L60.8172375,51.9021 C60.9676125,51.90735 61.1168625,51.90735 61.2694875,51.90735 L61.5076125,51.90735 L61.5121125,51.90735 C61.6909875,51.9021 61.8683625,51.8826 62.1342375,51.8526 C62.2433625,51.843225 62.3926125,51.830475 62.5452375,51.77235 C62.7199875,51.7041 62.9018625,51.62385 63.0788625,51.537975 L63.2596125,51.456225 L63.2738625,51.44835 C63.2963625,51.435225 63.3484875,51.4041 63.8086125,51.015225 C63.8086125,51.015225 64.3212375,50.547975 64.4847375,50.394225 C64.5061125,50.37285 64.8338625,49.991475 64.9204875,49.784475 L64.9347375,49.749975 L64.9403625,49.713225 C64.9497375,49.6461 65.0172375,49.5711 65.1361125,49.44435 L65.1886125,49.3881 L65.3146125,49.1541 C65.3682375,49.059225 65.4308625,48.945975 65.4867375,48.8256 C65.7871125,48.186975 66.0139875,47.481225 66.1782375,46.6746 C66.1917375,46.6161 66.2033625,46.554225 66.2123625,46.48335 L66.2172375,46.4586 C66.2247375,46.4121 66.2326125,46.365975 66.2517375,46.3086 C66.3852375,45.855975 66.4864875,45.384975 66.5704875,44.8236 L66.6076125,44.56935 C66.7572375,43.81635 66.8273625,43.035975 66.8761125,42.3726 C66.9158625,41.83485 66.9308625,41.30235 66.9484875,40.68585 L66.9698625,39.9621 C66.9908625,39.39735 67.0084875,38.827725 67.0208625,38.255475 C67.0294875,37.839225 67.0377375,37.424475 67.0388625,37.01085 C67.0396125,36.863475 67.0377375,36.7176 67.0332375,36.569475" id="Fill-5" fill="#FFFFFF"></path>
                <path d="M48.4233375,24.596925 C48.4979625,24.6033 48.5763375,24.6093 48.5999625,24.6123 C48.7608375,24.635925 48.9213375,24.6648 49.0960875,24.69705 L49.2592125,24.72555 C49.3469625,24.7428 49.4305875,24.758925 49.4988375,24.779925 C49.6237125,24.822675 49.7493375,24.8703 49.9072125,24.92955 L50.1963375,25.03905 C50.2330875,25.052925 50.2642125,25.0653 50.2930875,25.082925 C50.4052125,25.148175 50.5128375,25.212675 50.6024625,25.291425 C50.7085875,25.382925 50.8139625,25.4883 50.9669625,25.6428 L51.0550875,25.727925 C51.0599625,25.733175 51.0652125,25.738425 51.0667125,25.738425 C51.0674625,25.738425 51.0674625,25.736925 51.0655875,25.7328 C51.1540875,25.92705 51.2512125,26.111925 51.3449625,26.29005 C51.4897125,26.565675 51.6389625,26.850675 51.7450875,27.150675 C51.7829625,27.25305 51.8099625,27.3663 51.8512125,27.5373 L51.8980875,27.7353 C52.0150875,28.209675 52.0368375,28.7313 52.0597125,29.28405 C52.0679625,29.4843 52.0904625,29.6778 52.1118375,29.8533 L52.1452125,30.17055 C52.1527125,30.24555 52.1598375,30.335175 52.1538375,30.427425 L52.1200875,30.9348 C52.0983375,31.218675 52.0743375,31.54905 52.0672125,31.87455 C52.0582125,32.235675 52.0090875,32.62905 51.9067125,33.14955 C51.8384625,33.494925 51.7214625,33.851925 51.5602125,34.20405 C51.5155875,34.2963 51.3610875,34.588425 51.3119625,34.680675 L51.0010875,35.048925 C50.8657125,35.211675 50.7295875,35.375175 50.6043375,35.537925 C50.4412125,35.7468 50.1955875,35.85705 49.9308375,35.965425 L49.9293375,35.963925 L49.7643375,36.030675 C49.5880875,36.1023 49.4294625,36.167925 49.2727125,36.251925 C49.1009625,36.344175 48.8823375,36.36855 48.6678375,36.392175 C48.5812125,36.4023 48.4900875,36.414675 48.4064625,36.428175 C48.2572125,36.450675 48.1027125,36.4653 47.9478375,36.479925 L47.3527125,36.529425 C47.0838375,36.551175 46.8179625,36.5733 46.5490875,36.601425 C46.4932125,36.606675 46.4362125,36.612675 46.3807125,36.612675 C46.3248375,36.612675 46.2820875,36.6078 46.2427125,36.5958 C46.2149625,36.5883 46.1887125,36.58005 46.1639625,36.571425 C46.1500875,36.465675 46.1380875,36.36555 46.1380875,36.2688 C46.1380875,35.8248 46.1444625,35.3838 46.1504625,34.931925 L46.1572125,33.557175 L46.1197125,33.3468 L46.1219625,32.6658 C46.1234625,32.275425 46.1234625,31.8858 46.1163375,31.497675 C46.1095875,31.13805 46.0897125,30.779925 46.0720875,30.46755 L46.0469625,29.9013 C46.0435875,29.858925 46.0443375,29.818425 46.0454625,29.737425 L46.0458375,29.6943 C46.0458375,29.6943 46.0364625,27.345675 46.0379625,26.9103 C46.0379625,26.474925 46.0462125,26.045175 46.0582125,25.48755 L46.0799625,24.639675 L46.0934625,24.485925 L46.1733375,24.479175 C46.3263375,24.46755 46.4845875,24.455925 46.6383375,24.452925 L46.7534625,24.45405 C47.2462125,24.46005 47.7453375,24.50205 48.2459625,24.5808 C48.2729625,24.584175 48.3468375,24.590175 48.4233375,24.596925 M53.7363375,50.813925 L53.6834625,50.5908 C53.6302125,50.36355 53.5814625,50.163675 53.5334625,50.00955 C53.4295875,49.6728 53.3290875,49.326675 53.2259625,48.94155 C53.2038375,48.8703 53.1880875,48.795675 53.1723375,48.7233 L53.1183375,48.468675 L52.6900875,46.6743 L52.4313375,45.614925 C52.4005875,45.490425 52.1992125,44.76555 52.1992125,44.76555 L51.8208375,43.27605 C51.7750875,43.10055 51.7229625,42.92955 51.6712125,42.76605 C51.6712125,42.765675 51.5594625,42.39555 51.5317125,42.2913 L51.3963375,41.7363 C51.3547125,41.561925 51.3119625,41.381925 51.2639625,41.198925 C51.1559625,40.8168 50.6965875,39.2283 50.6965875,39.2268 C50.6279625,38.9943 50.5713375,38.75355 50.5199625,38.52705 C50.4850875,38.376675 50.4565875,38.224425 50.4258375,38.063175 L50.3500875,37.69905 C50.3433375,37.67355 50.3373375,37.64805 50.3320875,37.62405 C50.5019625,37.58655 50.6392125,37.507425 50.7595875,37.43805 C50.8015875,37.4133 50.8443375,37.390425 50.8747125,37.3743 C51.0918375,37.2708 51.2373375,37.115175 51.3925875,36.948675 L51.4814625,36.859425 C51.8530875,36.5103 52.1448375,36.162675 52.3732125,35.7978 C52.5929625,35.448675 52.7800875,35.065425 52.9458375,34.72605 L53.0347125,34.541175 C53.2308375,34.142925 53.3197125,33.710175 53.3913375,33.3633 L53.4307125,33.17955 C53.4790875,32.9433 53.5342125,32.675925 53.5218375,32.38755 C53.5158375,32.2413 53.5282125,32.0868 53.5420875,31.92555 L53.5803375,31.438425 C53.5945875,31.252425 53.6110875,31.04205 53.6073375,30.82755 C53.6009625,30.5268 53.5810875,30.224175 53.5619625,29.9313 L53.5259625,29.345925 L53.4910875,28.8978 L53.4738375,28.784925 C53.4850875,28.379925 53.3902125,28.001925 53.3069625,27.669675 L53.2762125,27.542175 C53.2477125,27.430425 53.2147125,27.31755 53.1693375,27.16605 C53.1329625,27.044175 53.0958375,26.9208 53.0677125,26.798925 C52.9687125,26.3688 52.7879625,25.9563 52.5265875,25.569675 L51.8935875,24.6663 C51.6322125,24.28455 51.2838375,23.987925 50.8357125,23.76255 L50.5702125,23.62005 C50.4468375,23.5548 50.3204625,23.487675 50.1862125,23.430675 L50.1854625,23.42505 L50.0399625,23.36355 C49.8374625,23.2773 49.6075875,23.18055 49.3608375,23.13255 C48.9865875,23.0568 48.6175875,23.0268 48.2365875,23.000925 C47.8079625,22.976175 47.3512125,22.96155 46.8007125,22.954425 L46.1452125,22.944675 C45.8452125,22.944675 45.5992125,22.96305 45.3768375,22.9998 L44.5417125,23.11755 L44.5240875,24.536175 L44.5090875,25.1928 C44.5049625,25.338675 44.5004625,25.4838 44.5042125,25.634175 L44.5293375,26.31855 C44.5375875,26.519925 44.5450875,26.720925 44.5473375,26.939175 L44.5574625,27.3948 C44.5645875,27.667425 44.5717125,27.948675 44.5465875,28.226175 C44.5357125,28.37505 44.5417125,28.5168 44.5522125,28.730175 L44.5567125,28.87155 L44.5555875,32.297175 L44.5488375,33.3213 C44.5480875,33.589425 44.5469625,33.85755 44.5525875,34.127925 C44.5653375,34.661925 44.5882125,35.201925 44.6129625,35.7558 L44.6557125,36.626925 L44.6587125,36.671175 C44.6658375,36.779175 44.6733375,36.88605 44.6752125,36.996675 L44.7052125,38.537925 C44.7160875,38.8113 44.7280875,39.12105 44.6988375,39.416175 C44.6800875,39.6003 44.6883375,39.783675 44.6977125,39.995925 L44.6988375,40.02255 C44.6988375,40.02255 44.7667125,41.034675 44.7749625,41.213925 C44.8079625,42.011175 44.8394625,42.80805 44.8638375,43.6053 C44.8724625,43.838175 44.8724625,44.073675 44.8724625,44.3118 L44.8784625,45.12705 L44.8814625,45.264675 C44.8863375,45.58755 44.8923375,45.90855 44.9047125,46.235175 C44.9099625,46.371675 44.9155875,46.51005 44.9260875,46.6623 C44.9433375,47.00655 44.9624625,47.39655 44.9298375,47.748675 C44.9122125,47.8998 44.9137125,48.0543 44.9167125,48.197175 L44.9298375,49.137675 C44.9298375,49.25505 44.9298375,49.387425 44.9482125,49.520925 C44.9868375,49.809675 44.9890875,50.0643 44.9553375,50.296425 C44.9208375,50.525175 44.9167125,50.75505 44.9437125,51.002925 C44.9568375,51.112425 44.9590875,51.226425 44.9613375,51.346425 L44.9617125,51.365175 L44.9853375,51.719175 L45.1060875,52.114425 L45.5534625,52.114425 C45.6989625,52.114425 45.8290875,52.096425 45.9419625,52.0608 L46.3387125,51.9828 L46.2918375,51.610425 L46.3315875,51.5133 L46.3417125,51.40305 C46.3514625,51.305175 46.3570875,51.212175 46.3570875,51.12105 C46.3604625,50.9193 46.3578375,50.705925 46.3488375,50.45355 L46.3270875,50.2053 C46.3214625,50.1288 46.3143375,50.05455 46.3124625,49.974675 C46.2948375,49.418925 46.2802125,48.773175 46.3267125,48.13755 C46.3379625,47.9538 46.3315875,47.7768 46.3218375,47.578425 C46.3169625,47.4888 46.3124625,47.396925 46.3124625,47.3013 C46.3072125,46.9953 46.3072125,46.6908 46.3072125,46.377675 L46.3053375,45.998925 C46.3053375,45.998925 46.2809625,43.963425 46.2670875,43.256925 C46.2524625,42.55155 46.2363375,41.84955 46.2138375,41.145675 L46.1812125,40.2498 C46.1632125,39.813675 46.1485875,39.38205 46.1388375,38.9448 C46.1309625,38.69355 46.1534625,38.432925 46.1853375,38.1588 C46.3769625,38.18055 46.5400875,38.1903 46.6964625,38.1903 C46.8434625,38.1903 46.9825875,38.18055 47.1663375,38.163675 C47.2867125,38.17905 47.4003375,38.180925 47.4974625,38.180925 C47.7408375,38.180925 47.9860875,38.158425 48.3262125,38.119425 C48.4390875,38.106675 48.5740875,38.08905 48.7488375,38.05305 C48.8084625,38.19405 48.8560875,38.32005 48.8920875,38.4333 C49.0904625,39.09405 49.2869625,39.755175 49.4815875,40.4178 L49.6713375,41.0853 L49.7287125,41.3418 C49.7725875,41.53905 49.8187125,41.741925 49.8689625,41.9328 C49.9079625,42.083925 49.9548375,42.229425 50.0077125,42.392925 L50.0962125,42.6813 C50.1880875,42.987675 50.2762125,43.2978 50.3605875,43.60605 C50.3797125,43.67655 50.3950875,43.74555 50.4104625,43.819425 L50.4190875,43.857675 C50.4427125,43.96305 50.4659625,44.06655 50.4952125,44.157675 C50.5428375,44.315925 50.5825875,44.478675 50.6185875,44.628675 C50.6872125,44.930925 50.7539625,45.20355 50.8687125,45.475425 L51.2283375,46.7928 L51.5005875,47.837175 L51.7293375,48.67755 C51.7484625,48.739425 51.7690875,48.801675 51.7975875,48.866925 L51.8020875,48.87705 L52.1808375,50.204175 C52.2337125,50.399175 52.2910875,50.672175 52.3375875,50.898675 C52.3942125,51.157425 52.4523375,51.425175 52.5085875,51.62955 L52.5322125,51.716925 L52.8595875,52.000425 L53.1337125,52.014675 L53.4352125,52.014675 L54.0449625,51.9288 L53.8750875,51.3588 C53.8278375,51.203175 53.7794625,50.99655 53.7363375,50.813925" id="Fill-7" fill="#FFFFFF"></path>
                <path d="M27.9825375,50.5851 C27.9825375,50.5851 27.8115375,50.588475 27.7335375,50.593725 L27.7215375,50.594475 L27.7207875,50.593725 L27.2437875,50.616975 C27.1582875,50.620725 27.0724125,50.624475 26.9250375,50.624475 C26.9029125,50.624475 26.7397875,50.6226 26.7360375,50.6226 C26.5897875,50.6226 26.4652875,50.636475 26.3685375,50.66235 C26.3385375,50.668725 26.2901625,50.67585 26.2601625,50.677725 C26.0767875,50.6601 25.8994125,50.6481 25.6890375,50.638725 L25.2379125,50.616975 C25.0459125,50.616975 24.8569125,50.6406 24.7309125,50.65935 L24.3829125,50.6886 C24.2940375,50.695725 24.2059125,50.6976 24.1174125,50.6976 C24.0484125,50.6976 23.8005375,50.685225 23.7851625,50.684475 C23.7480375,50.684475 23.7105375,50.679225 23.6557875,50.6721 L23.5504125,50.66235 C23.4679125,50.653725 23.3842875,50.6466 23.3002875,50.6466 C23.2050375,50.6466 23.1255375,50.65335 22.9957875,50.664975 L22.9886625,50.665725 L22.8041625,50.660475 C22.6635375,50.6586 22.5217875,50.65185 22.3391625,50.64285 L22.2971625,50.64135 L22.2844125,50.596725 C22.2154125,50.3556 22.2229125,50.15535 22.2322875,49.887975 C22.2352875,49.84335 22.2412875,49.6671 22.2480375,49.474725 C22.2544125,49.296225 22.2611625,49.1046 22.2656625,48.999975 C22.2821625,48.65535 22.2990375,48.2976 22.2844125,47.9391 C22.2645375,47.532225 22.2656625,47.107725 22.2667875,46.615725 L22.2667875,46.566975 L22.3121625,44.322975 C22.3144125,44.1831 22.3106625,44.043225 22.3065375,43.90485 L22.2585375,42.0771 C22.2521625,41.7966 22.2450375,41.478975 22.2529125,41.17035 L22.2615375,40.87935 C22.2731625,40.60485 22.2806625,40.3566 22.2547875,40.10685 C22.2037875,39.609225 22.2285375,39.082725 22.2529125,38.55735 L22.2581625,38.4111 C22.2735375,38.08635 22.2844125,37.7361 22.2900375,37.336725 L22.2900375,36.695475 C22.2900375,36.41985 22.2900375,36.1431 22.2949125,35.875725 C22.2982875,35.7846 22.3065375,35.693475 22.3166625,35.580975 L22.3189125,35.5521 C22.3320375,35.430225 22.3466625,35.292225 22.3500375,35.13585 C22.3500375,34.73235 22.3414125,34.297725 22.3222875,33.729225 C22.3174125,33.547725 22.3069125,33.366975 22.2967875,33.187725 L22.2840375,32.964975 C22.2581625,32.5416 22.2289125,32.0616 22.2506625,31.5981 C22.2604125,31.3956 22.2645375,31.187475 22.2667875,30.989475 L22.2761625,30.436725 L22.3155375,29.637225 C22.3267875,29.2536 22.3384125,28.808475 22.3384125,28.366725 C22.3365375,27.595725 22.3282875,26.826975 22.3200375,26.0586 L22.3192875,25.98735 C22.3192875,25.98735 22.2750375,23.9346 22.2656625,23.645475 L22.2446625,23.35785 L22.1486625,22.96635 L20.7517875,22.879725 L20.7529125,24.819975 L20.7206625,24.87135 L20.7199125,24.955725 C20.7199125,24.955725 20.7112875,26.169225 20.7124125,26.57085 L20.7345375,27.4431 C20.7345375,27.468975 20.7292875,27.546225 20.7244125,27.62835 C20.7172875,27.741225 20.7105375,27.86235 20.7105375,27.90735 L20.7240375,28.854225 C20.7296625,29.19885 20.7360375,29.5551 20.7307875,29.90235 C20.7270375,30.08685 20.7199125,30.273225 20.7097875,30.474975 C20.6962875,30.772725 20.6820375,31.080225 20.6917875,31.392225 C20.6970375,31.5366 20.6951625,31.6821 20.6929125,31.82535 L20.6846625,32.23335 L20.6827875,33.069225 L20.6745375,33.555975 C20.6704125,33.837975 20.6662875,34.117725 20.6685375,34.3956 L20.6696625,34.69185 C20.6696625,35.206725 20.6715375,35.670975 20.6936625,36.137475 C20.7247875,36.75585 20.7180375,37.377225 20.7105375,38.040975 C20.7037875,38.4636 20.6985375,38.877225 20.7060375,39.2976 C20.7124125,39.882975 20.7112875,40.469475 20.7105375,41.057475 L20.7037875,42.46185 C20.7019125,42.6171 20.7019125,42.768225 20.7071625,42.9231 C20.7071625,42.92385 20.7214125,43.199475 20.7206625,43.26135 L20.7150375,43.6521 C20.7150375,43.6521 20.7015375,44.298225 20.7015375,44.548725 C20.7015375,44.71635 20.7060375,44.88285 20.7105375,45.07185 C20.7154125,45.242475 20.7206625,45.411225 20.7195375,45.571725 C20.7165375,45.75135 20.7082875,45.9336 20.6985375,46.112475 C20.6910375,46.250475 20.6842875,46.39335 20.6824125,46.522725 C20.6734125,46.8276 20.6659125,47.135475 20.6722875,47.538225 C20.6775375,47.81535 20.6831625,48.1296 20.7154125,48.441225 L20.7285375,48.5511 C20.7559125,48.7881 20.7810375,49.0116 20.7341625,49.21035 L20.7292875,49.232475 L20.7169125,49.37985 L20.7247875,50.5116 C20.7266625,50.665725 20.7285375,50.79885 20.7131625,50.969475 C20.6876625,51.233475 20.7120375,51.469725 20.7562875,51.741975 C20.8121625,52.095975 21.0360375,52.29135 21.3866625,52.29135 L21.4177875,52.29135 L21.4204125,52.29135 C21.5209125,52.289475 21.6277875,52.281975 21.7414125,52.269225 L21.9562875,52.2576 C22.3706625,52.230225 22.7715375,52.21785 23.2170375,52.21785 L24.1387875,52.222725 C24.4717875,52.222725 24.7204125,52.217475 24.9424125,52.2036 L25.4940375,52.1766 C25.4940375,52.1766 26.0449125,52.158225 26.1435375,52.158225 C26.3280375,52.158225 26.5057875,52.16385 26.6884125,52.170975 C26.6884125,52.170975 27.1196625,52.185225 27.2662875,52.185225 C27.4399125,52.185225 27.6101625,52.17885 27.8171625,52.164225 L27.9765375,52.1691 C28.1212875,52.1691 28.2390375,52.1436 28.3492875,52.087725 L28.6256625,51.94335 L28.6256625,51.762975 C28.6256625,51.7626 28.6252875,51.351975 28.6271625,51.22635 L28.8150375,50.588475 L28.1194125,50.58885 L27.9825375,50.5851 Z" id="Fill-9" fill="#FFFFFF"></path>
                <path d="M9.5465625,49.3637625 C9.5480625,49.2340125 9.5551875,49.1042625 9.5634375,48.9576375 L9.5915625,48.4165125 L9.6226875,47.2213875 C9.6305625,46.8883875 9.6373125,46.5576375 9.6384375,46.2280125 C9.6395625,46.0386375 9.6373125,45.8496375 9.6328125,45.6632625 L9.6324375,45.6411375 C9.6286875,45.4558875 9.6245625,45.2698875 9.6279375,45.0782625 C9.6279375,44.8870125 9.6328125,44.6995125 9.6384375,44.5093875 L9.6770625,42.8402625 C9.6856875,42.4967625 9.6943125,42.1521375 9.6961875,41.8086375 C9.6984375,41.5240125 9.6931875,41.2401375 9.6868125,40.9600125 L9.6815625,40.5902625 C9.6763125,40.2917625 9.6628125,39.9932625 9.6474375,39.6550125 C9.6223125,39.1183875 9.5964375,38.5630125 9.6324375,38.0338875 L9.6601875,37.7586375 C9.6706875,37.6723875 9.6804375,37.5865125 9.6845625,37.4995125 C9.6909375,37.3528875 9.6898125,37.2040125 9.6815625,37.0386375 C9.7498125,37.0206375 9.8195625,37.0116375 9.8896875,37.0116375 L9.9283125,37.0116375 L9.9481875,37.0127625 C10.1536875,37.0273875 10.3614375,37.0352625 10.5695625,37.0427625 L11.7376875,37.0843875 L12.0046875,37.0806375 L12.3290625,37.0873875 L12.4618125,37.0768875 L12.5266875,37.0570125 C12.5761875,37.0416375 12.6256875,37.0345125 12.6879375,37.0345125 C12.7246875,37.0345125 12.7618125,37.0367625 12.8641875,37.0423875 L12.9106875,37.0438875 C12.9860625,37.0438875 13.0561875,37.0390125 13.1364375,37.0315125 L13.2819375,37.0236375 C13.3078125,37.0236375 13.3194375,37.0277625 13.3209375,37.0277625 L13.3209375,37.0277625 C13.5601875,37.2415125 13.8309375,37.3341375 14.0765625,37.4181375 L14.1853125,37.4541375 C14.2190625,37.4653875 14.2419375,37.4736375 14.2569375,37.4796375 L14.3068125,37.6150125 L14.4811875,37.7061375 C14.5295625,37.7312625 14.5674375,37.7998875 14.6289375,37.9161375 C14.6645625,37.9866375 14.7076875,38.0702625 14.7676875,38.1613875 C14.9161875,38.3740125 15.0328125,38.6293875 15.1865625,38.9657625 L15.1963125,38.9871375 C15.2608125,39.1228875 15.3271875,39.2642625 15.4385625,39.4641375 L15.4501875,39.4843875 L15.4648125,39.5035125 C15.7835625,39.9070125 15.8469375,40.4252625 15.9088125,40.9311375 L16.0021875,41.6365125 C16.0516875,42.0287625 16.1026875,42.4348875 16.1390625,42.8342625 C16.2058125,43.5662625 16.2530625,44.3503875 16.1458125,45.1172625 C16.1188125,45.2938875 16.1038125,45.4716375 16.0910625,45.6268875 L16.0809375,45.7442625 C16.0670625,45.9658875 16.0498125,46.1425125 16.0269375,46.3007625 C16.0014375,46.4762625 15.9448125,46.6588875 15.8664375,46.9112625 L15.8536875,46.9510125 C15.8375625,47.0016375 15.8143125,47.0507625 15.7820625,47.1216375 L15.7749375,47.1381375 C15.7434375,47.1962625 15.7134375,47.2562625 15.6568125,47.3935125 L15.4374375,47.9342625 C15.2476875,48.3808875 15.0178125,48.8942625 14.6998125,49.3315125 C14.4650625,49.6465125 14.1950625,49.9153875 13.9798125,50.1208875 C13.9303125,50.1707625 13.8373125,50.2213875 13.7578125,50.2641375 C13.5118125,50.3912625 13.2669375,50.5052625 12.9815625,50.5052625 C12.8169375,50.5052625 12.6639375,50.5266375 12.4966875,50.5521375 L12.2593125,50.5881375 C12.0643125,50.6046375 11.8663125,50.6188875 11.6810625,50.6263875 L10.5646875,50.6515125 L10.3910625,50.6792625 C10.3749375,50.6826375 10.3666875,50.6841375 10.3381875,50.6841375 L10.2770625,50.6826375 L10.1289375,50.7047625 L10.0970625,50.7115125 L10.0385625,50.6785125 L9.8469375,50.7212625 C9.7753125,50.7370125 9.6504375,50.7535125 9.5353125,50.7613875 C9.5330625,50.2502625 9.5371875,49.7931375 9.5465625,49.3637625 M9.7104375,24.5425125 C9.7029375,24.4652625 9.7220625,24.3628875 9.7445625,24.2537625 C9.8315625,24.2485125 9.9110625,24.2451375 9.9886875,24.2451375 C10.1465625,24.2451375 10.2834375,24.2582625 10.4113125,24.2860125 C10.4923125,24.3025125 10.5658125,24.3096375 10.6430625,24.3096375 C10.7360625,24.3096375 10.8226875,24.3010125 10.9749375,24.2852625 C11.1196875,24.2863875 11.5644375,24.3040125 11.6446875,24.3118875 C11.9623125,24.3377625 12.3789375,24.3838875 12.7846875,24.5200125 L13.0505625,24.6062625 C13.1923125,24.6505125 13.3336875,24.6951375 13.4806875,24.7502625 C13.6138125,24.7997625 13.7514375,24.8507625 13.8403125,24.9133875 C14.0461875,25.0592625 14.2640625,25.1271375 14.4763125,25.1676375 L14.4800625,25.1755125 L14.5340625,25.2475125 C14.5880625,25.3180125 14.6278125,25.3701375 14.6694375,25.4815125 L14.6938125,25.6090125 C14.7140625,25.7140125 14.7376875,25.8253875 14.7834375,25.9453875 C14.9728125,26.4103875 15.1209375,26.8832625 15.2240625,27.3527625 C15.2446875,27.4446375 15.2480625,27.5470125 15.2514375,27.6647625 C15.2536875,27.7506375 15.2570625,27.8342625 15.2645625,27.8991375 C15.2709375,27.9913875 15.2994375,28.3112625 15.3290625,28.6431375 C15.3594375,28.9851375 15.3909375,29.3395125 15.4003125,29.4647625 C15.4126875,29.6372625 15.4115625,29.8157625 15.4096875,29.9998875 L15.4160625,30.1558875 C15.3133125,30.4352625 15.2949375,30.7146375 15.2754375,31.0090125 L15.2743125,31.0307625 C15.2660625,31.1638875 15.2581875,31.2895125 15.2304375,31.4185125 C15.2045625,31.5452625 15.1921875,31.6671375 15.1749375,31.8501375 L15.1539375,32.0683875 C15.1419375,32.1490125 15.1269375,32.2480125 15.0988125,32.3428875 C15.0065625,32.6567625 14.9068125,32.9897625 14.7999375,33.3006375 C14.7781875,33.3610125 14.7421875,33.4243875 14.7125625,33.4772625 C14.6833125,33.5241375 14.6578125,33.5653875 14.5876875,33.6917625 C14.5460625,33.7603875 14.4890625,33.8541375 14.4549375,33.9587625 C14.4241875,34.0438875 14.3349375,34.1233875 14.2295625,34.2163875 L14.1624375,34.2778875 C14.1624375,34.2778875 13.9835625,34.4188875 13.9520625,34.4481375 C13.4484375,34.8992625 12.8285625,35.0938875 12.2870625,35.2255125 C11.9983125,35.2978875 11.6818125,35.3248875 11.3720625,35.3518875 C11.3720625,35.3518875 10.9824375,35.3863875 10.7559375,35.4107625 C10.6475625,35.4178875 10.5001875,35.4268875 10.3700625,35.4932625 C10.3059375,35.4801375 10.2301875,35.4658875 10.1326875,35.4613875 C9.9320625,35.4561375 9.8139375,35.3301375 9.8090625,35.1167625 L9.7543125,32.3218875 C9.7501875,32.2247625 9.7464375,32.1261375 9.7475625,32.0301375 L9.7633125,30.9658875 C9.7689375,30.6040125 9.7738125,30.2421375 9.7738125,29.8791375 C9.7738125,29.3241375 9.7595625,28.8208875 9.7299375,28.3408875 C9.6946875,27.7615125 9.6946875,27.1491375 9.7303125,26.4130125 C9.7411875,26.1677625 9.7261875,25.9198875 9.7134375,25.7050125 L9.6954375,25.3397625 C9.6939375,25.3090125 9.6916875,25.2760125 9.6935625,25.2512625 C9.7130625,25.0618875 9.7325625,24.8110125 9.7104375,24.5425125 M17.6094375,43.1785125 C17.5914375,42.9343875 17.5708125,42.6576375 17.5655625,42.3872625 C17.5453125,41.8577625 17.4736875,41.3473875 17.3990625,40.8733875 C17.3296875,40.4391375 17.2171875,40.0045125 17.1054375,39.5965125 C16.9970625,39.1963875 16.8620625,38.6983875 16.6351875,38.2251375 C16.3745625,37.6877625 16.0355625,37.0720125 15.4906875,36.5755125 C15.2971875,36.4026375 15.1153125,36.2841375 14.9105625,36.2001375 C14.8479375,36.1768875 14.7856875,36.1607625 14.7166875,36.1453875 C14.6968125,36.1405125 14.6776875,36.1371375 14.6608125,36.1307625 L14.1823125,35.9425125 C14.2985625,35.8622625 14.4088125,35.7745125 14.5250625,35.6691375 C14.5558125,35.6406375 14.5884375,35.6143875 14.6360625,35.5761375 C14.6885625,35.5333875 14.7418125,35.4891375 14.7864375,35.4463875 L14.9679375,35.2821375 C15.1250625,35.1403875 15.2773125,35.0005125 15.4108125,34.8456375 C15.7576875,34.4443875 16.0018125,33.9598875 16.1559375,33.3655125 C16.1863125,33.2488875 16.2624375,32.9410125 16.3381875,32.6350125 C16.4098125,32.3451375 16.4814375,32.0575125 16.5114375,31.9397625 C16.6966875,31.2430125 16.7165625,30.5518875 16.7128125,30.0276375 L16.7008125,28.7413875 L16.6996875,28.6866375 C16.6955625,28.5092625 16.6918125,28.3318875 16.6828125,28.1680125 C16.6771875,27.9872625 16.6599375,27.8027625 16.6314375,27.6212625 L16.5988125,27.4052625 C16.5654375,27.1686375 16.5234375,26.8750125 16.4529375,26.5982625 C16.3850625,26.3421375 16.2913125,26.0837625 16.2121875,25.8696375 L16.0809375,25.4811375 L16.0434375,25.3408875 L15.8578125,24.9186375 C15.6965625,24.5237625 15.4734375,24.2275125 15.1771875,24.0148875 L14.7748125,23.7212625 C14.6900625,23.6556375 14.5850625,23.5738875 14.4598125,23.5138875 C14.2715625,23.4212625 14.0776875,23.3383875 13.8088125,23.2232625 L13.6246875,23.1463875 C13.5043125,23.0920125 13.3741875,23.0368875 13.2350625,23.0113875 L12.9174375,22.9375125 C12.7333125,22.8951375 12.5428125,22.8516375 12.3493125,22.8355125 L11.9656875,22.7920125 C11.7099375,22.7627625 11.4455625,22.7327625 11.1684375,22.7327625 L10.9726875,22.7368875 C10.8853125,22.7368875 10.7964375,22.7323875 10.6685625,22.7260125 L9.7190625,22.7072625 L9.5806875,22.7282625 C9.4666875,22.7462625 9.3586875,22.7627625 9.2521875,22.7627625 C9.2026875,22.7627625 9.1513125,22.7567625 9.0549375,22.7428875 L9.0339375,22.7398875 L9.0129375,22.7398875 C8.9203125,22.7398875 8.8471875,22.7620125 8.7905625,22.7792625 L8.4241875,22.8895125 L8.4241875,23.2300125 L8.4155625,23.3020125 C8.4024375,23.4152625 8.3915625,23.5240125 8.3870625,23.6338875 L8.3158125,25.4875125 C8.3146875,25.5006375 8.3128125,25.5250125 8.3120625,25.9007625 C8.3120625,26.0740125 8.3120625,26.2517625 8.3053125,26.4193875 L8.2715625,26.9762625 C8.2554375,27.2320125 8.2396875,27.4896375 8.2310625,27.7532625 C8.2239375,28.1380125 8.1943125,31.2808875 8.1931875,31.4185125 L8.1958125,32.1951375 C8.1976875,32.4756375 8.1999375,32.7538875 8.1950625,33.0385125 L8.1935625,33.3358875 C8.1946875,33.5800125 8.1961875,33.8567625 8.1433125,34.1188875 C8.1305625,34.1935125 8.1294375,34.2677625 8.1313125,34.3892625 C8.1313125,34.3896375 8.1478125,35.0162625 8.1478125,35.1823875 C8.1511875,35.7891375 8.1530625,36.3917625 8.1489375,36.9913875 C8.1489375,36.9913875 8.1223125,38.1913875 8.1204375,38.4325125 L8.1170625,39.6261375 C8.1174375,39.9276375 8.1181875,40.2306375 8.1118125,40.5396375 C8.1106875,40.7995125 8.1035625,41.0560125 8.0968125,41.3143875 L8.0956875,41.3608875 C8.0956875,41.3608875 8.0694375,42.3028875 8.0638125,42.6246375 L8.0469375,44.3931375 C8.0469375,44.5225125 8.0450625,44.6575125 8.0375625,44.8078875 L8.0120625,46.5313875 C8.0120625,46.5737625 8.0094375,46.6187625 8.0023125,46.7320125 L7.9985625,47.8341375 L7.9884375,48.1723875 C7.9816875,48.3126375 7.9749375,48.4975125 7.9786875,48.6805125 L7.9914375,49.2467625 C8.0023125,49.7458875 8.0139375,50.2618875 7.9681875,50.7692625 L7.9610625,50.9218875 L7.9764375,51.8020125 L8.1871875,52.1935125 L8.6424375,52.2598875 C8.6885625,52.2670125 8.7343125,52.2741375 8.7808125,52.2797625 L8.8089375,52.2838875 L8.8089375,52.2831375 C8.8741875,52.2910125 8.9394375,52.2951375 9.0065625,52.2951375 L9.0151875,52.2951375 L9.1505625,52.2868875 C9.2124375,52.2793875 9.2761875,52.2771375 9.3999375,52.2715125 L10.3299375,52.2310125 C10.4270625,52.2253875 10.5271875,52.2186375 10.6543125,52.2186375 C10.7716875,52.2208875 10.8890625,52.2276375 11.0645625,52.2366375 L11.1665625,52.2426375 C11.3083125,52.2497625 11.4526875,52.2572625 11.6525625,52.2572625 C11.9405625,52.2572625 12.2285625,52.2478875 12.4929375,52.2396375 L12.7738125,52.2295125 C13.1135625,52.2160125 13.4221875,52.0945125 13.7360625,51.9707625 C13.9895625,51.8706375 14.2306875,51.7416375 14.5194375,51.5833875 C14.9803125,51.3325125 15.5491875,50.9601375 15.9039375,50.2900125 C16.1480625,50.0931375 16.3048125,49.8430125 16.4278125,49.6206375 C16.6314375,49.2497625 16.8016875,48.9062625 16.9666875,48.5353875 C17.1125625,48.2027625 17.2783125,47.8258875 17.3416875,47.4006375 C17.3514375,47.3278875 17.3724375,47.2562625 17.4005625,47.1640125 L17.4313125,47.0545125 C17.6090625,46.4477625 17.6934375,45.9017625 17.6893125,45.3865125 C17.6893125,44.9046375 17.6773125,44.4190125 17.6518125,43.8591375 C17.6454375,43.7065125 17.6094375,43.1803875 17.6094375,43.1785125" id="Fill-11" fill="#FFFFFF"></path>
            </g>
        </g>
    </g>
</svg>