<?xml version="1.0" encoding="utf-8"?>
<!-- Generator: Adobe Illustrator 16.0.0, SVG Export Plug-In . SVG Version: 6.00 Build 0)  -->
<!DOCTYPE svg PUBLIC "-//W3C//DTD SVG 1.1//EN" "http://www.w3.org/Graphics/SVG/1.1/DTD/svg11.dtd">
<svg version="1.1" id="Calque_1" xmlns="http://www.w3.org/2000/svg" xmlns:xlink="http://www.w3.org/1999/xlink" x="0px" y="0px"
	 width="300px" height="200px" viewBox="0 0 300 200" enable-background="new 0 0 300 200" xml:space="preserve">
<path fill="#333333" d="M169.191,127.025c-0.105-1.416-0.18-2.645-0.224-3.744c-0.081-2.592-0.446-5.107-0.788-7.217
	c-0.347-2.219-0.906-4.34-1.451-6.332l-0.039-0.135c-0.539-1.916-1.15-4.09-2.133-6.148c-1.226-2.545-2.832-5.468-5.451-7.847
	c-0.92-0.834-1.787-1.4-2.76-1.794c-0.295-0.111-0.595-0.188-0.88-0.254c-0.127-0.031-0.251-0.06-0.325-0.086
	c-0.744-0.283-1.486-0.571-2.285-0.887c0.562-0.385,1.099-0.812,1.67-1.322c0.107-0.104,0.228-0.199,0.342-0.292l0.081-0.066
	c0.272-0.216,0.534-0.433,0.933-0.805l0.704-0.634c0.688-0.622,1.467-1.328,2.128-2.102c1.662-1.906,2.827-4.213,3.564-7.065
	L163.339,76c0.202-0.825,0.404-1.653,0.625-2.479c0.879-3.296,0.974-6.594,0.956-9.09c0-1.705-0.01-3.417-0.029-5.142
	c0,0-0.052-2.788-0.094-3.794c-0.062-1.054-0.145-1.842-0.26-2.523l-0.195-1.352c-0.156-1.104-0.335-2.356-0.658-3.525
	c-0.305-1.157-0.701-2.288-1.164-3.578c-0.207-0.525-0.373-0.99-0.608-1.784l-0.179-0.65l-0.877-2
	c-0.773-1.881-1.844-3.291-3.25-4.298l-1.918-1.414c-0.441-0.34-0.924-0.694-1.494-0.966c-1.139-0.56-2.316-1.06-3.299-1.467
	l-0.911-0.392c-0.481-0.198-1.025-0.422-1.655-0.544c-0.378-0.075-0.738-0.162-1.483-0.341c-0.877-0.202-1.783-0.41-2.691-0.485
	l-1.895-0.217c-1.25-0.144-2.475-0.272-3.733-0.272c-0.001,0-0.934,0.019-0.934,0.019c-0.426,0-2.273-0.084-2.319-0.085l-3.492-0.05
	l-0.021-0.025l-0.149,0.022l-1.561-0.022l0.038,0.242c-0.232,0.025-0.461,0.042-0.686,0.042c-0.228,0-0.465-0.028-0.945-0.095
	l-0.098-0.014h-0.099c-0.542,0-0.921,0.133-1.187,0.315l-1.455,0.626l-0.202,1.722c-0.062,0.539-0.114,1.065-0.136,1.592
	l-0.351,9.028v1.766c0,0.821,0,1.662-0.04,2.496c-0.039,0.879-0.094,1.752-0.167,2.847l-0.021,0.338
	c-0.064,1.033-0.128,2.068-0.162,3.12c-0.052,1.856-0.057,3.732-0.062,5.543l-0.12,11.928l0.014,4.333
	c0.005,1.122,0.008,2.243-0.014,3.389v1.399c0.014,1.388,0.006,2.54-0.238,3.739c-0.065,0.393-0.07,0.798-0.057,1.285l0.05,1.841
	c0.018,0.644,0.038,2.907,0.038,2.911c0.011,2.557,0.017,5.1-0.002,7.638l-0.137,6.858l-0.025,9.989c0,0-0.219,8.437-0.244,9.959
	c-0.025,1.671-0.071,8.39-0.071,8.39l-0.191,10.789c-0.03,0.358-0.032,0.694-0.031,0.989c-0.022,0.706-0.022,1.413-0.001,2.056
	c0,0.855,0,1.73-0.021,2.651c0,0.522-0.019,1.039-0.044,1.572c-0.026,0.788-0.051,1.584-0.046,2.392l0.05,2.44
	c0.058,2.328,0.123,4.967-0.077,7.353c-0.038,0.293-0.059,0.599-0.059,0.937l0.076,4.137l0.998,1.851l2.953,0.451l0.002-0.014
	c0.313,0.036,0.628,0.061,0.949,0.061h0.043l0.637-0.041c0.302-0.035,0.604-0.047,1.185-0.072l3.24-0.123l1.191-0.071
	c0.463-0.026,0.944-0.058,1.518-0.06l1.987,0.074c0.771,0.053,1.644,0.11,2.798,0.11c1.369,0,2.741-0.044,4-0.085l1.344-0.049
	c1.636-0.069,3.082-0.641,4.479-1.192l0.091-0.036c1.173-0.457,2.284-1.056,3.715-1.844c2.202-1.186,4.925-2.951,6.62-6.158
	c1.152-0.927,1.871-2.076,2.467-3.176c0.979-1.754,1.798-3.395,2.578-5.16c0.703-1.594,1.501-3.398,1.775-5.423
	c0.041-0.28,0.133-0.584,0.229-0.905l0.217-0.742c0.843-2.881,1.242-5.48,1.226-7.94c0-2.235-0.058-4.55-0.182-7.28
	C169.34,129.165,169.273,128.098,169.191,127.025z M131.581,38.302c-0.031-0.338,0.041-0.771,0.136-1.239l0.014-0.004l0.026-0.133
	c0.375-0.022,0.767-0.04,1.151-0.04c0.75,0,1.399,0.062,2.006,0.194c0.379,0.077,0.742,0.114,1.109,0.114
	c0.437,0,0.874-0.044,1.578-0.117c0.688,0.006,2.802,0.089,3.184,0.128c1.513,0.121,3.497,0.342,5.438,0.994l1.683,0.538
	c0.531,0.17,1.075,0.346,1.623,0.55c0.559,0.205,1.254,0.459,1.723,0.787c0.98,0.691,2.021,1.012,3.032,1.205l0.011,0.023
	l0.244,0.328c0.258,0.344,0.46,0.625,0.637,0.994l0.135,0.74c0.097,0.512,0.209,1.057,0.428,1.603
	c0.894,2.234,1.603,4.488,2.099,6.652c0.088,0.452,0.104,0.944,0.124,1.529c0.01,0.387,0.023,0.772,0.059,1.182l0.252,2.639
	c0.149,1.594,0.285,3.177,0.396,4.77c0.046,0.632,0.046,1.284,0.046,2.272l0.001,0.271l0.029,0.749
	c-0.488,1.334-0.574,2.641-0.658,3.923c-0.043,0.795-0.084,1.452-0.19,2.013c-0.142,0.598-0.203,1.181-0.287,1.988l-0.021,0.211
	c-0.018,0.32-0.041,0.629-0.107,1.081c-0.055,0.372-0.115,0.794-0.225,1.165l-0.25,0.814c-0.398,1.325-0.775,2.577-1.191,3.782
	c-0.094,0.261-0.268,0.558-0.529,1.007l-0.457,0.809c-0.227,0.361-0.48,0.802-0.661,1.321c-0.133,0.379-0.534,0.742-1.033,1.193
	l-0.446,0.392c-0.158,0.139-0.834,0.661-0.836,0.663l-0.08,0.068c-2.38,2.146-5.332,3.072-7.912,3.697
	c-1.41,0.35-2.944,0.48-4.892,0.646c-0.667,0.06-1.331,0.121-2.411,0.238c-0.515,0.033-1.212,0.076-1.83,0.389
	c-0.312-0.061-0.678-0.125-1.136-0.149c-0.944-0.024-1.522-0.641-1.546-1.644c-0.043-1.978-0.25-13.243-0.252-13.306
	c-0.018-0.464-0.037-0.926-0.033-1.383l0.057-3.845c0.03-2.133,0.06-4.266,0.06-6.396c0-2.56-0.065-4.952-0.2-7.322
	c-0.167-2.762-0.167-5.675,0.001-9.165c0.058-1.144-0.015-2.339-0.078-3.385l-0.089-1.606l-0.004-0.624
	C131.597,40.716,131.685,39.552,131.581,38.302z M130.802,156.521c0.025-0.875,0.208-4.521,0.208-4.537
	c0.062-1.508,0.097-3.061,0.127-4.577l0.038-1.667c0.032-1.404,0.064-2.812,0.064-4.195c0.002-0.477-0.017-1.755-0.035-2.98
	c-0.016-1.049-0.031-2.06-0.031-2.465c0.013-1.021,0.257-11.195,0.258-11.229c0.038-1.453,0.075-2.913,0.077-4.358
	c0.015-1.15-0.002-2.312-0.026-3.854l-0.04-1.951c-0.024-1.445-0.089-2.892-0.159-4.429c-0.116-2.426-0.247-5.176-0.074-7.744
	l0.123-1.24c0.052-0.424,0.1-0.849,0.126-1.306c0.031-0.733,0.026-1.441-0.014-2.192c0.328-0.087,0.648-0.128,0.994-0.128h0.182
	l0.094,0.007c0.986,0.067,1.971,0.105,2.962,0.141l5.539,0.198l1.897-0.003l0.042,0.085l1.154-0.087l0.572-0.001l0.001-0.089
	l0.124-0.038c0.221-0.071,0.455-0.104,0.757-0.104c0.163,0,0.325,0.01,0.767,0.032l0.304,0.013c0.343,0,0.67-0.024,1.064-0.059
	c0.211-0.016,0.45-0.034,0.692-0.039c0.121,0,0.181,0.021,0.193,0.029c1.183,1.042,2.538,1.495,4.099,2.016
	c0.066,0.023,0.229,0.079,0.35,0.128l0.242,0.653l0.834,0.432c0.196,0.103,0.368,0.396,0.758,1.117
	c0.168,0.332,0.347,0.668,0.598,1.049c0.708,1.011,1.271,2.244,1.932,3.689l0.094,0.199c0.315,0.665,0.642,1.354,1.156,2.295
	l0.059,0.104l0.072,0.094c1.504,1.902,1.838,4.496,2.131,6.789l0.287,2.187c0.287,2.213,0.584,4.567,0.801,6.879
	c0.32,3.515,0.546,7.267,0.031,10.888c-0.127,0.855-0.203,1.707-0.314,3.025c-0.066,0.939-0.133,1.785-0.244,2.582
	c-0.125,0.834-0.385,1.672-0.777,2.941l-0.051,0.164c-0.087,0.264-0.23,0.562-0.402,0.902l-0.321,0.71
	c-0.239,0.525-0.456,1.073-0.657,1.597l-0.607,1.486c-0.889,2.104-1.966,4.525-3.511,6.645c-1.056,1.422-2.241,2.629-3.354,3.711
	c-0.266,0.251-0.682,0.482-1.108,0.724c-1.231,0.63-2.36,1.151-3.72,1.151c-0.779,0-1.51,0.102-2.311,0.224l-1.126,0.17
	c-0.929,0.08-1.878,0.146-2.753,0.185l-5.321,0.117l-0.573,0.088l-0.852,0.065l-0.762,0.125l-0.262-0.164l-0.965,0.22
	c-0.341,0.076-0.934,0.154-1.483,0.191C130.739,160.634,130.757,158.52,130.802,156.521z"/>
<path fill="#333333" d="M291.023,95.561c-0.016-0.466-0.02-3.739-0.02-4.943l0.002-0.143c0.02-1.512,0.038-3.001,0.018-4.473
	c0-0.743-0.041-1.479-0.101-2.499l-0.087-1.318c0,0-0.184-3.741-0.266-4.976c0-0.002-0.107-1.129-0.117-1.321
	c-0.039-2.542-0.404-5.226-1.148-8.452c-0.262-1.103-0.482-2.223-0.701-3.317c-0.187-1-0.393-2-0.613-3.001
	c-0.379-1.675-0.801-3.318-1.256-4.897c-0.262-0.874-1.684-5.229-1.729-5.369l-0.669-2.303c-0.218-0.759-0.441-1.544-0.713-2.308
	c-0.609-1.788-1.663-3.261-2.737-4.761l-0.469-0.73c-0.291-0.45-0.584-0.886-0.959-1.271c-0.955-0.993-1.899-1.861-2.913-2.676
	c-0.295-0.226-0.58-0.478-0.859-0.729c-0.717-0.634-1.606-1.422-2.998-2.122c-0.267-0.131-0.519-0.256-0.678-0.388
	c-0.658-0.521-1.391-0.862-2.236-1.039c-0.062-0.014-0.139-0.042-0.295-0.117c-1.764-0.75-3.547-0.949-4.901-1.038
	c-0.795-0.054-1.569-0.054-2.37-0.054c-0.617,0-1.234-0.001-1.861-0.031c-0.85-0.042-1.709-0.124-2.566-0.205l-2.551-0.242
	c-0.477-0.035-0.969-0.07-1.369-0.163c-1.282-0.311-3.871-0.394-5.197-0.394c-1.477,0-2.282,0.087-2.699,0.16l-1.972,0.344
	l-0.073,2.895c-0.045,0.931-0.087,1.932-0.087,2.942c0,0.965,0.021,1.94,0.043,2.922l0.119,3.526l0.016,7.228
	c0,0.964,0,1.924-0.042,2.903c-0.023,0.623-0.093,1.238-0.17,1.858l-0.166,1.824c-0.033,0.643-0.013,1.273,0.016,1.915l0.037,0.934
	l0.063,14.977l-0.038,1.148l0.016,1.847c0.016,0.664,0.031,1.327,0.012,1.941l-0.158,2.599c-0.071,0.898-0.128,1.818-0.163,2.738
	c-0.035,1.081-0.026,2.161-0.017,3.063l-0.018,2.746c-0.021,0.842-0.023,1.671,0.001,2.521c0.033,0.937,0.095,1.877,0.16,2.812
	c0.06,0.798,0.114,1.602,0.153,2.415c0.029,0.536,0.029,1.071,0.025,2.066l0.021,2.785c0.005,0.57,0.011,1.144-0.009,1.723
	c0,0-0.26,8.099-0.308,9.847c-0.013,0.604,0.005,1.207,0.037,2.187l0.039,1.162l0.132,10.025c0.027,2.305,0.059,4.916,0.02,7.418
	l-0.049,2.311c-0.049,1.705-0.104,3.639-0.01,5.472c0.047,1.155,0.034,2.319,0.016,3.626l-0.012,2.125
	c0,1.488,0.029,2.988,0.065,4.514l0.083,2.088l0.122,2.178c0.041,0.518,0.088,1.192,0.088,1.834c0,0.299-0.036,0.605-0.065,0.886
	c-0.074,0.563-0.144,1.165-0.104,1.771c0.052,0.842,0.176,1.643,0.304,2.418l0.34,2.486l1.914,0.213
	c0.266,0.028,0.645,0.061,1.002,0.075c3.008,0.233,3.752,0.438,3.932,0.519l0.171,0.072l0.183,0.027
	c0.602,0.091,1.889,0.144,4.188,0.172l5.613,0.023c0.713,0.026,1.426,0.026,2.152,0.026h1.133h0.021
	c0.854-0.026,1.697-0.119,2.962-0.263c0.519-0.043,1.229-0.104,1.957-0.381c0.831-0.324,1.698-0.707,2.54-1.116l0.861-0.39
	l0.066-0.037c0.107-0.063,0.357-0.211,2.547-2.061c0,0,2.441-2.226,3.219-2.957c0.103-0.104,1.664-1.918,2.074-2.904l0.068-0.164
	l0.025-0.176c0.047-0.318,0.367-0.676,0.934-1.279l0.248-0.268l0.602-1.113c0.256-0.453,0.553-0.992,0.819-1.566
	c1.431-3.038,2.511-6.4,3.293-10.238c0.065-0.279,0.118-0.574,0.163-0.91l0.021-0.119c0.038-0.222,0.073-0.44,0.164-0.715
	c0.637-2.154,1.118-4.397,1.52-7.07l0.175-1.209c0.713-3.586,1.047-7.301,1.278-10.461c0.19-2.56,0.263-5.094,0.346-8.027
	l0.102-3.448c0.102-2.688,0.184-5.399,0.242-8.125c0.041-1.981,0.081-3.956,0.087-5.926
	C291.055,96.962,291.045,96.268,291.023,95.561z M283.629,101.879l-0.91,0.775l0.817,1.66c0.032,0.14-0.004,0.707-0.028,1.115
	l-0.01,0.619c0,0.002-0.025,2.453-0.055,3.229l-0.358,7.555c-0.051,1.253-0.11,2.505-0.194,3.786
	c-0.082,1.416-0.195,2.83-0.309,4.215l-0.34,3.235c-0.186,1.921-0.62,3.859-1.079,5.908l-0.288,1.267
	c-0.174,0.774-0.294,1.546-0.458,2.634l-0.043,0.288c-0.073,0.485-0.146,0.969-0.243,1.465c-0.186,1.002-0.798,3.99-0.884,4.41
	l-0.275,0.979c-0.423,0.696-0.729,1.457-0.944,2.358c-0.039,0.197-0.156,0.461-0.315,0.813c-0.003,0.008-0.281,0.615-0.409,0.931
	c-0.152,0.323-0.32,0.698-0.393,1.05c-0.438,1.625-1.406,3.105-2.436,4.672l-0.143,0.131c-0.587,0.532-0.707,0.649-1.008,1.189
	l-0.059,0.105l-0.039,0.114c-0.066,0.188-0.232,0.447-0.615,1.011l-0.363,0.588l-0.057,0.099c-0.059,0.114-0.156,0.308-0.924,0.71
	l-0.574,0.283c-0.602,0.287-1.271,0.607-1.93,1.092c-0.609,0.094-1.244,0.251-2.15,0.484c-0.891,0.26-1.598,0.442-2.596,0.442
	c-0.572,0-1.144,0.029-1.957,0.081l-0.125,0.008c-0.508,0.032-1,0.065-1.504,0.065c-1.826,0-3.673-0.067-5.229-0.129l-4.152-0.255
	c-0.049-1-0.093-2.006-0.121-3.012c-0.037-1.078-0.037-2.168-0.037-3.248v-5.763c0,0,0.11-13.442,0.11-14.961
	c0-0.433-0.048-0.833-0.11-1.343c-0.039-0.253-0.066-0.5-0.076-0.719l-0.041-1.783c-0.047-1.672-0.101-3.565,0.039-5.385
	c0.092-1.278,0.111-2.553,0.133-3.867l0.035-2.42l0.131-4.69c0.011-0.237,0.005-0.466-0.041-1.175
	c-0.012-0.193-0.022-0.359-0.004-0.484c0.25-1.9,0.121-3.75-0.017-5.707l-0.013-0.184c-0.053-0.71-0.104-1.428-0.122-2.139
	l-0.116-6.231c0-0.524-0.025-1.062-0.053-1.581c-0.033-0.604-0.059-1.193-0.059-1.798c-0.004-0.957,0-1.909,0.017-2.923
	l-0.035-16.845c0.011-2.452,0.029-4.908,0.065-7.372c0.008-0.887,0.039-1.78,0.08-2.748c0.012-0.819,0.035-1.637,0.065-2.477
	c0.009-0.326-0.001-0.646-0.024-1.307l-0.01-0.283c-0.013-0.351-0.016-0.702-0.007-1.05c0,0,0.222-7.613,0.257-9.173
	c0.021-0.593,0.024-3.979,0.024-4.364c0-0.236,0.036-0.521,0.099-1.032l0.062-0.547c0.186-1.709,0.314-3.565,0.018-5.512
	c0,0-0.09-0.751-0.092-0.766c0.059-0.002,0.5-0.005,0.5-0.005c0.954,0,1.921,0.053,2.855,0.155c0.312,0.039,0.619,0.05,0.904,0.05
	c0.316,0,0.631-0.018,0.959-0.052c0.32-0.039,0.627-0.096,1.104-0.192c0.241-0.055,0.458-0.096,0.761-0.129
	c0.777,0.35,1.611,0.581,2.659,0.731c0.833,0.095,1.655,0.262,2.794,0.495l1.677,0.339c0.49,0.088,0.996,0.179,1.343,0.328
	c1.045,0.452,2.051,0.616,3.416,0.839c0.229,0.042,0.402,0.144,0.596,0.352l0.957,1.019c0.99,1.042,2.014,2.12,2.759,3.332
	l0.61,0.956c0.76,1.209,1.543,2.459,1.887,3.776c0.306,1.149,0.687,2.285,1.053,3.351c0.257,0.747,0.514,1.51,0.738,2.261
	c0.201,0.683,0.361,1.367,0.572,2.286c0.191,0.766,0.392,1.541,0.619,2.312c0.766,2.504,1.401,5.193,1.891,7.988
	c0.371,2.194,0.673,4.57,0.918,7.265c0.17,1.828,0.271,3.728,0.354,5.356c0.035,0.784,0.071,1.571,0.132,2.302l0.137,2.343
	c0.096,1.434,0.193,2.964,0.236,4.514c0.049,1.986,0.061,3.951,0.063,5.781l0.016,3.364c0,0.305-0.022,0.611-0.065,1
	C283.614,100.624,283.582,101.198,283.629,101.879z"/>
<path fill="#333333" d="M227.717,163.381l-0.251-1.062c-0.253-1.082-0.485-2.035-0.714-2.769c-0.496-1.603-0.973-3.25-1.466-5.084
	c-0.104-0.338-0.179-0.694-0.254-1.039l-0.257-1.213l-2.039-8.542l-1.231-5.045c-0.146-0.593-1.104-4.043-1.104-4.043s0,0,0,0.001
	l-1.803-7.093c-0.219-0.836-0.467-1.65-0.712-2.428c0-0.002-0.532-1.765-0.663-2.262l-0.646-2.642c-0.197-0.83-0.4-1.687-0.63-2.558
	c-0.514-1.819-2.7-9.383-2.701-9.39c-0.326-1.108-0.598-2.254-0.842-3.331c-0.166-0.717-0.303-1.441-0.447-2.209l-0.361-1.732
	c-0.031-0.123-0.061-0.244-0.086-0.357c0.809-0.181,1.463-0.557,2.037-0.887c0.198-0.119,0.402-0.227,0.546-0.303
	c1.035-0.493,1.728-1.235,2.466-2.028l0.424-0.423c1.77-1.664,3.158-3.318,4.246-5.055c1.045-1.662,1.937-3.487,2.725-5.103
	l0.425-0.88c0.935-1.895,1.356-3.957,1.696-5.608l0.188-0.874c0.231-1.125,0.494-2.399,0.434-3.77
	c-0.026-0.698,0.031-1.434,0.099-2.201l0.181-2.319c0.068-0.885,0.146-1.888,0.129-2.908c-0.03-1.431-0.125-2.873-0.217-4.268
	l-0.17-2.786l-0.166-2.135l-0.083-0.537c0.054-1.928-0.397-3.727-0.793-5.308l-0.147-0.609c-0.135-0.531-0.293-1.069-0.508-1.791
	c-0.174-0.579-0.352-1.165-0.486-1.746c-0.471-2.05-1.332-4.012-2.574-5.853l-3.016-4.302c-1.243-1.816-2.902-3.229-5.036-4.3
	l-1.265-0.681c-0.584-0.31-1.188-0.63-1.826-0.902l-0.004-0.025l-0.693-0.294c-0.965-0.409-2.057-0.872-3.232-1.1
	c-1.783-0.361-3.541-0.501-5.353-0.625c-2.041-0.119-4.216-0.189-6.837-0.223l-3.121-0.045c-1.428,0-2.6,0.085-3.658,0.262
	l-3.975,0.56l-0.086,6.755l-0.069,3.125c-0.021,0.694-0.042,1.386-0.024,2.102l0.12,3.258c0.038,0.96,0.075,1.917,0.085,2.956
	l0.049,2.169c0.033,1.297,0.067,2.638-0.051,3.958c-0.053,0.708-0.023,1.384,0.025,2.4l0.021,0.673l-0.007,16.308l-0.03,4.876
	c-0.004,1.278-0.009,2.555,0.017,3.84c0.062,2.543,0.171,5.114,0.288,7.75l0.203,4.148l0.016,0.211
	c0.034,0.515,0.068,1.023,0.078,1.55l0.143,7.337c0.053,1.303,0.109,2.778-0.029,4.182c-0.09,0.877-0.051,1.75-0.006,2.762
	l0.006,0.125c0,0,0.322,4.818,0.361,5.671c0.158,3.798,0.309,7.591,0.424,11.388c0.041,1.106,0.041,2.229,0.041,3.363l0.028,3.881
	l0.013,0.656c0.025,1.535,0.053,3.064,0.111,4.62c0.025,0.649,0.053,1.308,0.102,2.033c0.082,1.638,0.174,3.495,0.018,5.173
	c-0.083,0.718-0.075,1.453-0.061,2.134l0.062,4.479c0,0.558,0,1.188,0.088,1.824c0.185,1.375,0.194,2.586,0.034,3.691
	c-0.165,1.088-0.184,2.184-0.057,3.363c0.062,0.522,0.074,1.063,0.084,1.636l0.002,0.09l0.113,1.685l0.576,1.883h2.128
	c0.693,0,1.313-0.086,1.849-0.256l1.891-0.37l-0.223-1.773l0.188-0.462l0.05-0.525c0.045-0.467,0.072-0.91,0.072-1.343
	c0.016-0.961,0.003-1.977-0.04-3.178l-0.103-1.183c-0.029-0.364-0.062-0.719-0.069-1.098c-0.084-2.646-0.155-5.721,0.067-8.746
	c0.055-0.875,0.021-1.72-0.024-2.662c-0.022-0.428-0.043-0.865-0.043-1.32c-0.024-1.455-0.024-2.907-0.024-4.396l-0.011-1.804
	c0,0-0.116-9.692-0.183-13.056c-0.069-3.358-0.146-6.7-0.252-10.051l-0.157-4.266c-0.085-2.075-0.154-4.132-0.201-6.213
	c-0.037-1.196,0.07-2.436,0.222-3.742c0.912,0.104,1.688,0.15,2.433,0.15c0.7,0,1.362-0.047,2.239-0.127
	c0.571,0.072,1.113,0.082,1.576,0.082c1.158,0,2.324-0.106,3.945-0.293c0.537-0.061,1.18-0.146,2.012-0.315
	c0.285,0.67,0.51,1.271,0.682,1.812c0.945,3.145,1.879,6.291,2.808,9.447l0.903,3.178l0.273,1.221
	c0.207,0.939,0.426,1.904,0.668,2.812c0.184,0.721,0.406,1.412,0.659,2.191l0.421,1.373c0.438,1.459,0.859,2.936,1.26,4.404
	c0.09,0.334,0.162,0.664,0.236,1.015l0.041,0.183c0.112,0.5,0.225,0.993,0.363,1.428c0.227,0.754,0.415,1.527,0.586,2.242
	c0.328,1.438,0.646,2.738,1.193,4.031l1.711,6.273l1.296,4.971l1.091,4.001c0.089,0.296,0.188,0.592,0.322,0.901l0.021,0.049
	l1.803,6.318c0.254,0.928,0.527,2.229,0.748,3.307c0.27,1.232,0.547,2.508,0.813,3.48l0.114,0.416l1.559,1.35l1.303,0.068h1.437
	l2.903-0.41l-0.809-2.713C228.154,165.234,227.923,164.25,227.717,163.381z M202.424,38.561c0.355,0.029,0.727,0.059,0.84,0.074
	c0.766,0.111,1.529,0.249,2.362,0.401l0.774,0.137c0.42,0.082,0.817,0.158,1.143,0.26c0.594,0.202,1.193,0.428,1.943,0.711
	l1.377,0.521c0.175,0.067,0.324,0.125,0.461,0.21c0.533,0.309,1.048,0.616,1.473,0.991c0.505,0.436,1.008,0.938,1.737,1.675
	l0.418,0.404c0.024,0.026,0.048,0.051,0.055,0.051c0.005,0,0.004-0.008-0.005-0.027c0.422,0.925,0.885,1.804,1.331,2.652
	c0.688,1.312,1.399,2.67,1.905,4.097c0.179,0.489,0.309,1.027,0.505,1.842l0.222,0.942c0.559,2.259,0.661,4.743,0.771,7.374
	c0.039,0.953,0.146,1.874,0.248,2.71l0.158,1.511c0.035,0.358,0.069,0.783,0.041,1.222l-0.16,2.417
	c-0.104,1.351-0.219,2.923-0.252,4.474c-0.043,1.719-0.278,3.591-0.765,6.07c-0.323,1.643-0.883,3.343-1.649,5.021
	c-0.213,0.438-0.947,1.829-1.181,2.268l-1.481,1.754c-0.646,0.774-1.293,1.553-1.889,2.327c-0.777,0.995-1.947,1.52-3.207,2.036
	l-0.008-0.006l-0.783,0.317c-0.84,0.341-1.597,0.654-2.343,1.053c-0.817,0.439-1.858,0.555-2.878,0.668
	c-0.414,0.049-0.848,0.106-1.245,0.171c-0.711,0.108-1.448,0.178-2.183,0.248l-2.836,0.235c-1.278,0.103-2.545,0.207-3.825,0.341
	c-0.267,0.026-0.536,0.054-0.802,0.054s-0.469-0.023-0.657-0.079c-0.132-0.037-0.257-0.076-0.376-0.117
	c-0.064-0.502-0.122-0.98-0.122-1.441c0-2.112,0.03-4.213,0.062-6.366l0.03-6.544l-0.177-1.001l0.009-3.244
	c0.007-1.858,0.007-3.713-0.028-5.56c-0.031-1.712-0.125-3.416-0.207-4.904l-0.121-2.697c-0.017-0.2-0.012-0.394-0.008-0.78
	l0.002-0.206c0,0-0.045-11.181-0.039-13.254c0-2.073,0.041-4.118,0.099-6.773l0.103-4.037l0.064-0.731L191.71,38
	c0.729-0.054,1.483-0.11,2.215-0.125l0.548,0.006c2.346,0.027,4.723,0.228,7.107,0.603C201.706,38.5,202.059,38.53,202.424,38.561z"
	/>
<path fill="#333333" d="M105.104,162.29c0,0-0.813,0.017-1.185,0.042l-0.058,0.004l-0.003-0.004l-2.27,0.109
	c-0.408,0.019-0.817,0.037-1.518,0.037c-0.106,0-0.882-0.01-0.9-0.01c-0.696,0-1.289,0.066-1.749,0.189
	c-0.144,0.029-0.373,0.064-0.516,0.074c-0.873-0.084-1.718-0.142-2.72-0.188l-2.148-0.104c-0.913,0-1.814,0.113-2.414,0.203
	l-1.656,0.14c-0.424,0.032-0.843,0.041-1.265,0.041c-0.328,0-1.508-0.06-1.581-0.062c-0.178,0-0.356-0.025-0.616-0.059l-0.502-0.047
	c-0.393-0.042-0.79-0.074-1.191-0.074c-0.453,0-0.831,0.031-1.449,0.087l-0.035,0.003l-0.877-0.023
	c-0.67-0.01-1.344-0.043-2.214-0.084l-0.201-0.008l-0.06-0.213c-0.33-1.148-0.294-2.102-0.249-3.375
	c0.014-0.21,0.044-1.052,0.076-1.966c0.03-0.851,0.062-1.764,0.084-2.26c0.078-1.644,0.158-3.345,0.088-5.052
	c-0.093-1.937-0.089-3.959-0.084-6.301v-0.232l0.217-10.684c0.011-0.666-0.008-1.332-0.027-1.992l-0.228-8.701
	c-0.031-1.334-0.065-2.848-0.028-4.316l0.042-1.385c0.055-1.309,0.091-2.489-0.033-3.68c-0.242-2.367-0.125-4.875-0.008-7.377
	l0.024-0.694c0.075-1.547,0.125-3.214,0.153-5.117v-3.053c0-1.312,0-2.628,0.024-3.901c0.014-0.434,0.054-0.869,0.102-1.404
	l0.012-0.138c0.061-0.58,0.13-1.238,0.147-1.982c0-1.922-0.041-3.99-0.132-6.697c-0.023-0.863-0.073-1.724-0.122-2.576l-0.061-1.062
	c-0.123-2.016-0.262-4.3-0.158-6.508c0.046-0.964,0.066-1.954,0.077-2.898l0.044-2.632l0.188-3.807
	c0.053-1.824,0.109-3.945,0.109-6.048c-0.009-3.669-0.048-7.331-0.087-10.989l-0.004-0.339c0,0-0.212-9.773-0.256-11.149
	l-0.099-1.371l-0.458-1.863l-6.651-0.412l0.006,9.237l-0.154,0.245l-0.003,0.402c0,0-0.04,5.777-0.035,7.69l0.105,4.152
	c-0.001,0.125-0.025,0.492-0.049,0.883c-0.033,0.537-0.066,1.114-0.065,1.328l0.064,4.507c0.027,1.641,0.056,3.338,0.031,4.991
	c-0.016,0.877-0.05,1.765-0.098,2.727c-0.065,1.416-0.133,2.881-0.088,4.366c0.027,0.688,0.017,1.38,0.007,2.061l-0.04,1.945
	l-0.009,3.978l-0.04,2.318c-0.019,1.341-0.038,2.673-0.028,3.997l0.006,1.41c0,2.452,0.009,4.662,0.115,6.882
	c0.148,2.945,0.115,5.904,0.08,9.064c-0.032,2.012-0.057,3.982-0.022,5.982c0.03,2.787,0.026,5.58,0.021,8.379l-0.031,6.687
	c-0.01,0.739-0.01,1.459,0.016,2.196c0,0.004,0.067,1.315,0.064,1.608l-0.027,1.86c0,0-0.064,3.078-0.064,4.271
	c0,0.798,0.02,1.591,0.043,2.49c0.023,0.812,0.047,1.616,0.042,2.38c-0.015,0.855-0.054,1.723-0.099,2.575
	c-0.036,0.657-0.068,1.337-0.077,1.952c-0.043,1.453-0.079,2.918-0.048,4.835c0.024,1.319,0.051,2.815,0.204,4.3l0.064,0.523
	c0.128,1.127,0.25,2.191,0.026,3.138l-0.024,0.104l-0.059,0.703l0.039,5.387c0.009,0.734,0.017,1.369-0.057,2.182
	c-0.121,1.257-0.004,2.382,0.207,3.677c0.265,1.687,1.331,2.615,3,2.615h0.148h0.014c0.478-0.009,0.987-0.044,1.528-0.104
	l1.023-0.056c1.971-0.13,3.88-0.19,6.001-0.19l4.39,0.025c1.584,0,2.769-0.027,3.825-0.091l2.626-0.13
	c0.001,0,2.623-0.086,3.092-0.086c0.88,0,1.726,0.025,2.595,0.061c0,0,2.053,0.066,2.752,0.066c0.826,0,1.637-0.03,2.622-0.1
	l0.758,0.022c0.69,0,1.25-0.12,1.775-0.388l1.316-0.687v-0.858c0-0.002-0.001-1.957,0.007-2.555l0.894-3.037l-3.311,0.002
	L105.104,162.29z"/>
<path fill="#333333" d="M55.718,127.027c-0.086-1.161-0.184-2.479-0.209-3.767c-0.097-2.521-0.438-4.95-0.792-7.206
	c-0.331-2.068-0.866-4.138-1.398-6.08c-0.517-1.906-1.16-4.277-2.239-6.529c-1.24-2.56-2.855-5.492-5.449-7.854
	c-0.921-0.825-1.787-1.389-2.762-1.787c-0.299-0.112-0.595-0.189-0.924-0.263c-0.093-0.021-0.185-0.038-0.266-0.069l-2.278-0.896
	c0.555-0.381,1.079-0.801,1.633-1.3c0.145-0.137,0.302-0.263,0.527-0.443c0.251-0.205,0.505-0.415,0.716-0.619l0.865-0.782
	c0.748-0.674,1.473-1.34,2.108-2.078c1.653-1.911,2.814-4.217,3.547-7.047c0.145-0.555,0.508-2.021,0.869-3.479
	c0.341-1.379,0.681-2.75,0.825-3.309c0.882-3.318,0.976-6.607,0.958-9.105l-0.057-6.122l-0.006-0.261
	c-0.018-0.845-0.037-1.688-0.08-2.47c-0.026-0.86-0.108-1.739-0.245-2.604l-0.154-1.027c-0.16-1.125-0.358-2.524-0.696-3.841
	c-0.322-1.219-0.768-2.451-1.145-3.47l-0.624-1.849l-0.18-0.668l-0.884-2.01c-0.766-1.881-1.829-3.291-3.24-4.303l-1.916-1.398
	c-0.402-0.312-0.903-0.702-1.5-0.986c-0.895-0.441-1.819-0.838-3.098-1.386l-0.876-0.366c-0.574-0.258-1.195-0.521-1.856-0.643
	l-1.513-0.35c-0.877-0.202-1.783-0.41-2.704-0.486l-1.827-0.207c-1.217-0.139-2.475-0.282-3.795-0.282
	c-0.001,0-0.933,0.019-0.933,0.019c-0.416,0-0.838-0.021-1.447-0.052l-4.521-0.088l-0.658,0.099
	c-0.544,0.085-1.059,0.165-1.564,0.165c-0.237,0-0.482-0.029-0.94-0.095l-0.1-0.015h-0.1c-0.442,0-0.788,0.106-1.059,0.189
	l-1.743,0.524v1.62l-0.041,0.344c-0.063,0.539-0.115,1.056-0.137,1.58l-0.339,8.826c-0.005,0.062-0.014,0.177-0.017,1.965
	c0,0.826,0,1.673-0.032,2.472l-0.162,2.65c-0.077,1.219-0.151,2.444-0.192,3.699c-0.035,1.832-0.175,16.795-0.181,17.45l0.013,3.698
	c0.009,1.336,0.019,2.66-0.003,4.014l-0.009,1.417c0.006,1.163,0.014,2.481-0.238,3.728c-0.061,0.355-0.067,0.708-0.058,1.288
	c0,0.001,0.08,2.985,0.08,3.774c0.016,2.889,0.025,5.76,0.005,8.613c0,0-0.127,5.714-0.136,6.862l-0.016,5.685
	c0.003,1.435,0.006,2.877-0.024,4.348c-0.007,1.237-0.04,2.459-0.072,3.688l-0.006,0.223c0,0-0.125,4.484-0.151,6.016l-0.081,8.42
	c0,0.615-0.009,1.26-0.045,1.974l-0.121,8.208c0,0.199-0.013,0.414-0.046,0.955l-0.018,5.246l-0.048,1.61
	c-0.032,0.669-0.065,1.548-0.047,2.419l0.061,2.697c0.052,2.375,0.106,4.831-0.112,7.247l-0.033,0.728l0.074,4.19l1.002,1.862
	l2.169,0.316c0.22,0.034,0.438,0.067,0.657,0.096l0.135,0.02v-0.004c0.31,0.036,0.621,0.059,0.94,0.059h0.043l0.644-0.041
	c0.294-0.035,0.598-0.047,1.188-0.072l4.427-0.193c0.461-0.027,0.939-0.059,1.544-0.059c0.559,0.01,1.117,0.041,1.953,0.086
	l0.486,0.027c0.674,0.035,1.361,0.07,2.314,0.07c1.37,0,2.742-0.044,4.001-0.085l1.338-0.049c1.616-0.062,3.085-0.642,4.58-1.229
	c1.206-0.478,2.355-1.093,3.73-1.846c2.193-1.193,4.902-2.967,6.591-6.157c1.162-0.937,1.91-2.128,2.494-3.188
	c0.969-1.764,1.781-3.398,2.566-5.166c0.695-1.582,1.483-3.377,1.785-5.402c0.047-0.346,0.146-0.688,0.28-1.127l0.147-0.521
	c0.846-2.888,1.248-5.488,1.229-7.94c0-2.293-0.058-4.604-0.18-7.271C55.889,129.541,55.719,127.036,55.718,127.027z M18.11,38.302
	c-0.034-0.368,0.056-0.855,0.164-1.375c0.414-0.025,0.792-0.041,1.162-0.041c0.752,0,1.404,0.062,2.012,0.194
	c0.385,0.078,0.735,0.114,1.104,0.114c0.442,0,0.854-0.042,1.579-0.117c0.689,0.006,2.807,0.089,3.189,0.128
	c1.512,0.121,3.495,0.342,5.427,0.99l1.266,0.411c0.675,0.21,1.348,0.423,2.048,0.686c0.634,0.235,1.29,0.477,1.713,0.775
	c0.979,0.695,2.016,1.018,3.028,1.21l0.017,0.038l0.258,0.344c0.256,0.335,0.446,0.583,0.644,1.114l0.116,0.607
	c0.097,0.499,0.208,1.03,0.427,1.601c0.901,2.213,1.606,4.464,2.098,6.7c0.098,0.437,0.113,0.926,0.13,1.485
	c0.01,0.409,0.026,0.808,0.062,1.115c0.031,0.44,0.166,1.964,0.307,3.544c0.145,1.628,0.295,3.315,0.339,3.911
	c0.059,0.82,0.054,1.671,0.045,2.549l0.031,0.742c-0.489,1.331-0.577,2.659-0.669,4.061l-0.006,0.104
	c-0.039,0.634-0.076,1.231-0.21,1.845c-0.123,0.606-0.182,1.184-0.264,2.056l-0.1,1.04c-0.057,0.382-0.127,0.856-0.262,1.306
	c-0.44,1.495-0.913,3.08-1.423,4.561c-0.104,0.287-0.275,0.588-0.416,0.84c-0.14,0.223-0.261,0.42-0.595,1.021
	c-0.197,0.326-0.468,0.773-0.631,1.271c-0.146,0.406-0.572,0.784-1.073,1.228l-0.32,0.292c0,0-0.853,0.671-1.003,0.809
	c-2.396,2.149-5.347,3.076-7.926,3.702c-1.375,0.345-2.882,0.475-4.357,0.602c0,0-1.855,0.164-2.933,0.281
	c-0.516,0.033-1.216,0.076-1.837,0.391c-0.305-0.062-0.666-0.128-1.129-0.151c-0.956-0.025-1.518-0.625-1.542-1.64l-0.26-13.307
	c-0.019-0.462-0.038-0.932-0.033-1.388l0.076-5.067c0.026-1.724,0.05-3.447,0.05-5.175c0-2.643-0.068-5.038-0.209-7.323
	c-0.168-2.759-0.168-5.674,0.001-9.179c0.052-1.168-0.018-2.346-0.079-3.371l-0.086-1.739c-0.008-0.147-0.019-0.303-0.01-0.421
	C18.124,40.775,18.217,39.58,18.11,38.302z M17.331,156.477c0.007-0.617,0.042-1.237,0.08-1.934l0.134-2.578l0.149-5.689
	c0.036-1.584,0.068-3.16,0.074-4.729c0.005-0.901-0.006-1.801-0.027-2.688l-0.002-0.104c-0.018-0.882-0.037-1.769-0.021-2.68
	c0-0.91,0.023-1.804,0.05-2.709l0.184-7.948c0.041-1.635,0.082-3.275,0.091-4.911c0.011-1.354-0.014-2.705-0.045-4.04l-0.025-1.761
	c-0.025-1.42-0.089-2.841-0.162-4.451c-0.12-2.556-0.243-5.198-0.072-7.718l0.133-1.312c0.05-0.41,0.096-0.819,0.115-1.232
	c0.031-0.699,0.026-1.407-0.014-2.195c0.326-0.085,0.657-0.128,0.991-0.128h0.185l0.093,0.007c0.979,0.067,1.968,0.105,2.958,0.141
	l5.563,0.198l1.271-0.018l1.544,0.033l0.633-0.05l0.308-0.095c0.235-0.074,0.472-0.107,0.768-0.107c0.175,0,0.352,0.011,0.839,0.036
	l0.222,0.009c0.359,0,0.693-0.024,1.074-0.059l0.693-0.039c0.123,0,0.179,0.021,0.186,0.021c0.001,0,0.001,0,0-0.001
	c1.139,1.018,2.428,1.459,3.596,1.859l0.518,0.173c0.161,0.052,0.27,0.091,0.342,0.12l0.237,0.645l0.831,0.435
	c0.23,0.12,0.411,0.446,0.703,0.998c0.17,0.338,0.375,0.734,0.661,1.168c0.706,1.014,1.262,2.229,1.994,3.832l0.047,0.1
	c0.306,0.648,0.622,1.32,1.153,2.271l0.055,0.099l0.07,0.09c1.517,1.921,1.819,4.389,2.114,6.796l0.444,3.358
	c0.235,1.869,0.478,3.803,0.651,5.703c0.319,3.485,0.544,7.219,0.033,10.869c-0.129,0.842-0.2,1.688-0.261,2.428l-0.048,0.558
	c-0.066,1.057-0.148,1.897-0.258,2.649c-0.12,0.836-0.39,1.705-0.764,2.907l-0.059,0.19c-0.078,0.24-0.188,0.474-0.341,0.812
	l-0.035,0.077c-0.149,0.276-0.292,0.562-0.562,1.216l-1.044,2.575c-0.905,2.126-1.999,4.569-3.513,6.651
	c-1.118,1.5-2.402,2.779-3.427,3.758c-0.236,0.238-0.679,0.479-1.057,0.684c-1.172,0.604-2.338,1.146-3.697,1.146
	c-0.783,0-1.512,0.102-2.308,0.224l-1.129,0.17c-0.928,0.08-1.873,0.146-2.753,0.185l-5.316,0.117l-0.827,0.133
	c-0.075,0.017-0.116,0.025-0.251,0.025l-0.292-0.01l-0.705,0.107l-0.151,0.031l-0.278-0.158l-0.913,0.205
	c-0.341,0.074-0.935,0.153-1.484,0.19C17.267,160.697,17.286,158.52,17.331,156.477z"/>
</svg>
