<?xml version="1.0" encoding="utf-8"?>
<!-- Generator: Adobe Illustrator 16.0.0, SVG Export Plug-In . SVG Version: 6.00 Build 0)  -->
<!DOCTYPE svg PUBLIC "-//W3C//DTD SVG 1.1//EN" "http://www.w3.org/Graphics/SVG/1.1/DTD/svg11.dtd">
<svg version="1.1" id="Calque_1" xmlns="http://www.w3.org/2000/svg" xmlns:xlink="http://www.w3.org/1999/xlink" x="0px" y="0px"
	 width="300px" height="200px" viewBox="0 0 300 200" enable-background="new 0 0 300 200" xml:space="preserve">
<path fill="#FF6D5E" d="M169.192,127.026c-0.106-1.416-0.181-2.645-0.224-3.745c-0.082-2.592-0.446-5.107-0.789-7.216
	c-0.346-2.219-0.905-4.34-1.451-6.333l-0.038-0.135c-0.54-1.916-1.151-4.089-2.133-6.148c-1.226-2.545-2.833-5.468-5.452-7.847
	c-0.92-0.834-1.787-1.4-2.759-1.794c-0.295-0.111-0.595-0.188-0.88-0.254c-0.127-0.031-0.251-0.06-0.326-0.086
	c-0.743-0.283-1.486-0.571-2.284-0.887c0.562-0.385,1.098-0.812,1.67-1.322c0.107-0.104,0.227-0.199,0.341-0.292l0.081-0.066
	c0.272-0.216,0.534-0.433,0.933-0.805l0.704-0.634c0.688-0.622,1.467-1.328,2.128-2.102c1.662-1.906,2.827-4.213,3.564-7.065
	l1.062-4.295c0.202-0.825,0.404-1.653,0.625-2.479c0.879-3.296,0.973-6.594,0.956-9.09c0-1.705-0.01-3.417-0.029-5.142
	c0,0-0.052-2.788-0.094-3.794c-0.063-1.054-0.145-1.842-0.26-2.523l-0.195-1.352c-0.157-1.104-0.335-2.356-0.658-3.525
	c-0.305-1.157-0.701-2.288-1.165-3.578c-0.206-0.525-0.373-0.99-0.608-1.784l-0.178-0.65l-0.877-2
	c-0.774-1.881-1.844-3.291-3.251-4.298l-1.917-1.414c-0.442-0.34-0.924-0.694-1.494-0.966c-1.14-0.56-2.317-1.06-3.3-1.467
	l-0.91-0.392c-0.481-0.198-1.025-0.422-1.655-0.544c-0.378-0.075-0.738-0.162-1.483-0.341c-0.877-0.202-1.783-0.41-2.691-0.485
	l-1.895-0.217c-1.25-0.144-2.475-0.272-3.733-0.272c-0.001,0-0.934,0.019-0.934,0.019c-0.426,0-2.273-0.084-2.319-0.085l-3.492-0.05
	l-0.021-0.025l-0.149,0.022l-1.561-0.022l0.038,0.242c-0.232,0.025-0.461,0.042-0.686,0.042c-0.228,0-0.465-0.028-0.945-0.095
	l-0.098-0.014h-0.099c-0.542,0-0.921,0.133-1.187,0.315l-1.455,0.626l-0.202,1.722c-0.062,0.539-0.114,1.065-0.136,1.592
	l-0.351,9.028v1.766c0,0.821,0,1.662-0.04,2.496c-0.039,0.879-0.094,1.752-0.167,2.847l-0.021,0.338
	c-0.064,1.033-0.128,2.068-0.162,3.12c-0.052,1.856-0.057,3.732-0.062,5.543l-0.12,11.928l0.014,4.333
	c0.005,1.122,0.008,2.243-0.014,3.389v1.399c0.014,1.388,0.006,2.54-0.238,3.739c-0.065,0.393-0.07,0.798-0.057,1.285l0.05,1.841
	c0.018,0.644,0.038,2.907,0.038,2.911c0.011,2.557,0.017,5.1-0.002,7.638l-0.137,6.858l-0.025,9.99c0,0-0.219,8.436-0.244,9.959
	c-0.025,1.67-0.071,8.389-0.071,8.389l-0.191,10.79c-0.03,0.358-0.032,0.694-0.031,0.989c-0.022,0.706-0.022,1.413-0.001,2.055
	c0,0.856,0,1.731-0.021,2.652c0,0.522-0.019,1.039-0.044,1.572c-0.026,0.788-0.051,1.584-0.046,2.391l0.05,2.441
	c0.058,2.328,0.123,4.967-0.077,7.352c-0.038,0.294-0.059,0.599-0.059,0.937l0.076,4.137l0.998,1.85l2.953,0.452l0.002-0.014
	c0.313,0.036,0.628,0.06,0.949,0.06h0.043l0.637-0.041c0.302-0.035,0.604-0.047,1.185-0.072l3.24-0.123l1.191-0.071
	c0.463-0.027,0.944-0.058,1.518-0.059l1.987,0.074c0.771,0.052,1.644,0.11,2.798,0.11c1.369,0,2.741-0.044,4-0.085l1.344-0.049
	c1.636-0.069,3.082-0.641,4.479-1.192l0.091-0.036c1.173-0.457,2.284-1.056,3.715-1.844c2.202-1.186,4.925-2.951,6.62-6.159
	c1.153-0.926,1.871-2.075,2.467-3.175c0.979-1.754,1.798-3.394,2.578-5.16c0.703-1.594,1.501-3.399,1.776-5.423
	c0.04-0.281,0.132-0.584,0.229-0.905l0.217-0.743c0.842-2.88,1.242-5.48,1.226-7.94c0-2.236-0.058-4.55-0.182-7.281
	C169.34,129.165,169.274,128.097,169.192,127.026z M131.581,38.302c-0.031-0.338,0.041-0.771,0.136-1.239l0.014-0.004l0.026-0.133
	c0.375-0.022,0.767-0.04,1.151-0.04c0.75,0,1.399,0.062,2.006,0.194c0.379,0.077,0.742,0.114,1.109,0.114
	c0.437,0,0.874-0.044,1.578-0.117c0.688,0.006,2.802,0.089,3.184,0.128c1.513,0.121,3.497,0.342,5.438,0.994l1.683,0.538
	c0.531,0.17,1.075,0.346,1.623,0.55c0.559,0.205,1.254,0.459,1.723,0.787c0.981,0.691,2.021,1.012,3.032,1.205l0.011,0.023
	l0.244,0.328c0.258,0.344,0.46,0.625,0.637,0.994l0.134,0.74c0.097,0.512,0.209,1.057,0.428,1.603
	c0.894,2.234,1.603,4.488,2.099,6.652c0.088,0.452,0.104,0.944,0.124,1.529c0.009,0.387,0.023,0.772,0.059,1.182l0.251,2.639
	c0.15,1.594,0.285,3.177,0.396,4.77c0.046,0.632,0.046,1.284,0.046,2.272l0.001,0.271l0.029,0.749
	c-0.488,1.334-0.574,2.641-0.658,3.923c-0.043,0.795-0.084,1.452-0.191,2.013c-0.141,0.598-0.202,1.181-0.287,1.988l-0.021,0.211
	c-0.018,0.32-0.041,0.629-0.107,1.081c-0.055,0.372-0.116,0.794-0.225,1.165l-0.25,0.814c-0.399,1.325-0.776,2.577-1.192,3.782
	c-0.093,0.261-0.267,0.558-0.529,1.007l-0.457,0.809c-0.226,0.361-0.481,0.802-0.661,1.321c-0.133,0.379-0.534,0.742-1.033,1.193
	l-0.446,0.392c-0.158,0.139-0.834,0.661-0.837,0.663l-0.08,0.068c-2.38,2.146-5.331,3.072-7.911,3.697
	c-1.41,0.35-2.944,0.48-4.892,0.646c-0.667,0.06-1.331,0.121-2.411,0.238c-0.515,0.033-1.212,0.076-1.83,0.389
	c-0.312-0.061-0.678-0.125-1.136-0.149c-0.944-0.024-1.522-0.641-1.546-1.644c-0.043-1.978-0.25-13.243-0.252-13.306
	c-0.018-0.464-0.037-0.926-0.033-1.383l0.057-3.845c0.03-2.133,0.06-4.266,0.06-6.396c0-2.56-0.065-4.952-0.2-7.322
	c-0.167-2.762-0.167-5.675,0.001-9.165c0.058-1.144-0.015-2.339-0.078-3.385l-0.089-1.606l-0.004-0.624
	C131.597,40.716,131.685,39.552,131.581,38.302z M130.802,156.521c0.025-0.875,0.208-4.521,0.208-4.536
	c0.062-1.508,0.097-3.061,0.127-4.578l0.038-1.667c0.032-1.404,0.064-2.812,0.064-4.195c0.002-0.477-0.017-1.755-0.035-2.981
	c-0.016-1.048-0.031-2.059-0.031-2.464c0.013-1.021,0.257-11.196,0.258-11.23c0.038-1.453,0.075-2.913,0.077-4.358
	c0.015-1.151-0.002-2.313-0.026-3.855l-0.04-1.951c-0.024-1.445-0.089-2.891-0.159-4.428c-0.116-2.427-0.247-5.176-0.074-7.745
	l0.123-1.24c0.052-0.424,0.1-0.849,0.126-1.306c0.031-0.733,0.026-1.441-0.014-2.192c0.328-0.087,0.648-0.128,0.994-0.128h0.182
	l0.094,0.007c0.986,0.067,1.971,0.105,2.962,0.141l5.539,0.198l1.897-0.003l0.042,0.085l1.154-0.087l0.572-0.001l0.001-0.089
	l0.124-0.038c0.221-0.071,0.455-0.104,0.757-0.104c0.163,0,0.325,0.01,0.767,0.032l0.304,0.013c0.343,0,0.67-0.024,1.064-0.059
	c0.211-0.016,0.45-0.034,0.692-0.039c0.121,0,0.181,0.021,0.193,0.029c1.183,1.042,2.538,1.495,4.099,2.016
	c0.066,0.023,0.229,0.079,0.349,0.128l0.242,0.653l0.835,0.432c0.196,0.102,0.368,0.396,0.757,1.116
	c0.169,0.332,0.347,0.669,0.598,1.05c0.708,1.01,1.271,2.243,1.932,3.689l0.094,0.199c0.315,0.665,0.641,1.354,1.156,2.295
	l0.058,0.104l0.073,0.094c1.504,1.902,1.837,4.496,2.131,6.788l0.287,2.187c0.286,2.213,0.583,4.567,0.801,6.879
	c0.319,3.514,0.545,7.266,0.03,10.887c-0.127,0.856-0.203,1.708-0.314,3.026c-0.066,0.94-0.132,1.785-0.244,2.582
	c-0.125,0.834-0.385,1.672-0.777,2.941l-0.051,0.164c-0.087,0.264-0.231,0.562-0.403,0.903l-0.321,0.71
	c-0.239,0.525-0.456,1.073-0.657,1.597l-0.608,1.486c-0.888,2.103-1.965,4.525-3.51,6.645c-1.056,1.421-2.241,2.628-3.354,3.71
	c-0.266,0.251-0.682,0.483-1.109,0.724c-1.231,0.63-2.36,1.151-3.72,1.151c-0.779,0-1.51,0.102-2.311,0.224l-1.126,0.17
	c-0.929,0.08-1.878,0.146-2.753,0.185l-5.321,0.117l-0.573,0.088l-0.852,0.065l-0.762,0.125l-0.262-0.164l-0.965,0.22
	c-0.341,0.075-0.934,0.154-1.483,0.191C130.739,160.634,130.757,158.519,130.802,156.521z"/>
<path fill="#FF6D5E" d="M291.024,95.561c-0.016-0.466-0.02-3.739-0.02-4.943l0.002-0.143c0.02-1.512,0.038-3.001,0.018-4.473
	c0-0.743-0.042-1.479-0.101-2.499l-0.087-1.318c0,0-0.183-3.741-0.266-4.976c0-0.002-0.107-1.129-0.117-1.321
	c-0.039-2.542-0.404-5.226-1.149-8.452c-0.261-1.103-0.482-2.223-0.7-3.317c-0.187-1-0.393-2-0.614-3.001
	c-0.379-1.675-0.8-3.318-1.256-4.897c-0.262-0.874-1.683-5.229-1.729-5.369l-0.669-2.303c-0.218-0.759-0.442-1.544-0.713-2.308
	c-0.609-1.788-1.663-3.261-2.737-4.761l-0.469-0.73c-0.291-0.45-0.584-0.886-0.959-1.271c-0.955-0.993-1.899-1.861-2.913-2.676
	c-0.295-0.226-0.58-0.478-0.86-0.729c-0.716-0.634-1.606-1.422-2.998-2.122c-0.266-0.131-0.518-0.256-0.677-0.388
	c-0.659-0.521-1.391-0.862-2.236-1.039c-0.063-0.014-0.139-0.042-0.296-0.117c-1.763-0.75-3.547-0.949-4.901-1.038
	c-0.795-0.054-1.569-0.054-2.37-0.054c-0.617,0-1.234-0.001-1.862-0.031c-0.849-0.042-1.708-0.124-2.565-0.205l-2.552-0.242
	c-0.476-0.035-0.968-0.07-1.368-0.163c-1.283-0.311-3.871-0.394-5.198-0.394c-1.476,0-2.282,0.087-2.699,0.16l-1.972,0.344
	l-0.073,2.895c-0.045,0.931-0.087,1.932-0.087,2.942c0,0.965,0.021,1.94,0.043,2.922l0.119,3.526l0.016,7.228
	c0,0.964,0,1.924-0.042,2.903c-0.023,0.623-0.093,1.238-0.17,1.858l-0.166,1.824c-0.033,0.643-0.013,1.273,0.015,1.915l0.038,0.934
	l0.063,14.977l-0.038,1.148l0.016,1.847c0.015,0.664,0.031,1.327,0.012,1.941l-0.159,2.599c-0.071,0.898-0.128,1.818-0.163,2.738
	c-0.035,1.081-0.026,2.161-0.016,3.063l-0.018,2.746c-0.021,0.842-0.023,1.671,0.001,2.521c0.033,0.937,0.094,1.877,0.16,2.812
	c0.06,0.798,0.114,1.602,0.153,2.415c0.03,0.536,0.029,1.071,0.025,2.066l0.021,2.786c0.005,0.57,0.011,1.143-0.008,1.722
	c0,0-0.261,8.099-0.308,9.847c-0.013,0.605,0.005,1.207,0.037,2.186l0.039,1.163l0.132,10.025c0.027,2.305,0.059,4.916,0.02,7.418
	l-0.05,2.31c-0.049,1.706-0.104,3.639-0.009,5.472c0.047,1.155,0.034,2.319,0.015,3.626l-0.012,2.125
	c0,1.489,0.03,2.989,0.066,4.514l0.083,2.087l0.122,2.179c0.041,0.517,0.088,1.192,0.088,1.834c0,0.298-0.036,0.605-0.066,0.885
	c-0.073,0.563-0.143,1.165-0.104,1.77c0.052,0.843,0.176,1.643,0.304,2.419l0.34,2.486l1.914,0.213
	c0.266,0.028,0.645,0.061,1.002,0.075c3.007,0.233,3.751,0.439,3.932,0.518l0.17,0.073l0.183,0.027
	c0.601,0.091,1.889,0.144,4.187,0.172l5.613,0.024c0.714,0.026,1.426,0.026,2.153,0.026h1.133h0.021
	c0.854-0.027,1.697-0.119,2.962-0.263c0.519-0.043,1.229-0.103,1.957-0.381c0.831-0.324,1.698-0.706,2.54-1.116l0.862-0.389
	l0.066-0.038c0.107-0.063,0.358-0.211,2.547-2.06c0,0,2.441-2.226,3.218-2.957c0.103-0.104,1.664-1.918,2.075-2.905l0.068-0.164
	l0.025-0.175c0.047-0.318,0.368-0.676,0.934-1.28l0.248-0.267l0.602-1.114c0.255-0.452,0.553-0.992,0.819-1.566
	c1.431-3.038,2.511-6.4,3.293-10.238c0.065-0.279,0.119-0.575,0.163-0.911l0.021-0.118c0.039-0.222,0.074-0.441,0.165-0.716
	c0.636-2.153,1.118-4.397,1.52-7.07l0.174-1.209c0.713-3.585,1.047-7.3,1.279-10.46c0.19-2.56,0.262-5.094,0.345-8.028l0.102-3.448
	c0.101-2.689,0.184-5.399,0.242-8.125c0.041-1.982,0.081-3.956,0.087-5.926C291.055,96.962,291.045,96.268,291.024,95.561z
	 M283.629,101.879l-0.91,0.776l0.817,1.659c0.032,0.14-0.004,0.708-0.028,1.116l-0.01,0.619c0,0.002-0.025,2.453-0.054,3.229
	l-0.359,7.554c-0.051,1.253-0.11,2.505-0.195,3.786c-0.081,1.416-0.194,2.83-0.308,4.215l-0.34,3.235
	c-0.186,1.921-0.62,3.86-1.079,5.908l-0.288,1.267c-0.174,0.774-0.294,1.546-0.458,2.634l-0.043,0.288
	c-0.073,0.486-0.146,0.969-0.243,1.465c-0.185,1.002-0.798,3.99-0.884,4.41l-0.275,0.98c-0.423,0.696-0.729,1.456-0.944,2.358
	c-0.039,0.197-0.157,0.461-0.316,0.814c-0.003,0.007-0.281,0.615-0.409,0.93c-0.153,0.323-0.32,0.699-0.393,1.05
	c-0.437,1.625-1.406,3.105-2.435,4.672l-0.143,0.13c-0.587,0.533-0.707,0.65-1.007,1.19l-0.059,0.106l-0.04,0.114
	c-0.066,0.188-0.232,0.447-0.615,1.01l-0.363,0.588l-0.056,0.099c-0.059,0.115-0.157,0.308-0.925,0.71l-0.573,0.283
	c-0.602,0.288-1.271,0.608-1.93,1.092c-0.61,0.094-1.244,0.251-2.15,0.484c-0.891,0.26-1.598,0.443-2.597,0.443
	c-0.572,0-1.143,0.029-1.956,0.081l-0.126,0.008c-0.507,0.032-1,0.065-1.504,0.065c-1.826,0-3.672-0.067-5.228-0.129l-4.152-0.255
	c-0.049-1-0.093-2.005-0.121-3.012c-0.037-1.078-0.037-2.167-0.037-3.248v-5.762c0,0,0.11-13.442,0.11-14.961
	c0-0.433-0.048-0.833-0.11-1.343c-0.039-0.253-0.067-0.5-0.076-0.718l-0.041-1.784c-0.047-1.671-0.101-3.565,0.038-5.385
	c0.092-1.278,0.112-2.552,0.133-3.867l0.035-2.42l0.132-4.69c0.01-0.237,0.004-0.466-0.041-1.175
	c-0.013-0.193-0.023-0.36-0.005-0.484c0.25-1.9,0.121-3.75-0.016-5.708l-0.013-0.183c-0.052-0.71-0.104-1.427-0.122-2.139
	l-0.116-6.231c0-0.524-0.025-1.062-0.053-1.581c-0.033-0.604-0.058-1.193-0.058-1.798c-0.004-0.957,0-1.909,0.016-2.923
	l-0.035-16.845c0.01-2.452,0.029-4.908,0.065-7.372c0.008-0.887,0.039-1.78,0.08-2.748c0.012-0.819,0.035-1.637,0.066-2.477
	c0.009-0.326-0.001-0.646-0.025-1.307l-0.01-0.283c-0.012-0.351-0.015-0.702-0.006-1.05c0,0,0.222-7.613,0.256-9.173
	c0.021-0.593,0.025-3.979,0.025-4.364c0-0.236,0.036-0.521,0.099-1.032l0.062-0.547c0.186-1.709,0.315-3.565,0.018-5.512
	c0,0-0.09-0.751-0.092-0.766c0.058-0.002,0.5-0.005,0.5-0.005c0.954,0,1.921,0.053,2.855,0.155c0.313,0.039,0.619,0.05,0.905,0.05
	c0.316,0,0.63-0.018,0.959-0.052c0.32-0.039,0.626-0.096,1.104-0.192c0.241-0.055,0.458-0.096,0.761-0.129
	c0.778,0.35,1.611,0.581,2.659,0.731c0.833,0.095,1.655,0.262,2.794,0.495l1.677,0.339c0.49,0.088,0.996,0.179,1.343,0.328
	c1.045,0.452,2.051,0.616,3.416,0.839c0.228,0.042,0.402,0.144,0.595,0.352l0.958,1.019c0.989,1.042,2.013,2.12,2.758,3.332
	l0.61,0.956c0.76,1.209,1.544,2.459,1.887,3.776c0.306,1.149,0.687,2.285,1.053,3.351c0.257,0.747,0.513,1.51,0.738,2.261
	c0.202,0.683,0.362,1.367,0.573,2.286c0.191,0.766,0.391,1.541,0.618,2.312c0.767,2.504,1.402,5.193,1.891,7.988
	c0.372,2.194,0.673,4.57,0.919,7.265c0.169,1.828,0.271,3.728,0.354,5.356c0.035,0.784,0.071,1.571,0.131,2.302l0.137,2.343
	c0.096,1.434,0.193,2.964,0.236,4.514c0.05,1.986,0.061,3.951,0.064,5.781l0.016,3.364c0,0.305-0.022,0.611-0.066,1
	C283.614,100.624,283.582,101.198,283.629,101.879z"/>
<path fill="#FF6D5E" d="M227.717,163.381l-0.251-1.063c-0.253-1.082-0.485-2.035-0.714-2.768c-0.496-1.603-0.972-3.25-1.466-5.084
	c-0.104-0.338-0.179-0.694-0.254-1.039l-0.257-1.213l-2.039-8.542l-1.231-5.045c-0.146-0.593-1.105-4.043-1.105-4.043s0,0,0,0.001
	l-1.803-7.093c-0.218-0.836-0.466-1.65-0.711-2.428c0-0.002-0.533-1.764-0.664-2.261l-0.645-2.642
	c-0.197-0.83-0.4-1.687-0.629-2.558c-0.515-1.819-2.701-9.383-2.702-9.389c-0.326-1.109-0.597-2.254-0.841-3.331
	c-0.167-0.717-0.304-1.441-0.448-2.209l-0.362-1.732c-0.03-0.124-0.06-0.245-0.085-0.358c0.808-0.181,1.463-0.557,2.037-0.887
	c0.198-0.119,0.402-0.227,0.546-0.303c1.035-0.493,1.727-1.235,2.465-2.028l0.424-0.423c1.77-1.664,3.159-3.318,4.246-5.055
	c1.046-1.662,1.937-3.487,2.725-5.103l0.425-0.88c0.934-1.895,1.357-3.957,1.696-5.608l0.188-0.874
	c0.231-1.125,0.494-2.399,0.434-3.77c-0.027-0.698,0.03-1.434,0.098-2.201l0.181-2.319c0.068-0.885,0.146-1.888,0.129-2.908
	c-0.031-1.431-0.125-2.873-0.217-4.268l-0.17-2.786l-0.166-2.135l-0.083-0.537c0.053-1.928-0.397-3.727-0.793-5.308l-0.147-0.609
	c-0.135-0.531-0.294-1.069-0.509-1.791c-0.174-0.579-0.351-1.165-0.486-1.746c-0.471-2.05-1.332-4.012-2.574-5.853l-3.016-4.302
	c-1.243-1.816-2.902-3.229-5.036-4.3l-1.265-0.681c-0.583-0.31-1.187-0.63-1.825-0.902l-0.005-0.025l-0.693-0.294
	c-0.964-0.409-2.056-0.872-3.232-1.1c-1.783-0.361-3.542-0.501-5.353-0.625c-2.041-0.119-4.215-0.189-6.837-0.223l-3.121-0.045
	c-1.427,0-2.6,0.085-3.658,0.262l-3.975,0.56l-0.086,6.755l-0.069,3.125c-0.021,0.694-0.042,1.386-0.024,2.102l0.12,3.258
	c0.038,0.96,0.075,1.917,0.085,2.956l0.049,2.169c0.033,1.297,0.067,2.638-0.051,3.958c-0.053,0.708-0.024,1.384,0.025,2.4
	l0.021,0.673l-0.006,16.308l-0.031,4.876c-0.004,1.278-0.008,2.555,0.017,3.84c0.062,2.543,0.171,5.114,0.288,7.75l0.204,4.148
	l0.015,0.211c0.034,0.515,0.069,1.023,0.078,1.55l0.143,7.337c0.052,1.303,0.109,2.779-0.029,4.182
	c-0.09,0.877-0.051,1.75-0.006,2.762l0.006,0.125c0,0,0.322,4.819,0.361,5.671c0.158,3.798,0.308,7.59,0.424,11.388
	c0.04,1.106,0.04,2.229,0.04,3.363l0.029,3.88l0.012,0.657c0.026,1.535,0.054,3.065,0.112,4.62c0.025,0.649,0.052,1.307,0.101,2.033
	c0.082,1.638,0.174,3.495,0.018,5.173c-0.083,0.718-0.075,1.453-0.06,2.134l0.061,4.48c0,0.557,0,1.188,0.088,1.823
	c0.184,1.375,0.194,2.586,0.034,3.692c-0.165,1.088-0.184,2.183-0.057,3.363c0.063,0.523,0.074,1.064,0.085,1.636l0.002,0.09
	l0.113,1.684l0.576,1.883h2.128c0.693,0,1.314-0.086,1.848-0.256l1.891-0.37l-0.223-1.773l0.189-0.462l0.049-0.526
	c0.046-0.466,0.073-0.909,0.073-1.342c0.015-0.961,0.003-1.977-0.04-3.178l-0.102-1.183c-0.03-0.364-0.062-0.718-0.07-1.097
	c-0.084-2.646-0.155-5.721,0.068-8.747c0.054-0.875,0.021-1.719-0.025-2.662c-0.023-0.427-0.043-0.865-0.043-1.32
	c-0.025-1.455-0.025-2.907-0.025-4.396l-0.01-1.804c0,0-0.116-9.692-0.183-13.056c-0.069-3.358-0.146-6.7-0.252-10.051l-0.157-4.265
	c-0.085-2.075-0.154-4.132-0.201-6.213c-0.037-1.196,0.07-2.436,0.221-3.742c0.913,0.103,1.689,0.15,2.433,0.15
	c0.7,0,1.362-0.046,2.239-0.126c0.572,0.071,1.114,0.081,1.576,0.081c1.159,0,2.325-0.106,3.946-0.292
	c0.537-0.061,1.179-0.146,2.012-0.316c0.285,0.67,0.51,1.271,0.682,1.812c0.945,3.144,1.878,6.291,2.807,9.447l0.903,3.177
	l0.274,1.221c0.207,0.94,0.426,1.904,0.668,2.813c0.183,0.721,0.406,1.412,0.659,2.191l0.421,1.373
	c0.438,1.459,0.859,2.935,1.259,4.405c0.09,0.334,0.163,0.664,0.237,1.014l0.041,0.183c0.112,0.499,0.225,0.993,0.363,1.428
	c0.227,0.754,0.415,1.527,0.586,2.241c0.328,1.439,0.646,2.739,1.193,4.032l1.712,6.273l1.295,4.971l1.091,4.001
	c0.089,0.296,0.187,0.592,0.323,0.902l0.021,0.048l1.802,6.319c0.254,0.927,0.528,2.228,0.749,3.306
	c0.269,1.233,0.547,2.508,0.813,3.481l0.114,0.416l1.559,1.349l1.302,0.069h1.437l2.903-0.41l-0.808-2.714
	C228.155,165.235,227.923,164.25,227.717,163.381z M202.424,38.561c0.355,0.029,0.727,0.059,0.84,0.074
	c0.766,0.111,1.529,0.249,2.362,0.401l0.775,0.137c0.42,0.082,0.817,0.158,1.142,0.26c0.594,0.202,1.194,0.428,1.944,0.711
	l1.377,0.521c0.174,0.067,0.323,0.125,0.46,0.21c0.534,0.309,1.048,0.616,1.473,0.991c0.505,0.436,1.008,0.938,1.737,1.675
	l0.418,0.404c0.025,0.026,0.048,0.051,0.055,0.051c0.005,0,0.004-0.008-0.005-0.027c0.422,0.925,0.885,1.804,1.331,2.652
	c0.688,1.312,1.399,2.67,1.905,4.097c0.179,0.489,0.309,1.027,0.505,1.842l0.222,0.942c0.559,2.259,0.661,4.743,0.771,7.374
	c0.04,0.953,0.146,1.874,0.249,2.71l0.157,1.511c0.036,0.358,0.07,0.783,0.041,1.222l-0.16,2.417
	c-0.104,1.351-0.218,2.923-0.251,4.474c-0.043,1.719-0.279,3.591-0.765,6.07c-0.323,1.643-0.883,3.343-1.649,5.021
	c-0.213,0.438-0.948,1.829-1.181,2.268l-1.481,1.754c-0.646,0.774-1.294,1.553-1.89,2.327c-0.776,0.995-1.947,1.52-3.206,2.036
	l-0.008-0.006l-0.783,0.317c-0.84,0.341-1.597,0.654-2.343,1.053c-0.817,0.439-1.859,0.555-2.878,0.668
	c-0.414,0.049-0.848,0.106-1.245,0.171c-0.711,0.108-1.448,0.178-2.183,0.248l-2.836,0.235c-1.278,0.103-2.545,0.207-3.825,0.341
	c-0.267,0.026-0.536,0.054-0.802,0.054c-0.265,0-0.468-0.023-0.657-0.079c-0.132-0.037-0.257-0.076-0.376-0.117
	c-0.065-0.502-0.122-0.98-0.122-1.441c0-2.112,0.031-4.213,0.062-6.366l0.03-6.544l-0.177-1.001l0.009-3.244
	c0.006-1.858,0.006-3.713-0.029-5.56c-0.03-1.712-0.125-3.416-0.207-4.904l-0.12-2.697c-0.017-0.2-0.012-0.394-0.008-0.78
	l0.002-0.206c0,0-0.046-11.181-0.04-13.254c0-2.073,0.041-4.118,0.099-6.773l0.103-4.037l0.064-0.731L191.71,38
	c0.73-0.054,1.483-0.11,2.215-0.125l0.547,0.006c2.346,0.027,4.723,0.228,7.108,0.603C201.706,38.5,202.058,38.53,202.424,38.561z"
	/>
<path fill="#FF6D5E" d="M105.104,162.29c0,0-0.813,0.017-1.185,0.042l-0.058,0.004l-0.003-0.004l-2.27,0.109
	c-0.408,0.019-0.817,0.038-1.518,0.038c-0.106,0-0.882-0.01-0.9-0.01c-0.696,0-1.289,0.066-1.749,0.189
	c-0.144,0.03-0.373,0.065-0.516,0.074c-0.873-0.083-1.718-0.141-2.72-0.187l-2.148-0.103c-0.913,0-1.814,0.113-2.414,0.202
	l-1.656,0.14c-0.424,0.032-0.843,0.041-1.265,0.041c-0.328,0-1.508-0.059-1.581-0.061c-0.178,0-0.356-0.026-0.616-0.059
	l-0.502-0.047c-0.393-0.042-0.79-0.074-1.191-0.074c-0.453,0-0.831,0.031-1.449,0.087l-0.035,0.003l-0.877-0.023
	c-0.67-0.011-1.344-0.043-2.214-0.084l-0.201-0.009l-0.06-0.213c-0.33-1.148-0.294-2.101-0.249-3.374
	c0.014-0.21,0.044-1.052,0.076-1.966c0.03-0.85,0.062-1.764,0.084-2.26c0.078-1.644,0.158-3.344,0.088-5.051
	c-0.093-1.937-0.089-3.959-0.084-6.301v-0.233l0.217-10.684c0.011-0.666-0.008-1.331-0.027-1.992l-0.228-8.701
	c-0.031-1.334-0.065-2.847-0.028-4.316l0.042-1.385c0.055-1.309,0.091-2.489-0.033-3.68c-0.242-2.367-0.125-4.875-0.008-7.376
	l0.024-0.695c0.075-1.547,0.125-3.214,0.153-5.117v-3.053c0-1.312,0-2.628,0.024-3.901c0.014-0.434,0.054-0.869,0.102-1.404
	l0.012-0.138c0.061-0.58,0.13-1.238,0.147-1.982c0-1.922-0.041-3.99-0.132-6.697c-0.023-0.863-0.073-1.724-0.122-2.576l-0.061-1.062
	c-0.123-2.016-0.262-4.3-0.158-6.508c0.046-0.964,0.066-1.954,0.077-2.898l0.044-2.632l0.188-3.807
	c0.053-1.824,0.109-3.945,0.109-6.048c-0.009-3.669-0.048-7.331-0.087-10.989l-0.004-0.339c0,0-0.212-9.773-0.256-11.149
	l-0.099-1.371l-0.458-1.863l-6.651-0.412l0.006,9.237l-0.154,0.245l-0.003,0.402c0,0-0.04,5.777-0.035,7.69l0.105,4.152
	c-0.001,0.125-0.025,0.492-0.049,0.883c-0.033,0.537-0.066,1.114-0.065,1.328l0.064,4.507c0.027,1.641,0.056,3.338,0.031,4.991
	c-0.016,0.877-0.05,1.765-0.098,2.727c-0.065,1.416-0.133,2.881-0.088,4.366c0.027,0.688,0.017,1.38,0.007,2.061l-0.04,1.945
	l-0.009,3.978l-0.04,2.318c-0.019,1.341-0.038,2.673-0.028,3.997l0.006,1.41c0,2.452,0.009,4.662,0.115,6.882
	c0.148,2.945,0.115,5.904,0.08,9.064c-0.032,2.012-0.057,3.983-0.022,5.983c0.03,2.787,0.026,5.58,0.021,8.378l-0.031,6.687
	c-0.01,0.74-0.01,1.459,0.016,2.197c0,0.003,0.067,1.315,0.064,1.608l-0.027,1.86c0,0-0.064,3.078-0.064,4.271
	c0,0.798,0.02,1.591,0.043,2.49c0.023,0.812,0.047,1.616,0.042,2.38c-0.015,0.856-0.054,1.723-0.099,2.575
	c-0.036,0.658-0.068,1.337-0.077,1.952c-0.043,1.454-0.079,2.918-0.048,4.835c0.024,1.32,0.051,2.815,0.204,4.3l0.064,0.524
	c0.128,1.127,0.25,2.191,0.026,3.137l-0.024,0.104l-0.059,0.704l0.039,5.386c0.009,0.735,0.017,1.37-0.057,2.182
	c-0.121,1.257-0.004,2.382,0.207,3.677c0.265,1.687,1.331,2.615,3,2.615h0.148h0.014c0.478-0.009,0.987-0.044,1.528-0.104
	l1.023-0.056c1.971-0.13,3.88-0.19,6.001-0.19l4.39,0.025c1.584,0,2.769-0.028,3.825-0.091l2.626-0.13
	c0.001,0,2.623-0.086,3.092-0.086c0.88,0,1.726,0.025,2.595,0.061c0,0,2.053,0.066,2.752,0.066c0.826,0,1.637-0.03,2.622-0.1
	l0.758,0.023c0.69,0,1.25-0.12,1.775-0.387l1.316-0.687v-0.859c0-0.001-0.001-1.957,0.007-2.554l0.894-3.037l-3.311,0.001
	L105.104,162.29z"/>
<path fill="#FF6D5E" d="M55.718,127.028c-0.086-1.162-0.184-2.479-0.209-3.767c-0.097-2.521-0.438-4.951-0.792-7.206
	c-0.331-2.068-0.866-4.138-1.398-6.08c-0.517-1.906-1.16-4.278-2.239-6.529c-1.24-2.56-2.855-5.493-5.449-7.854
	c-0.921-0.825-1.787-1.389-2.762-1.787c-0.299-0.112-0.595-0.189-0.924-0.263c-0.093-0.021-0.185-0.038-0.266-0.069l-2.278-0.896
	c0.555-0.381,1.079-0.801,1.633-1.3c0.145-0.137,0.302-0.263,0.527-0.443c0.251-0.205,0.505-0.415,0.716-0.619l0.865-0.782
	c0.748-0.674,1.473-1.34,2.108-2.078c1.653-1.911,2.814-4.217,3.547-7.047c0.145-0.555,0.508-2.021,0.869-3.479
	c0.341-1.379,0.681-2.75,0.825-3.309c0.882-3.318,0.976-6.607,0.958-9.105l-0.057-6.122l-0.006-0.261
	c-0.018-0.845-0.037-1.688-0.08-2.47c-0.026-0.86-0.108-1.739-0.245-2.604l-0.154-1.027c-0.16-1.125-0.358-2.524-0.696-3.841
	c-0.322-1.219-0.768-2.451-1.145-3.47l-0.624-1.849l-0.18-0.668l-0.884-2.01c-0.766-1.881-1.829-3.291-3.24-4.303l-1.916-1.398
	c-0.402-0.312-0.903-0.702-1.5-0.986c-0.895-0.441-1.819-0.838-3.098-1.386l-0.876-0.366c-0.574-0.258-1.195-0.521-1.856-0.643
	l-1.513-0.35c-0.877-0.202-1.783-0.41-2.704-0.486l-1.827-0.207c-1.217-0.139-2.475-0.282-3.795-0.282
	c-0.001,0-0.933,0.019-0.933,0.019c-0.416,0-0.838-0.021-1.447-0.052l-4.521-0.088l-0.658,0.099
	c-0.544,0.085-1.059,0.165-1.564,0.165c-0.237,0-0.482-0.029-0.94-0.095l-0.1-0.015H14.79c-0.442,0-0.788,0.106-1.059,0.189
	l-1.743,0.524v1.62l-0.041,0.344c-0.063,0.539-0.115,1.056-0.137,1.58l-0.339,8.826c-0.005,0.062-0.014,0.177-0.017,1.965
	c0,0.826,0,1.673-0.032,2.472l-0.162,2.65c-0.077,1.219-0.151,2.444-0.192,3.699c-0.035,1.832-0.175,16.795-0.181,17.45l0.013,3.698
	c0.009,1.336,0.019,2.66-0.003,4.014l-0.009,1.417c0.006,1.163,0.014,2.481-0.238,3.728c-0.061,0.355-0.067,0.708-0.058,1.288
	c0,0.001,0.08,2.985,0.08,3.774c0.016,2.889,0.025,5.76,0.005,8.613c0,0-0.127,5.714-0.136,6.861l-0.016,5.685
	c0.003,1.435,0.006,2.877-0.024,4.348c-0.007,1.237-0.04,2.459-0.072,3.688l-0.006,0.223c0,0-0.125,4.485-0.151,6.015l-0.081,8.42
	c0,0.616-0.009,1.26-0.045,1.974l-0.121,8.208c0,0.199-0.013,0.414-0.046,0.956l-0.018,5.245l-0.048,1.611
	c-0.032,0.668-0.065,1.547-0.047,2.419l0.061,2.697c0.052,2.375,0.106,4.831-0.112,7.247l-0.033,0.727l0.074,4.191l1.002,1.862
	l2.169,0.317c0.22,0.034,0.438,0.067,0.657,0.095l0.135,0.02l0-0.004c0.31,0.036,0.621,0.059,0.94,0.059h0.043l0.644-0.041
	c0.294-0.036,0.598-0.047,1.188-0.072l4.427-0.194c0.461-0.027,0.939-0.058,1.544-0.058c0.559,0.009,1.117,0.04,1.953,0.086
	l0.486,0.027c0.674,0.035,1.361,0.07,2.314,0.07c1.37,0,2.742-0.044,4.001-0.085l1.338-0.049c1.616-0.062,3.085-0.642,4.58-1.23
	c1.206-0.477,2.355-1.092,3.73-1.845c2.193-1.194,4.902-2.967,6.591-6.157c1.162-0.937,1.91-2.128,2.494-3.188
	c0.969-1.765,1.781-3.399,2.566-5.167c0.695-1.582,1.483-3.376,1.785-5.402c0.047-0.346,0.146-0.688,0.28-1.127l0.147-0.521
	c0.846-2.888,1.248-5.489,1.229-7.941c0-2.293-0.058-4.605-0.18-7.271C55.889,129.541,55.719,127.036,55.718,127.028z M18.11,38.302
	c-0.034-0.368,0.056-0.855,0.164-1.375c0.414-0.025,0.792-0.041,1.162-0.041c0.752,0,1.404,0.062,2.012,0.194
	c0.385,0.078,0.735,0.114,1.104,0.114c0.442,0,0.854-0.042,1.579-0.117c0.689,0.006,2.807,0.089,3.189,0.128
	c1.512,0.121,3.495,0.342,5.427,0.99l1.266,0.411c0.675,0.21,1.348,0.423,2.048,0.686c0.634,0.235,1.29,0.477,1.713,0.775
	c0.979,0.695,2.016,1.018,3.028,1.21l0.017,0.038l0.258,0.344c0.256,0.335,0.446,0.583,0.644,1.114l0.116,0.607
	c0.097,0.499,0.208,1.03,0.427,1.601c0.901,2.213,1.606,4.464,2.098,6.7c0.098,0.437,0.113,0.926,0.13,1.485
	c0.01,0.409,0.026,0.808,0.062,1.115c0.031,0.44,0.166,1.964,0.307,3.544c0.145,1.628,0.295,3.315,0.339,3.911
	c0.059,0.82,0.054,1.671,0.045,2.549l0.031,0.742c-0.489,1.331-0.577,2.659-0.669,4.061l-0.006,0.104
	c-0.039,0.634-0.076,1.231-0.21,1.845c-0.123,0.606-0.182,1.184-0.264,2.056l-0.1,1.04c-0.057,0.382-0.127,0.856-0.262,1.306
	c-0.44,1.495-0.913,3.08-1.423,4.561c-0.104,0.287-0.275,0.588-0.416,0.84c-0.14,0.223-0.261,0.42-0.595,1.021
	c-0.197,0.326-0.468,0.773-0.631,1.271c-0.146,0.406-0.572,0.784-1.073,1.228l-0.32,0.292c0,0-0.853,0.671-1.003,0.809
	c-2.396,2.149-5.347,3.076-7.926,3.702c-1.375,0.345-2.882,0.475-4.357,0.602c0,0-1.855,0.164-2.933,0.281
	c-0.516,0.033-1.216,0.076-1.837,0.391c-0.305-0.062-0.666-0.128-1.129-0.151c-0.956-0.025-1.518-0.625-1.542-1.64L18.32,75.339
	c-0.019-0.462-0.038-0.932-0.033-1.388l0.076-5.067c0.026-1.724,0.05-3.447,0.05-5.175c0-2.643-0.068-5.038-0.209-7.323
	c-0.168-2.759-0.168-5.674,0.001-9.179c0.052-1.168-0.018-2.346-0.079-3.371l-0.086-1.739c-0.008-0.147-0.019-0.303-0.01-0.421
	C18.124,40.775,18.217,39.58,18.11,38.302z M17.331,156.476c0.007-0.616,0.042-1.237,0.08-1.933l0.134-2.578l0.149-5.69
	c0.036-1.583,0.068-3.16,0.074-4.729c0.005-0.902-0.006-1.801-0.027-2.689l-0.002-0.104c-0.018-0.882-0.037-1.768-0.021-2.68
	c0-0.91,0.023-1.803,0.05-2.709l0.184-7.948c0.041-1.635,0.082-3.276,0.091-4.911c0.011-1.354-0.014-2.705-0.045-4.04l-0.025-1.761
	c-0.025-1.42-0.089-2.841-0.162-4.451c-0.12-2.556-0.243-5.198-0.072-7.718l0.133-1.313c0.05-0.41,0.096-0.818,0.115-1.232
	c0.031-0.699,0.026-1.407-0.014-2.195c0.326-0.085,0.657-0.128,0.991-0.128h0.185l0.093,0.007c0.979,0.067,1.968,0.105,2.958,0.141
	l5.563,0.198l1.271-0.018l1.544,0.033l0.633-0.05l0.308-0.095c0.235-0.074,0.472-0.107,0.768-0.107c0.175,0,0.352,0.011,0.839,0.036
	l0.222,0.009c0.359,0,0.693-0.024,1.074-0.059l0.693-0.039c0.123,0,0.179,0.021,0.186,0.021c0.001,0,0.001,0,0-0.001
	c1.139,1.018,2.428,1.459,3.596,1.859l0.518,0.173c0.161,0.052,0.27,0.091,0.342,0.12l0.237,0.645l0.831,0.434
	c0.23,0.121,0.411,0.447,0.703,0.998c0.17,0.339,0.375,0.735,0.661,1.169c0.706,1.013,1.262,2.229,1.994,3.831l0.047,0.1
	c0.306,0.649,0.622,1.321,1.153,2.271l0.055,0.099l0.07,0.089c1.517,1.921,1.819,4.389,2.114,6.796l0.444,3.359
	c0.235,1.869,0.478,3.802,0.651,5.702c0.319,3.486,0.544,7.219,0.033,10.87c-0.129,0.842-0.2,1.687-0.261,2.428l-0.048,0.557
	c-0.066,1.057-0.148,1.897-0.258,2.65c-0.12,0.836-0.39,1.705-0.764,2.907l-0.059,0.19c-0.078,0.241-0.188,0.474-0.341,0.813
	l-0.035,0.077c-0.149,0.276-0.292,0.561-0.562,1.216l-1.044,2.575c-0.905,2.126-1.999,4.569-3.513,6.652
	c-1.118,1.5-2.402,2.779-3.427,3.757c-0.236,0.239-0.679,0.479-1.057,0.684c-1.172,0.604-2.338,1.146-3.697,1.146
	c-0.783,0-1.512,0.102-2.308,0.224l-1.129,0.17c-0.928,0.08-1.873,0.146-2.753,0.185l-5.316,0.117l-0.827,0.133
	c-0.075,0.016-0.116,0.025-0.251,0.025l-0.292-0.01l-0.705,0.107l-0.151,0.031l-0.278-0.158l-0.913,0.205
	c-0.341,0.075-0.935,0.154-1.484,0.191C17.267,160.697,17.286,158.519,17.331,156.476z"/>
</svg>
