<?xml version="1.0" encoding="utf-8"?>
<!-- Generator: Adobe Illustrator 16.0.0, SVG Export Plug-In . SVG Version: 6.00 Build 0)  -->
<!DOCTYPE svg PUBLIC "-//W3C//DTD SVG 1.1//EN" "http://www.w3.org/Graphics/SVG/1.1/DTD/svg11.dtd">
<svg version="1.1" id="Calque_1" xmlns="http://www.w3.org/2000/svg" xmlns:xlink="http://www.w3.org/1999/xlink" x="0px" y="0px"
	 width="505.617px" height="323.172px" viewBox="0 0 505.617 323.172" enable-background="new 0 0 505.617 323.172"
	 xml:space="preserve">
<path fill="#2E2B2B" d="M446.678,218.697l-0.25-0.125c-2.066,3.755-4.132,5.068-6.071,5.068c-1.314,0-1.877-0.938-1.877-2.377
	c0-4.006,5.819-13.581,5.819-18.838c0-3.63-2.44-4.944-4.256-4.944c-3.692,0-9.638,3.755-13.329,10.327
	c2.69-7.197,1.502-10.327-2.316-10.327c-2.002,0-4.757,1.377-6.695,5.632l0.25,0.188c1.502-3.191,3.316-4.506,4.505-4.506
	c1.189,0,1.878,1.189,1.315,3.004l-7.261,22.843h4.945l4.943-15.771c4.13-7.01,7.886-8.887,10.389-8.887
	c1.502,0,2.754,1.127,2.754,2.691c0,5.694-5.57,13.079-5.57,18.087c0,2.564,1.628,4.442,4.944,4.442
	C441.171,225.206,444.361,223.266,446.678,218.697 M409.128,203.803c0,3.255-3.379,14.206-4.818,16.71
	c-1.502,2.69-3.505,4.443-7.51,4.443c-4.506,0-5.57-3.066-5.57-6.07c0-3.255,3.38-14.207,4.757-16.71
	c1.564-2.69,3.566-4.506,7.51-4.506C408.064,197.67,409.128,200.736,409.128,203.803 M413.071,207.934
	c0-6.196-4.193-10.452-9.825-10.452c-8.387,0-15.959,8.261-15.959,17.21c0,6.196,4.192,10.515,9.825,10.515
	C405.498,225.206,413.071,216.945,413.071,207.934 M384.784,218.697l-0.188-0.125c-2.065,3.755-4.13,5.068-6.07,5.068
	c-1.314,0-1.878-0.938-1.878-2.377c0-4.006,6.384-13.143,6.384-19.338c0-2.567-0.938-4.444-4.318-4.444
	c-2.002,0-4.256,1.439-6.195,5.632l0.188,0.188c1.564-3.191,3.317-4.506,4.568-4.506c1.189,0,1.502,0.501,1.502,1.815
	c0,5.694-6.446,15.145-6.446,20.152c0,2.564,1.628,4.442,4.944,4.442C379.527,225.206,382.53,223.266,384.784,218.697
	 M386.599,184.715c0-1.752-1.439-3.129-3.191-3.129c-1.753,0-3.191,1.377-3.191,3.129c0,1.815,1.438,3.192,3.191,3.192
	C385.159,187.907,386.599,186.53,386.599,184.715 M372.33,198.045h-4.632l3.005-9.764l-5.007,0.376l-2.941,9.388h-4.568
	c-0.125,0-0.188,0.188-0.062,0.188h4.568l-6.072,19.339c-1.562,5.006-0.312,7.635,3.632,7.635c2.252,0,5.194-1.94,7.51-6.509
	l-0.188-0.125c-2.127,3.755-4.192,5.068-6.132,5.068c-1.128,0-1.566-0.813-1.189-1.939l7.321-23.469h4.693
	C372.394,198.232,372.519,198.045,372.33,198.045 M346.609,202.05l-4.131,12.955c-1.878,4.757-4.881,9.638-8.699,9.638
	c-3.442,0-4.506-2.253-4.506-5.507c0-5.257,3.504-16.084,8.073-19.526c1.502-1.126,2.69-1.878,5.256-1.878
	C345.482,197.731,346.922,199.358,346.609,202.05 M352.93,197.67l-5.069,0.375l-0.876,2.879c-0.25-2.379-2.003-3.442-4.382-3.442
	c-9.637,0-17.585,9.7-17.585,17.837c0,4.944,2.191,9.888,8.262,9.888c3.066,0,6.508-3.066,8.762-8.574
	c-1.753,4.882-0.502,8.574,3.316,8.574c2.253,0,5.257-1.94,7.51-6.509l-0.188-0.125c-2.129,3.755-4.193,5.068-6.07,5.068
	c-1.315,0-1.565-0.938-1.064-2.69L352.93,197.67z M322.892,202.677c0-2.755-3.13-5.195-7.01-5.195
	c-8.324,0-15.959,8.261-15.959,17.21c0,6.196,4.255,10.515,9.889,10.515c4.192,0,7.571-2.128,10.45-6.008l-0.188-0.126
	c-2.628,3.317-5.694,5.884-10.576,5.884c-4.568,0-5.632-3.066-5.632-6.07c0-3.255,3.441-14.207,4.818-16.71
	c1.502-2.69,3.505-4.506,7.51-4.506c1.69,0,2.254,0.5,2.254,1.877c0,1.314-1.002,1.502-1.002,3.38c0,1.313,0.813,2.565,2.565,2.565
	C321.576,205.492,322.892,204.49,322.892,202.677 M297.419,218.697l-0.188-0.125c-2.065,3.755-4.131,5.068-6.07,5.068
	c-1.313,0-1.877-0.938-1.877-2.377c0-4.006,6.383-13.143,6.383-19.338c0-2.567-0.939-4.444-4.318-4.444
	c-2.003,0-4.256,1.439-6.196,5.632l0.188,0.188c1.564-3.191,3.316-4.506,4.568-4.506c1.188,0,1.502,0.501,1.502,1.815
	c0,5.694-6.445,15.145-6.445,20.152c0,2.564,1.627,4.442,4.943,4.442C292.162,225.206,295.166,223.266,297.419,218.697
	 M299.234,184.715c0-1.752-1.439-3.129-3.191-3.129s-3.192,1.377-3.192,3.129c0,1.815,1.44,3.192,3.192,3.192
	S299.234,186.53,299.234,184.715 M284.967,198.045h-4.632l3.004-9.764l-5.007,0.376l-2.94,9.388h-4.568
	c-0.125,0-0.188,0.188-0.063,0.188h4.568l-6.07,19.339c-1.564,5.006-0.312,7.635,3.63,7.635c2.254,0,5.194-1.94,7.511-6.509
	l-0.188-0.125c-2.128,3.755-4.193,5.068-6.133,5.068c-1.127,0-1.565-0.813-1.189-1.939l7.322-23.469h4.693
	C285.029,198.232,285.153,198.045,284.967,198.045 M265.628,201.862c0-2.504-2.253-4.381-6.133-4.381c-5.695,0-9.2,5.195-9.2,8.449
	c0,6.696,8.198,7.385,8.198,13.455c0,3.191-2.127,5.57-6.069,5.57c-3.693,0-4.507-1.439-4.507-2.691c0-1.69,2.317-0.938,2.317-3.756
	c0-1-0.877-2.314-2.567-2.314c-1.689,0-2.878,1.628-2.878,3.316c0,2.065,2.065,5.695,7.636,5.695c7.196,0,10.013-4.442,10.013-8.198
	c0-7.009-8.698-8.824-8.698-14.145c0-3.066,2.378-5.193,5.757-5.193c1.565,0,1.939,0.813,1.939,1.877
	c0,1.002-0.875,1.314-0.875,2.629c0,1.188,0.751,2.378,2.377,2.378C264.376,204.554,265.628,203.615,265.628,201.862
	 M243.474,218.697l-0.188-0.125c-2.065,3.755-4.13,5.068-6.071,5.068c-1.314,0-1.877-0.938-1.877-2.377
	c0-4.006,6.383-13.143,6.383-19.338c0-2.567-0.938-4.444-4.318-4.444c-2.001,0-4.255,1.439-6.196,5.632l0.188,0.188
	c1.565-3.191,3.316-4.506,4.569-4.506c1.188,0,1.501,0.501,1.501,1.815c0,5.694-6.446,15.145-6.446,20.152
	c0,2.564,1.627,4.442,4.945,4.442C238.216,225.206,241.221,223.266,243.474,218.697 M245.289,184.715
	c0-1.752-1.439-3.129-3.191-3.129s-3.191,1.377-3.191,3.129c0,1.815,1.439,3.192,3.191,3.192S245.289,186.53,245.289,184.715
	 M228.016,218.697l-0.25-0.125c-2.065,3.755-4.13,5.068-6.071,5.068c-1.314,0-1.877-0.938-1.877-2.377
	c0-4.006,5.82-13.581,5.82-18.838c0-3.63-2.441-4.944-4.255-4.944c-3.693,0-9.639,3.755-13.331,10.327l9.2-29.164
	c0.063-0.125,0.063-0.188-0.125-0.188l-8.637,0.188c-0.125,0-0.188,0.25-0.062,0.25l3.442-0.063c0.25,0,0.375,0.063,0.313,0.25
	l-14.332,45.562h4.943l4.945-15.771c4.13-7.01,7.885-8.887,10.389-8.887c1.501,0,2.753,1.127,2.753,2.691
	c0,5.694-5.57,13.079-5.57,18.087c0,2.564,1.627,4.442,4.945,4.442C222.508,225.206,225.701,223.266,228.016,218.697
	 M191.843,203.363c0,5.259-3.504,16.21-8.073,19.715c-1.439,1.064-2.628,1.878-5.257,1.878c-2.816,0-4.318-1.69-4.005-4.319
	l4.13-13.078c1.877-4.757,4.881-9.577,8.761-9.577C190.78,197.981,191.843,200.11,191.843,203.363 M196.1,207.245
	c0-4.945-2.191-9.826-8.261-9.826c-3.066,0-6.509,2.941-8.762,8.448c1.69-5.882,0.626-8.448-2.879-8.448
	c-2.003,0-4.694,1.439-6.633,5.694l0.188,0.127c1.502-3.192,3.317-4.507,4.506-4.507c1.251,0,1.877,1.188,1.314,3.004l-13.33,42.118
	h4.944l6.947-22.154c0.25,2.378,2.003,3.505,4.38,3.505C188.151,225.206,196.1,215.318,196.1,207.245 M160.991,203.803
	c0,3.255-3.38,14.206-4.819,16.71c-1.502,2.69-3.504,4.443-7.51,4.443c-4.506,0-5.57-3.066-5.57-6.07
	c0-3.255,3.379-14.207,4.756-16.71c1.564-2.69,3.567-4.506,7.51-4.506C159.927,197.67,160.991,200.736,160.991,203.803
	 M164.934,207.934c0-6.196-4.193-10.452-9.826-10.452c-8.386,0-15.959,8.261-15.959,17.21c0,6.196,4.193,10.515,9.826,10.515
	C157.361,225.206,164.934,216.945,164.934,207.934 M136.458,201.862c0-2.504-2.252-4.381-6.132-4.381c-5.695,0-9.2,5.195-9.2,8.449
	c0,6.696,8.198,7.385,8.198,13.455c0,3.191-2.127,5.57-6.071,5.57c-3.692,0-4.506-1.439-4.506-2.691c0-1.69,2.316-0.938,2.316-3.756
	c0-1-0.875-2.314-2.566-2.314c-1.689,0-2.878,1.628-2.878,3.316c0,2.065,2.064,5.695,7.634,5.695c7.198,0,10.014-4.442,10.014-8.198
	c0-7.009-8.699-8.824-8.699-14.145c0-3.066,2.378-5.193,5.758-5.193c1.564,0,1.939,0.813,1.939,1.877
	c0,1.002-0.876,1.314-0.876,2.629c0,1.188,0.75,2.378,2.378,2.378C135.207,204.554,136.458,203.615,136.458,201.862
	 M114.808,182.775c0-2.629-1.627-4.631-6.196-4.631c-6.07,0-11.078,6.445-14.144,15.771c-0.376,1.188-0.813,2.565-1.19,4.13h-6.508
	c-0.125,0-0.188,0.188-0.063,0.188h6.509c-2.691,9.576-5.82,23.845-8.511,32.418c-3.129,9.951-4.193,13.518-7.322,13.518
	c-1.314,0-1.689-0.75-1.689-2.002c0-0.938,1.063-2.128,1.063-3.505c0-1.127-0.688-2.065-2.441-2.065
	c-1.627,0-2.941,1.189-2.941,3.192c0,3.003,2.377,4.631,6.008,4.631c6.445,0,9.45-6.76,12.516-16.209
	c2.316-6.884,5.57-20.026,8.261-29.978h7.26c0.188,0,0.251-0.188,0.125-0.188h-7.322c0.5-1.877,1.001-3.63,1.439-5.195
	c3.63-11.515,6.571-14.456,8.95-14.456c1.502,0,1.939,0.563,1.939,1.941c0,0.938-1.125,2.253-1.125,3.566
	c0,1.188,0.75,2.128,2.502,2.128C113.494,186.029,114.808,184.84,114.808,182.775 M78.197,203.803c0,3.255-3.38,14.206-4.819,16.71
	c-1.502,2.69-3.505,4.443-7.51,4.443c-4.506,0-5.57-3.066-5.57-6.07c0-3.255,3.38-14.207,4.757-16.71
	c1.564-2.69,3.567-4.506,7.51-4.506C77.133,197.67,78.197,200.736,78.197,203.803 M82.14,207.934c0-6.196-4.193-10.452-9.826-10.452
	c-8.386,0-15.959,8.261-15.959,17.21c0,6.196,4.193,10.515,9.826,10.515C74.567,225.206,82.14,216.945,82.14,207.934"/>
<path fill="#2E2B2B" d="M414.73,139.295l-0.25-0.125c-2.065,3.756-4.13,5.069-6.07,5.069c-1.313,0-1.877-0.939-1.877-2.379
	c0-4.005,5.82-13.58,5.82-18.837c0-3.63-2.441-4.943-4.318-4.943c-3.88,0-8.637,3.629-12.33,10.326
	c2.63-7.198-1.125-10.326-3.816-10.326c-3.881,0-8.637,3.629-12.329,10.326c2.628-7.198,1.438-10.326-2.378-10.326
	c-2.004,0-4.694,1.377-6.634,5.632l0.187,0.188c1.503-3.191,3.318-4.506,4.507-4.506c1.252,0,1.877,1.189,1.313,3.005l-7.259,22.842
	h4.943l4.945-15.771c4.13-7.01,7.446-8.887,9.449-8.887c2.754,0,3.881,2.189,2.566,6.32l-5.759,18.337h4.945l4.943-15.771
	c4.13-7.01,7.448-8.887,9.45-8.887c1.564,0,2.816,1.126,2.816,2.69c0,5.695-5.57,13.08-5.57,18.087c0,2.566,1.627,4.443,4.944,4.443
	C409.224,145.804,412.415,143.863,414.73,139.295 M368.857,122.398c0-2.691-1.814-4.318-4.38-4.318
	c-3.005,0-5.759,2.878-9.075,10.326c2.691-7.198,1.502-10.39-2.315-10.39c-2.003,0-4.757,1.44-6.696,5.695l0.25,0.188
	c1.502-3.191,3.254-4.506,4.506-4.506c1.189,0,1.878,1.189,1.314,3.005l-7.26,22.842h4.944l4.943-15.771
	c3.943-7.948,6.009-9.389,7.197-9.389c1.189,0,1.628,0.502,1.628,1.44c0,1.001-0.814,1.127-0.814,2.504
	c0,1.188,1.064,2.128,2.88,2.128C367.543,126.153,368.857,124.399,368.857,122.398 M337.816,124.399
	c0,3.255-3.379,14.208-4.818,16.711c-1.502,2.691-3.504,4.443-7.51,4.443c-4.506,0-5.57-3.067-5.57-6.07
	c0-3.255,3.38-14.207,4.757-16.711c1.564-2.691,3.566-4.506,7.51-4.506C336.753,118.267,337.816,121.334,337.816,124.399
	 M341.76,128.53c0-6.195-4.193-10.45-9.825-10.45c-8.387,0-15.959,8.26-15.959,17.21c0,6.195,4.193,10.514,9.826,10.514
	C334.188,145.804,341.76,137.543,341.76,128.53 M327.867,103.372c0-2.628-1.627-4.631-6.195-4.631
	c-6.07,0-11.077,6.446-14.144,15.771c-0.376,1.188-0.813,2.565-1.189,4.131h-6.509c-0.125,0-0.188,0.187-0.062,0.187h6.509
	c-2.691,9.576-5.82,23.845-8.512,32.419c-3.129,9.95-4.193,13.518-7.321,13.518c-1.315,0-1.69-0.751-1.69-2.003
	c0-0.938,1.063-2.128,1.063-3.505c0-1.127-0.688-2.064-2.44-2.064c-1.627,0-2.941,1.188-2.941,3.191
	c0,3.004,2.379,4.632,6.009,4.632c6.445,0,9.45-6.76,12.517-16.21c2.315-6.885,5.569-20.026,8.261-29.978h7.26
	c0.187,0,0.25-0.187,0.125-0.187h-7.322c0.5-1.878,1.001-3.631,1.439-5.195c3.63-11.516,6.571-14.456,8.949-14.456
	c1.502,0,1.94,0.562,1.94,1.938c0,0.939-1.127,2.254-1.127,3.568c0,1.189,0.752,2.127,2.504,2.127
	C326.554,106.626,327.867,105.438,327.867,103.372 M280.116,121.271c0,3.941-2.565,9.575-10.2,9.575h-3.13
	c2.128-7.698,4.13-12.58,10.201-12.58C279.115,118.267,280.116,119.331,280.116,121.271 M283.935,123.148
	c0-2.19-1.69-5.068-6.947-5.068c-8.386,0-16.021,8.26-16.021,17.21c0,6.195,4.255,10.514,9.888,10.514
	c4.193,0,6.759-1.564,9.7-5.068l-0.188-0.127c-2.314,2.817-4.693,4.945-9.825,4.945c-4.505,0-5.569-3.067-5.569-6.07
	c0-1.753,0.626-4.381,1.689-8.387h4.693C278.489,131.097,283.935,128.155,283.935,123.148 M261.78,118.644h-4.631l3.004-9.764
	l-5.006,0.376l-2.941,9.388h-4.568c-0.126,0-0.189,0.187-0.063,0.187h4.568l-6.07,19.338c-1.565,5.008-0.312,7.636,3.63,7.636
	c2.253,0,5.195-1.94,7.509-6.509l-0.188-0.125c-2.127,3.756-4.193,5.069-6.133,5.069c-1.126,0-1.564-0.813-1.189-1.94l7.322-23.469
	h4.694C261.844,118.83,261.969,118.644,261.78,118.644 M236.059,122.648l-4.13,12.954c-1.877,4.756-4.882,9.638-8.7,9.638
	c-3.441,0-4.505-2.253-4.505-5.507c0-5.258,3.504-16.084,8.073-19.526c1.501-1.126,2.691-1.877,5.257-1.877
	C234.933,118.33,236.372,119.957,236.059,122.648 M242.38,118.267l-5.069,0.377l-0.876,2.878c-0.25-2.378-2.002-3.441-4.38-3.441
	c-9.638,0-17.586,9.7-17.586,17.836c0,4.943,2.19,9.888,8.261,9.888c3.067,0,6.509-3.067,8.762-8.573
	c-1.752,4.881-0.5,8.573,3.316,8.573c2.254,0,5.258-1.94,7.511-6.509l-0.188-0.125c-2.128,3.756-4.193,5.069-6.071,5.069
	c-1.314,0-1.564-0.939-1.063-2.69L242.38,118.267z M212.278,139.295l-0.25-0.125c-2.064,3.756-4.13,5.069-6.07,5.069
	c-1.314,0-1.877-0.939-1.877-2.379c0-4.005,5.82-13.58,5.82-18.837c0-3.63-2.441-4.943-4.318-4.943
	c-3.88,0-8.636,3.629-12.328,10.326c2.628-7.198-1.127-10.326-3.818-10.326c-3.88,0-8.637,3.629-12.329,10.326
	c2.629-7.198,1.44-10.326-2.378-10.326c-2.002,0-4.694,1.377-6.634,5.632l0.188,0.188c1.502-3.191,3.316-4.506,4.505-4.506
	c1.252,0,1.877,1.189,1.315,3.005l-7.261,22.842h4.945l4.944-15.771c4.13-7.01,7.448-8.887,9.45-8.887
	c2.754,0,3.88,2.189,2.566,6.32l-5.757,18.337h4.943l4.944-15.771c4.131-7.01,7.448-8.887,9.45-8.887
	c1.565,0,2.816,1.126,2.816,2.69c0,5.695-5.569,13.08-5.569,18.087c0,2.566,1.627,4.443,4.943,4.443
	C206.771,145.804,209.963,143.863,212.278,139.295 M164.528,139.295l-0.188-0.125c-2.065,3.756-4.13,5.069-6.07,5.069
	c-1.314,0-1.877-0.939-1.877-2.379c0-4.005,6.384-13.143,6.384-19.338c0-2.565-0.94-4.442-4.318-4.442
	c-2.003,0-4.256,1.438-6.196,5.632l0.188,0.188c1.564-3.191,3.317-4.506,4.568-4.506c1.189,0,1.502,0.501,1.502,1.814
	c0,5.695-6.446,15.146-6.446,20.152c0,2.566,1.627,4.443,4.944,4.443C159.271,145.804,162.274,143.863,164.528,139.295
	 M166.343,105.312c0-1.753-1.439-3.129-3.191-3.129c-1.752,0-3.192,1.376-3.192,3.129c0,1.814,1.44,3.191,3.192,3.191
	C164.903,108.504,166.343,107.127,166.343,105.312 M152.074,118.644h-4.631l3.004-9.764l-5.007,0.376l-2.941,9.388h-4.568
	c-0.125,0-0.188,0.187-0.063,0.187h4.568l-6.07,19.338c-1.564,5.008-0.312,7.636,3.629,7.636c2.254,0,5.195-1.94,7.511-6.509
	l-0.188-0.125c-2.128,3.756-4.193,5.069-6.133,5.069c-1.127,0-1.565-0.813-1.19-1.94l7.323-23.469h4.693
	C152.136,118.83,152.262,118.644,152.074,118.644 M138.056,99.241c0-0.125,0-0.188-0.125-0.188l-8.7,0.188
	c-0.125,0-0.187,0.251-0.062,0.251l3.442-0.063c0.313,0,0.375,0.063,0.375,0.25l-12.141,38.488c-1.439,4.568-0.25,7.636,3.631,7.636
	c2.252,0,5.257-1.94,7.51-6.509l-0.188-0.124c-2.127,3.755-4.193,5.068-6.132,5.068c-1.127,0-1.565-0.813-1.189-1.94L138.056,99.241
	z M117.341,118.266l-5.069,0.377l-4.944,15.77c-4.131,6.948-7.886,8.887-10.389,8.887c-1.502,0-2.941-1.314-2.941-2.879
	c0-5.694,5.758-12.891,5.758-17.898c0-2.315-1.001-4.442-4.256-4.442c-1.939,0-4.255,1.377-6.195,5.632l0.188,0.188
	c1.564-3.191,3.316-4.506,4.568-4.506c1.002,0,1.439,0.438,1.439,1.814c0,4.068-6.071,13.519-6.071,18.776
	c0,3.629,2.128,5.819,5.132,5.819c3.693,0,8.762-3.755,12.455-10.326c-2.691,7.135-1.502,10.326,2.316,10.326
	c2.252,0,5.695-1.94,7.948-6.446l-0.188-0.187c-2.127,3.755-4.193,5.132-6.07,5.132c-1.189,0-1.627-0.877-1.251-2.004
	L117.341,118.266z"/>
<path fill="#2E2B2B" d="M442.079,41.869c0,3.942-2.565,9.575-10.201,9.575h-3.129c2.128-7.698,4.131-12.579,10.201-12.579
	C441.078,38.865,442.079,39.93,442.079,41.869 M445.897,43.746c0-2.189-1.69-5.07-6.947-5.07c-8.387,0-16.021,8.263-16.021,17.212
	c0,6.195,4.256,10.514,9.889,10.514c4.192,0,6.759-1.564,9.7-5.069l-0.188-0.125c-2.315,2.816-4.693,4.944-9.825,4.944
	c-4.506,0-5.57-3.067-5.57-6.071c0-1.752,0.627-4.381,1.69-8.386h4.693C440.452,51.694,445.897,48.753,445.897,43.746
	 M420.738,59.894l-0.25-0.126c-2.065,3.754-4.13,5.069-6.07,5.069c-1.314,0-1.878-0.938-1.878-2.379c0-4.005,5.82-13.58,5.82-18.837
	c0-3.63-2.44-4.945-4.256-4.945c-3.692,0-9.638,3.756-13.33,10.327l9.2-29.164c0.062-0.124,0.062-0.187-0.125-0.187l-8.637,0.187
	c-0.125,0-0.188,0.251-0.063,0.251l3.442-0.062c0.25,0,0.376,0.062,0.312,0.25l-14.331,45.562h4.944l4.943-15.771
	c4.131-7.01,7.886-8.887,10.389-8.887c1.503,0,2.755,1.126,2.755,2.69c0,5.695-5.571,13.08-5.571,18.087
	c0,2.565,1.628,4.443,4.945,4.443C415.231,66.401,418.423,64.462,420.738,59.894 M393.265,39.24h-4.632l3.005-9.763l-5.007,0.375
	l-2.941,9.388h-4.568c-0.125,0-0.188,0.188-0.063,0.188h4.569l-6.07,19.339c-1.565,5.006-0.312,7.635,3.629,7.635
	c2.254,0,5.195-1.939,7.511-6.508l-0.188-0.126c-2.127,3.754-4.193,5.069-6.132,5.069c-1.127,0-1.565-0.813-1.19-1.94l7.322-23.469
	h4.694C393.326,39.428,393.452,39.24,393.265,39.24 M361.41,43.058c0-2.503-2.252-4.382-6.133-4.382
	c-5.694,0-9.199,5.195-9.199,8.45c0,6.696,8.198,7.385,8.198,13.455c0,3.191-2.128,5.57-6.07,5.57c-3.693,0-4.507-1.439-4.507-2.691
	c0-1.689,2.315-0.938,2.315-3.755c0-1.002-0.875-2.315-2.565-2.315c-1.689,0-2.879,1.627-2.879,3.317
	c0,2.064,2.065,5.694,7.636,5.694c7.197,0,10.013-4.443,10.013-8.198c0-7.01-8.699-8.824-8.699-14.144
	c0-3.066,2.379-5.194,5.758-5.194c1.564,0,1.94,0.813,1.94,1.878c0,1.001-0.876,1.313-0.876,2.628c0,1.188,0.751,2.377,2.378,2.377
	C360.158,45.748,361.41,44.811,361.41,43.058 M339.256,59.894l-0.188-0.126c-2.065,3.754-4.131,5.069-6.07,5.069
	c-1.314,0-1.877-0.938-1.877-2.379c0-4.005,6.383-13.142,6.383-19.338c0-2.565-0.938-4.444-4.318-4.444
	c-2.003,0-4.256,1.44-6.195,5.634l0.188,0.188c1.564-3.192,3.316-4.507,4.568-4.507c1.189,0,1.502,0.501,1.502,1.815
	c0,5.695-6.445,15.145-6.445,20.151c0,2.565,1.627,4.443,4.943,4.443C333.999,66.401,337.003,64.462,339.256,59.894 M341.071,25.91
	c0-1.753-1.44-3.13-3.192-3.13s-3.191,1.377-3.191,3.13c0,1.814,1.439,3.191,3.191,3.191S341.071,27.725,341.071,25.91
	 M314.725,40.43c0-1.189-0.501-1.815-1.878-1.815c-3.942,0-7.509,8.448-12.642,21.028l-1.877-10.201
	c-1.69-9.2-3.255-10.827-5.758-10.827c-2.691,0-4.381,1.94-6.696,6.134l0.25,0.188c1.377-2.504,2.253-3.066,3.379-3.066
	c1.439,0,3.067,1.251,4.757,10.575l2.628,15.334c-4.38,10.264-7.822,17.585-14.644,17.585c-1.314,0-1.69-0.813-1.69-2.002
	c0-0.939,1.127-2.128,1.127-3.504c0-1.189-0.751-2.129-2.503-2.129c-1.565,0-2.879,1.252-2.879,3.255
	c0,2.941,2.315,4.631,5.945,4.631c7.072,0,10.764-7.634,16.396-21.403c6.947-16.898,8.386-19.776,13.831-21.467
	C313.66,42.432,314.725,41.744,314.725,40.43 M287.001,39.24h-4.632l3.004-9.763l-5.007,0.374l-2.94,9.389h-4.568
	c-0.126,0-0.188,0.188-0.063,0.188h4.568l-6.07,19.339c-1.564,5.006-0.313,7.635,3.63,7.635c2.253,0,5.194-1.939,7.511-6.508
	l-0.188-0.126c-2.128,3.754-4.193,5.069-6.134,5.069c-1.126,0-1.564-0.813-1.188-1.94l7.322-23.469h4.693
	C287.062,39.428,287.188,39.24,287.001,39.24 M267.851,59.894l-0.188-0.126c-2.065,3.754-4.13,5.069-6.07,5.069
	c-1.314,0-1.878-0.938-1.878-2.379c0-4.005,6.384-13.142,6.384-19.338c0-2.565-0.938-4.444-4.318-4.444
	c-2.002,0-4.256,1.44-6.195,5.634l0.188,0.188c1.563-3.192,3.316-4.507,4.567-4.507c1.189,0,1.502,0.501,1.502,1.815
	c0,5.695-6.446,15.145-6.446,20.151c0,2.565,1.628,4.443,4.944,4.443C262.594,66.401,265.597,64.462,267.851,59.894 M269.664,25.909
	c0-1.753-1.438-3.13-3.191-3.13c-1.752,0-3.191,1.377-3.191,3.13c0,1.814,1.439,3.192,3.191,3.192
	C268.226,29.102,269.664,27.724,269.664,25.909 M252.456,43.871c0-2.754-3.129-5.195-7.009-5.195
	c-8.323,0-15.958,8.263-15.958,17.212c0,6.195,4.255,10.514,9.887,10.514c4.193,0,7.573-2.128,10.451-6.008l-0.188-0.126
	c-2.628,3.317-5.695,5.884-10.577,5.884c-4.568,0-5.632-3.067-5.632-6.071c0-3.254,3.442-14.205,4.819-16.709
	c1.503-2.691,3.504-4.506,7.51-4.506c1.689,0,2.253,0.5,2.253,1.878c0,1.313-1.001,1.501-1.001,3.378
	c0,1.314,0.813,2.567,2.565,2.567C251.142,46.688,252.456,45.687,252.456,43.871 M226.984,59.894l-0.188-0.126
	c-2.066,3.754-4.131,5.069-6.071,5.069c-1.314,0-1.877-0.938-1.877-2.379c0-4.005,6.384-13.142,6.384-19.338
	c0-2.565-0.938-4.444-4.318-4.444c-2.002,0-4.256,1.44-6.195,5.634l0.188,0.188c1.564-3.192,3.316-4.507,4.568-4.507
	c1.189,0,1.501,0.501,1.501,1.815c0,5.695-6.446,15.145-6.446,20.151c0,2.565,1.627,4.443,4.945,4.443
	C221.728,66.401,224.73,64.462,226.984,59.894 M228.799,25.909c0-1.753-1.439-3.13-3.191-3.13s-3.191,1.377-3.191,3.13
	c0,1.814,1.439,3.192,3.191,3.192S228.799,27.724,228.799,25.909 M216.346,19.838c0-0.124,0-0.188-0.125-0.188l-8.7,0.188
	c-0.125,0-0.187,0.25-0.062,0.25l3.442-0.061c0.313,0,0.376,0.061,0.376,0.25l-12.142,38.489c-1.439,4.568-0.25,7.635,3.631,7.635
	c2.252,0,5.257-1.939,7.51-6.508l-0.188-0.126c-2.127,3.754-4.193,5.069-6.132,5.069c-1.127,0-1.565-0.813-1.189-1.94
	L216.346,19.838z M190.25,44.56c0,5.257-3.504,16.209-8.073,19.714c-1.439,1.063-2.628,1.878-5.257,1.878
	c-2.816,0-4.318-1.689-4.005-4.318l4.13-13.08c1.877-4.756,4.882-9.575,8.762-9.575C189.186,39.178,190.25,41.306,190.25,44.56
	 M194.506,48.439c0-4.943-2.191-9.825-8.261-9.825c-3.066,0-6.509,2.942-8.762,8.448c1.689-5.882,0.625-8.448-2.879-8.448
	c-2.003,0-4.694,1.439-6.633,5.695l0.188,0.125c1.502-3.191,3.317-4.505,4.506-4.505c1.25,0,1.877,1.188,1.313,3.003l-13.33,42.118
	h4.944l6.947-22.154c0.25,2.379,2.002,3.505,4.38,3.505C186.558,66.401,194.506,56.513,194.506,48.439 M164.778,59.894l-0.25-0.126
	c-2.065,3.754-4.13,5.069-6.071,5.069c-1.314,0-1.877-0.938-1.877-2.379c0-4.005,5.82-13.58,5.82-18.837
	c0-3.63-2.441-4.945-4.318-4.945c-3.88,0-8.637,3.631-12.33,10.327c2.629-7.196-1.126-10.327-3.817-10.327
	c-3.881,0-8.636,3.631-12.329,10.326c2.628-7.196,1.439-10.326-2.378-10.326c-2.003,0-4.694,1.377-6.634,5.634l0.187,0.188
	c1.502-3.191,3.317-4.506,4.506-4.506c1.252,0,1.877,1.188,1.314,3.002l-7.259,22.845h4.944l4.944-15.771
	c4.13-7.009,7.448-8.886,9.45-8.886c2.753,0,3.88,2.19,2.566,6.321l-5.758,18.337h4.945l4.944-15.771
	c4.13-7.01,7.447-8.887,9.45-8.887c1.564,0,2.816,1.126,2.816,2.69c0,5.695-5.57,13.08-5.57,18.087c0,2.565,1.627,4.443,4.945,4.443
	C159.271,66.401,162.463,64.462,164.778,59.894 M120.783,40.429c0-1.19-0.5-1.814-1.877-1.814c-3.942,0-7.51,8.447-12.642,21.028
	l-1.877-10.201c-1.689-9.2-3.254-10.827-5.757-10.827c-2.691,0-4.381,1.94-6.697,6.133l0.25,0.188
	c1.377-2.503,2.254-3.065,3.379-3.065c1.44,0,3.067,1.25,4.757,10.574l2.629,15.335c-4.381,10.264-7.823,17.584-14.645,17.584
	c-1.314,0-1.689-0.813-1.689-2.001c0-0.939,1.126-2.128,1.126-3.505c0-1.19-0.75-2.128-2.503-2.128
	c-1.564,0-2.879,1.251-2.879,3.255c0,2.941,2.316,4.629,5.946,4.629c7.072,0,10.764-7.634,16.397-21.401
	c6.946-16.899,8.386-19.777,13.83-21.468C119.719,42.432,120.783,41.742,120.783,40.429 M91.495,20.591
	c0.062-0.189-0.125-0.252-0.188,0c-0.375,0.688-1.252,1.501-3.066,1.501c-3.067,0-5.132-1.69-8.324-1.69
	c-8.323,0-14.019,6.509-14.019,14.019c0,10.891,17.336,13.455,17.336,22.905c0,4.194-2.816,9.326-11.703,9.326
	c-8.7,0-13.08-7.698-10.952-14.458c0.062-0.188-0.188-0.188-0.25,0l-4.006,12.894c0,0.124,0.188,0.124,0.25,0
	c0.501-1.002,1.44-1.315,3.067-1.315c2.753,0,6.634,3.13,11.891,3.13c10.012,0,15.583-7.196,15.583-14.645
	c0-10.515-17.273-14.27-17.273-23.029c0-4.821,3.379-8.575,10.139-8.575c5.007,0,10.014,4.193,7.948,10.764
	c0,0.126,0.25,0.126,0.25,0L91.495,20.591z"/>
<path fill="#2E2B2B" d="M26.131,0.549c0.136,0,0.41-0.549,0-0.549C11.765,2.873,0,16.28,0,24.899c0,2.874,1.778,6.431,5.746,6.431
	c4.378,0,6.978-3.147,6.978-7.388c0-3.831-3.146-6.02-3.146-9.44c0-5.336,6.157-9.85,10.945-12.176
	C22.027,1.643,23.941,0.959,26.131,0.549 M46.653,0.549c0.137,0,0.411-0.549,0-0.549C32.288,2.873,20.522,16.28,20.522,24.899
	c0,2.874,1.778,6.431,5.746,6.431c4.378,0,6.978-3.147,6.978-7.388c0-3.831-3.147-6.02-3.147-9.44c0-5.336,6.157-9.85,10.945-12.176
	C42.548,1.643,44.463,0.959,46.653,0.549"/>
<path fill="#2E2B2B" d="M479.485,255.426c-0.137,0-0.41,0.547,0,0.547c14.366-2.872,26.132-16.28,26.132-24.9
	c0-2.873-1.778-6.43-5.745-6.43c-4.38,0-6.978,3.146-6.978,7.389c0,3.83,3.146,6.02,3.146,9.438c0,5.337-6.156,9.852-10.945,12.177
	C483.59,254.331,481.675,255.015,479.485,255.426 M458.965,255.426c-0.138,0-0.411,0.547,0,0.547
	c14.364-2.872,26.13-16.28,26.13-24.9c0-2.873-1.778-6.43-5.746-6.43c-4.377,0-6.977,3.146-6.977,7.389
	c0,3.83,3.146,6.02,3.146,9.438c0,5.337-6.156,9.852-10.945,12.177C463.069,254.331,461.154,255.015,458.965,255.426"/>
<path fill="#2E2B2B" d="M383.412,323.375c0.05,0,0.05-0.102,0-0.102h-2.289c-0.101,0-0.152-0.025-0.152-0.102v-17.619
	c0-0.076,0.052-0.102,0.152-0.102h2.289c0.05,0,0.05-0.103,0-0.103h-8.391c-0.051,0-0.051,0.103,0,0.103h2.288
	c0.103,0,0.152,0.025,0.152,0.102v17.619c0,0.076-0.05,0.102-0.152,0.102h-2.288c-0.051,0-0.051,0.102,0,0.102H383.412z
	 M372.784,323.756v-6.686c0-0.051-0.076-0.051-0.076,0c0,3.33-2.568,6.661-5.746,6.661c-1.169,0-2.263-0.255-3-0.992
	c-1.246-1.245-1.754-3.89-1.754-8.364c0-4.501,0.508-7.119,1.754-8.364c0.737-0.763,1.704-0.992,2.873-0.992
	c2.567,0,5.365,3.382,5.365,5.898c0,0.051,0.101,0.051,0.101,0v-5.923c0-0.052-0.101-0.052-0.101,0
	c-0.052,0.279-0.561,0.609-1.298,0.609c-1.194,0-2.796-0.687-4.067-0.687c-4.933,0-8.466,4.398-8.466,9.458
	c0,5.033,3.66,9.432,8.593,9.432c1.449,0,3.381-0.813,4.551-0.813c0.737,0,1.145,0.458,1.195,0.763
	C372.708,323.782,372.784,323.782,372.784,323.756 M356.361,305.451c0.051,0,0.051-0.103,0-0.103h-5.009
	c-0.051,0-0.051,0.103,0,0.103h2.288c0.102,0,0.152,0.025,0.152,0.102v12.28l-7.957-12.025c-0.254-0.356-0.407-0.459-0.585-0.459
	h-6.204c-0.051,0-0.051,0.103,0,0.103h2.288c0.102,0,0.152,0.025,0.152,0.102v17.619c0,0.076-0.051,0.102-0.152,0.102h-2.288
	c-0.051,0-0.051,0.102,0,0.102h5.009c0.051,0,0.051-0.102,0-0.102h-2.288c-0.102,0-0.153-0.025-0.153-0.102v-17.568l12.154,18.103
	c0.075,0.101,0.151,0.076,0.151,0v-18.153c0-0.076,0.052-0.102,0.153-0.102H356.361z M337.216,323.375c0.052,0,0.052-0.102,0-0.102
	h-2.287c-0.102,0-0.153-0.025-0.153-0.102v-17.619c0-0.076,0.052-0.102,0.153-0.102h2.287c0.052,0,0.052-0.103,0-0.103h-8.39
	c-0.051,0-0.051,0.103,0,0.103h2.289c0.101,0,0.152,0.025,0.152,0.102v17.619c0,0.076-0.052,0.102-0.152,0.102h-2.289
	c-0.051,0-0.051,0.102,0,0.102H337.216z M328.547,305.451c0.051,0,0.051-0.103,0-0.103h-5.135c-0.053,0-0.053,0.103,0,0.103h2.439
	c0.152,0,0.179,0.076-0.178,1.067l-4.525,12.763l-5.873-13.729c-0.025-0.076,0-0.102,0.127-0.102h2.721c0.051,0,0.051-0.103,0-0.103
	h-9.127c-0.051,0-0.051,0.103,0,0.103h2.313c0.127,0,0.178,0.025,0.203,0.102l8.034,18.203c0.024,0.077,0.102,0.077,0.127,0
	l6.127-17.237c0.331-0.966,0.433-1.067,0.61-1.067H328.547z M297.885,317.02h-5.517l2.822-7.679L297.885,317.02z M306.198,323.375
	c0.052,0,0.052-0.102,0-0.102h-2.16c-0.102,0-0.178-0.051-0.204-0.102l-7.042-18.178c-0.025-0.077-0.102-0.077-0.127,0
	l-6.306,17.211c-0.355,0.992-0.407,1.068-0.635,1.068h-1.934c-0.051,0-0.051,0.102,0,0.102h4.806c0.052,0,0.052-0.102,0-0.102
	h-2.339c-0.152,0-0.127-0.152,0.203-1.068l1.882-5.084h5.593l2.161,6.051c0,0.051-0.025,0.102-0.127,0.102h-2.415
	c-0.076,0-0.076,0.102,0,0.102H306.198z M284.056,314.375c0,4.906-0.509,6.763-1.755,7.958c-0.762,0.712-1.702,0.94-2.873,0.94
	h-2.21c-0.129,0-0.179-0.025-0.179-0.102v-17.619c0-0.076,0.05-0.102,0.179-0.102h2.21c1.171,0,2.111,0.229,2.873,0.94
	C283.547,307.586,284.056,310.078,284.056,314.375 M287.869,314.375c0-4.982-3.789-9.026-8.441-9.026h-8.312
	c-0.051,0-0.051,0.103,0,0.103h2.263c0.127,0,0.178,0.025,0.178,0.102v17.619c0,0.076-0.051,0.102-0.178,0.102h-2.263
	c-0.051,0-0.051,0.102,0,0.102h8.312C284.08,323.375,287.869,319.333,287.869,314.375 M260.59,314.375
	c0,5.136-0.534,7.119-1.78,8.364c-0.737,0.737-1.702,0.992-2.872,0.992c-1.146,0-2.111-0.255-2.848-0.992
	c-1.247-1.245-1.78-3.229-1.78-8.364c0-4.501,0.534-7.119,1.78-8.364c0.736-0.763,1.702-0.992,2.848-0.992
	c1.17,0,2.135,0.229,2.872,0.992C260.056,307.256,260.59,309.874,260.59,314.375 M264.402,314.375c0-5.238-3.787-9.458-8.465-9.458
	c-4.908,0-8.441,4.398-8.441,9.458c0,5.212,3.787,9.432,8.441,9.432C260.615,323.807,264.402,319.587,264.402,314.375
	 M241.141,314.375c0,4.906-0.509,6.763-1.755,7.958c-0.762,0.712-1.704,0.94-2.873,0.94h-2.211c-0.128,0-0.178-0.025-0.178-0.102
	v-17.619c0-0.076,0.05-0.102,0.178-0.102h2.211c1.169,0,2.11,0.229,2.873,0.94C240.631,307.586,241.141,310.078,241.141,314.375
	 M244.954,314.375c0-4.982-3.789-9.026-8.441-9.026h-8.313c-0.052,0-0.052,0.103,0,0.103h2.263c0.126,0,0.177,0.025,0.177,0.102
	v17.619c0,0.076-0.051,0.102-0.177,0.102h-2.263c-0.052,0-0.052,0.102,0,0.102h8.313
	C241.165,323.375,244.954,319.333,244.954,314.375 M221.13,309.874c0,3.229-0.584,4.068-3.102,4.068h-1.753v-8.39
	c0-0.076,0.05-0.102,0.178-0.102h1.322C220.191,305.451,221.13,306.696,221.13,309.874 M228.682,322.918
	c0.051-0.025,0-0.103-0.052-0.076c-0.33,0.381-0.939,0.737-1.627,0.737c-0.965,0-1.576-1.067-1.576-2.364v-2.289
	c0-2.644-1.652-4.932-6.153-4.932c3.204,0,5.364-1.856,5.364-4.221c0-2.492-2.365-4.425-6.229-4.425h-8.06
	c-0.051,0-0.051,0.103,0,0.103h2.288c0.101,0,0.153,0.025,0.153,0.102v17.619c0,0.076-0.052,0.102-0.153,0.102h-2.288
	c-0.051,0-0.051,0.102,0,0.102h8.39c0.051,0,0.051-0.102,0-0.102h-2.288c-0.128,0-0.178-0.025-0.178-0.102v-9.127h1.753
	c2.34,0,3.814,0.94,3.814,3.178v1.652c0,3.637,2.288,4.932,4.423,4.932C227.41,323.807,228.147,323.451,228.682,322.918
	 M201.783,317.02h-5.518l2.822-7.679L201.783,317.02z M210.097,323.375c0.051,0,0.051-0.102,0-0.102h-2.161
	c-0.102,0-0.179-0.051-0.204-0.102l-7.042-18.178c-0.026-0.077-0.102-0.077-0.127,0l-6.306,17.211
	c-0.356,0.992-0.407,1.068-0.636,1.068h-1.932c-0.05,0-0.05,0.102,0,0.102h4.806c0.05,0,0.05-0.102,0-0.102h-2.34
	c-0.152,0-0.127-0.152,0.204-1.068l1.882-5.084h5.593l2.161,6.051c0,0.051-0.026,0.102-0.127,0.102h-2.415
	c-0.077,0-0.077,0.102,0,0.102H210.097z M191.538,305.451c0.051,0,0.051-0.103,0-0.103h-5.008c-0.051,0-0.051,0.103,0,0.103h2.288
	c0.102,0,0.153,0.025,0.153,0.102v12.28l-7.958-12.025c-0.254-0.356-0.407-0.459-0.586-0.459h-6.203c-0.05,0-0.05,0.103,0,0.103
	h2.288c0.103,0,0.153,0.025,0.153,0.102v17.619c0,0.076-0.05,0.102-0.153,0.102h-2.288c-0.05,0-0.05,0.102,0,0.102h5.009
	c0.051,0,0.051-0.102,0-0.102h-2.288c-0.101,0-0.153-0.025-0.153-0.102v-17.568l12.153,18.103c0.076,0.101,0.152,0.076,0.152,0
	v-18.153c0-0.076,0.052-0.102,0.153-0.102H191.538z M168.274,314.375c0,5.136-0.534,7.119-1.779,8.364
	c-0.738,0.737-1.703,0.992-2.873,0.992c-1.144,0-2.111-0.255-2.848-0.992c-1.245-1.245-1.78-3.229-1.78-8.364
	c0-4.501,0.535-7.119,1.78-8.364c0.737-0.763,1.704-0.992,2.848-0.992c1.17,0,2.135,0.229,2.873,0.992
	C167.741,307.256,168.274,309.874,168.274,314.375 M172.088,314.375c0-5.238-3.788-9.458-8.466-9.458
	c-4.907,0-8.441,4.398-8.441,9.458c0,5.212,3.789,9.432,8.441,9.432C168.3,323.807,172.088,319.587,172.088,314.375 M153.3,323.299
	v-5.746c0-0.05-0.102-0.05-0.102,0c0,2.619-2.008,5.721-6.28,5.721h-2.644c-0.127,0-0.178-0.025-0.178-0.102v-9h0.661
	c2.084,0,3.61,1.703,3.61,3.432c0,0.051,0.077,0.051,0.077,0v-6.966c0-0.051-0.077-0.051-0.077,0c0,1.754-1.526,3.432-3.61,3.432
	h-0.661v-8.517c0-0.076,0.051-0.102,0.178-0.102h2.568c3.254,0,4.983,2.848,4.983,5.212c0,0.051,0.102,0.051,0.102,0v-5.237
	c0-0.025,0-0.077-0.077-0.077h-13.703c-0.051,0-0.051,0.103,0,0.103h2.288c0.127,0,0.177,0.025,0.177,0.102v17.619
	c0,0.076-0.05,0.102-0.177,0.102h-2.288c-0.051,0-0.051,0.102,0,0.102h15.077C153.274,323.375,153.3,323.35,153.3,323.299
	 M136.697,323.299v-5.975c0-0.051-0.101-0.051-0.101,0c0,2.594-1.729,5.949-5.669,5.949h-2.594c-0.102,0-0.153-0.025-0.153-0.102
	v-17.619c0-0.076,0.051-0.102,0.153-0.102h2.288c0.051,0,0.051-0.103,0-0.103h-8.39c-0.051,0-0.051,0.103,0,0.103h2.288
	c0.102,0,0.153,0.025,0.153,0.102v17.619c0,0.076-0.051,0.102-0.153,0.102h-2.288c-0.051,0-0.051,0.102,0,0.102h14.39
	C136.672,323.375,136.697,323.35,136.697,323.299"/>
<rect x="0" fill="none" width="505.618" height="323.813"/>
</svg>
